<svg width="1440" height="1024" viewBox="0 0 1440 1024" fill="none" xmlns="http://www.w3.org/2000/svg">
<rect width="1440" height="1024" fill="#3D5A80"/>
<path d="M225.894 234.197C232.76 225.935 237.536 216.141 239.817 205.644C242.098 195.146 241.817 184.254 238.998 173.888C236.178 163.522 230.904 153.987 223.621 146.091C216.338 138.194 207.26 132.168 197.155 128.522C187.05 124.876 176.216 123.718 165.568 125.144C154.921 126.571 144.774 130.541 135.986 136.719C127.197 142.897 120.026 151.1 115.079 160.635C110.131 170.171 107.553 180.758 107.563 191.5C107.566 207.116 113.069 222.233 123.106 234.197L123.011 234.278C123.345 234.679 123.728 235.024 124.072 235.421C124.502 235.913 124.966 236.377 125.411 236.855C126.75 238.308 128.127 239.705 129.571 241.015C130.01 241.416 130.465 241.789 130.909 242.172C132.439 243.491 134.012 244.744 135.643 245.911C135.853 246.054 136.044 246.241 136.255 246.389V246.331C147.453 254.212 160.812 258.441 174.505 258.441C188.198 258.441 201.557 254.212 212.755 246.331V246.389C212.965 246.241 213.152 246.054 213.367 245.911C214.992 244.739 216.57 243.491 218.1 242.172C218.545 241.789 218.999 241.411 219.439 241.015C220.883 239.7 222.26 238.308 223.599 236.855C224.043 236.377 224.502 235.913 224.937 235.421C225.277 235.024 225.664 234.679 225.999 234.273L225.894 234.197ZM174.5 153.25C178.755 153.25 182.915 154.512 186.453 156.876C189.992 159.24 192.749 162.6 194.378 166.532C196.006 170.463 196.432 174.789 195.602 178.963C194.772 183.137 192.723 186.97 189.714 189.979C186.705 192.988 182.871 195.038 178.698 195.868C174.524 196.698 170.198 196.272 166.266 194.643C162.335 193.015 158.975 190.257 156.61 186.719C154.246 183.181 152.984 179.021 152.984 174.766C152.984 169.059 155.251 163.587 159.286 159.552C163.321 155.517 168.794 153.25 174.5 153.25ZM136.283 234.197C136.366 227.919 138.918 221.926 143.385 217.514C147.853 213.103 153.878 210.628 160.156 210.625H188.844C195.122 210.628 201.147 213.103 205.615 217.514C210.082 221.926 212.634 227.919 212.717 234.197C202.231 243.646 188.616 248.875 174.5 248.875C160.385 248.875 146.77 243.646 136.283 234.197Z" fill="#98C1D9"/>
<path d="M1016 35C993.909 35 976 52.9086 976 75C976 97.0914 993.909 115 1016 115C1038.09 115 1056 97.0914 1056 75C1056 52.9086 1038.09 35 1016 35ZM1024.85 57.9002C1029.61 57.8259 1033.9 60.4099 1035.94 64.8151C1037.83 70.6389 1036.25 76.5635 1032.93 81.0284C1030.73 84.0562 1028.11 86.6673 1025.43 88.9489C1022.96 91.2448 1017.44 95.7883 1015.98 95.9144C1014.68 95.6672 1013.23 94.2025 1012.21 93.4499C1006.44 89.0645 1000.23 83.7337 997.079 77.9027C994.439 72.3047 994.434 65.3785 998.543 61.0867C1003.87 56.2835 1011.9 57.2236 1015.98 62.2417C1017.07 60.822 1018.42 59.7039 1020.01 58.8905C1021.63 58.2445 1023.27 57.925 1024.85 57.9002Z" fill="#98C1D9"/>
<path d="M914.808 59.5001C912.805 54.719 909.891 50.3734 906.228 46.7054C902.576 43.031 898.238 40.1097 893.46 38.1072C888.566 36.0459 883.307 34.9893 877.996 35.0001H877.817C872.416 35.0269 867.192 36.0983 862.273 38.2054C857.536 40.2284 853.239 43.155 849.621 46.8215C845.994 50.4813 843.113 54.8117 841.139 59.5715C839.09 64.5211 838.052 69.8306 838.085 75.1875C838.112 81.384 839.594 87.5357 842.362 93.0357V106.607C842.362 108.875 844.201 110.714 846.46 110.714H860.014C865.539 113.503 871.637 114.97 877.826 115H878.014C883.353 115 888.523 113.964 893.398 111.938C898.151 109.959 902.473 107.072 906.121 103.438C909.799 99.7857 912.692 95.5179 914.719 90.7589C916.817 85.8304 917.889 80.5893 917.916 75.1786C917.933 69.7411 916.88 64.4643 914.808 59.5001ZM860.175 79.2857C857.817 79.2857 855.898 77.3661 855.898 75C855.898 72.634 857.817 70.7143 860.175 70.7143C862.532 70.7143 864.451 72.634 864.451 75C864.451 77.3661 862.541 79.2857 860.175 79.2857ZM877.996 79.2857C875.639 79.2857 873.719 77.3661 873.719 75C873.719 72.634 875.639 70.7143 877.996 70.7143C880.353 70.7143 882.273 72.634 882.273 75C882.273 77.3661 880.353 79.2857 877.996 79.2857ZM895.817 79.2857C893.46 79.2857 891.541 77.3661 891.541 75C891.541 72.634 893.46 70.7143 895.817 70.7143C898.174 70.7143 900.094 72.634 900.094 75C900.094 77.3661 898.174 79.2857 895.817 79.2857Z" fill="#98C1D9"/>
<path fill-rule="evenodd" clip-rule="evenodd" d="M740 35C717.909 35 700 52.9091 700 75C700 97.0909 717.909 115 740 115C762.091 115 780 97.0909 780 75C780 52.9091 762.091 35 740 35ZM743.636 89.5455C743.636 90.5099 743.253 91.4348 742.571 92.1168C741.889 92.7987 740.964 93.1818 740 93.1818C739.036 93.1818 738.111 92.7987 737.429 92.1168C736.747 91.4348 736.364 90.5099 736.364 89.5455V78.6364H725.455C724.49 78.6364 723.565 78.2533 722.883 77.5713C722.201 76.8893 721.818 75.9644 721.818 75C721.818 74.0356 722.201 73.1107 722.883 72.4287C723.565 71.7468 724.49 71.3636 725.455 71.3636H736.364V60.4545C736.364 59.4901 736.747 58.5652 737.429 57.8832C738.111 57.2013 739.036 56.8182 740 56.8182C740.964 56.8182 741.889 57.2013 742.571 57.8832C743.253 58.5652 743.636 59.4901 743.636 60.4545V71.3636H754.545C755.51 71.3636 756.435 71.7468 757.117 72.4287C757.799 73.1107 758.182 74.0356 758.182 75C758.182 75.9644 757.799 76.8893 757.117 77.5713C756.435 78.2533 755.51 78.6364 754.545 78.6364H743.636V89.5455Z" fill="#98C1D9"/>
<path d="M260.196 66.8037C257.705 64.3133 254.326 62.9142 250.804 62.9142C247.281 62.9142 243.902 64.3133 241.411 66.8037L232.015 76.1963C229.524 78.6878 228.124 82.067 228.124 85.5905C228.124 89.114 229.524 92.4932 232.015 94.9847C234.507 97.4762 237.886 98.8759 241.409 98.8759C244.933 98.8759 248.312 97.4762 250.804 94.9847L255.5 90.2884" stroke="white" stroke-width="2" stroke-linecap="round" stroke-linejoin="round"/>
<path d="M250.804 76.1963C253.295 78.6867 256.674 80.0858 260.196 80.0858C263.719 80.0858 267.098 78.6867 269.589 76.1963L278.985 66.8037C281.476 64.3122 282.876 60.933 282.876 57.4095C282.876 53.886 281.476 50.5068 278.985 48.0153C276.493 45.5238 273.114 44.1241 269.591 44.1241C266.067 44.1241 262.688 45.5238 260.196 48.0153L255.5 52.7116" stroke="white" stroke-width="2" stroke-linecap="round" stroke-linejoin="round"/>
<path d="M121.8 89.3C117.267 89.3 113.733 88 111.2 85.4C108.667 82.8 107.4 79.0167 107.4 74.05V54H111.1V73.9C111.1 77.9667 112.017 81 113.85 83C115.683 85 118.333 86 121.8 86C125.3 86 127.967 85 129.8 83C131.633 81 132.55 77.9667 132.55 73.9V54H136.15V74.05C136.15 79.0167 134.883 82.8 132.35 85.4C129.85 88 126.333 89.3 121.8 89.3ZM144.6 73.9H157.7V77H144.6V73.9ZM181.982 89.3C178.515 89.3 175.382 88.5333 172.582 87C169.815 85.4667 167.632 83.35 166.032 80.65C164.465 77.9167 163.682 74.8667 163.682 71.5C163.682 68.1333 164.465 65.1 166.032 62.4C167.632 59.6667 169.832 57.5333 172.632 56C175.432 54.4667 178.565 53.7 182.032 53.7C184.632 53.7 187.032 54.1333 189.232 55C191.432 55.8667 193.299 57.1333 194.832 58.8L192.482 61.15C189.749 58.3833 186.299 57 182.132 57C179.365 57 176.849 57.6333 174.582 58.9C172.315 60.1667 170.532 61.9 169.232 64.1C167.965 66.3 167.332 68.7667 167.332 71.5C167.332 74.2333 167.965 76.7 169.232 78.9C170.532 81.1 172.315 82.8333 174.582 84.1C176.849 85.3667 179.365 86 182.132 86C186.332 86 189.782 84.6 192.482 81.8L194.832 84.15C193.299 85.8167 191.415 87.1 189.182 88C186.982 88.8667 184.582 89.3 181.982 89.3ZM211.548 89.25C209.014 89.25 206.731 88.6833 204.698 87.55C202.664 86.3833 201.064 84.7833 199.898 82.75C198.731 80.7167 198.148 78.4167 198.148 75.85C198.148 73.2833 198.731 70.9833 199.898 68.95C201.064 66.9167 202.664 65.3333 204.698 64.2C206.731 63.0667 209.014 62.5 211.548 62.5C214.081 62.5 216.364 63.0667 218.398 64.2C220.431 65.3333 222.014 66.9167 223.148 68.95C224.314 70.9833 224.898 73.2833 224.898 75.85C224.898 78.4167 224.314 80.7167 223.148 82.75C222.014 84.7833 220.431 86.3833 218.398 87.55C216.364 88.6833 214.081 89.25 211.548 89.25ZM211.548 86.1C213.414 86.1 215.081 85.6833 216.548 84.85C218.048 83.9833 219.214 82.7667 220.048 81.2C220.881 79.6333 221.298 77.85 221.298 75.85C221.298 73.85 220.881 72.0667 220.048 70.5C219.214 68.9333 218.048 67.7333 216.548 66.9C215.081 66.0333 213.414 65.6 211.548 65.6C209.681 65.6 207.998 66.0333 206.498 66.9C205.031 67.7333 203.864 68.9333 202.998 70.5C202.164 72.0667 201.748 73.85 201.748 75.85C201.748 77.85 202.164 79.6333 202.998 81.2C203.864 82.7667 205.031 83.9833 206.498 84.85C207.998 85.6833 209.681 86.1 211.548 86.1ZM307.389 76.95H285.389C285.589 79.6833 286.639 81.9 288.539 83.6C290.439 85.2667 292.839 86.1 295.739 86.1C297.372 86.1 298.872 85.8167 300.239 85.25C301.606 84.65 302.789 83.7833 303.789 82.65L305.789 84.95C304.622 86.35 303.156 87.4167 301.389 88.15C299.656 88.8833 297.739 89.25 295.639 89.25C292.939 89.25 290.539 88.6833 288.439 87.55C286.372 86.3833 284.756 84.7833 283.589 82.75C282.422 80.7167 281.839 78.4167 281.839 75.85C281.839 73.2833 282.389 70.9833 283.489 68.95C284.622 66.9167 286.156 65.3333 288.089 64.2C290.056 63.0667 292.256 62.5 294.689 62.5C297.122 62.5 299.306 63.0667 301.239 64.2C303.172 65.3333 304.689 66.9167 305.789 68.95C306.889 70.95 307.439 73.25 307.439 75.85L307.389 76.95ZM294.689 65.55C292.156 65.55 290.022 66.3667 288.289 68C286.589 69.6 285.622 71.7 285.389 74.3H304.039C303.806 71.7 302.822 69.6 301.089 68C299.389 66.3667 297.256 65.55 294.689 65.55ZM325.565 89.25C322.965 89.25 320.632 88.6833 318.565 87.55C316.532 86.4167 314.932 84.8333 313.765 82.8C312.598 80.7333 312.015 78.4167 312.015 75.85C312.015 73.2833 312.598 70.9833 313.765 68.95C314.932 66.9167 316.532 65.3333 318.565 64.2C320.632 63.0667 322.965 62.5 325.565 62.5C327.832 62.5 329.848 62.95 331.615 63.85C333.415 64.7167 334.832 66 335.865 67.7L333.215 69.5C332.348 68.2 331.248 67.2333 329.915 66.6C328.582 65.9333 327.132 65.6 325.565 65.6C323.665 65.6 321.948 66.0333 320.415 66.9C318.915 67.7333 317.732 68.9333 316.865 70.5C316.032 72.0667 315.615 73.85 315.615 75.85C315.615 77.8833 316.032 79.6833 316.865 81.25C317.732 82.7833 318.915 83.9833 320.415 84.85C321.948 85.6833 323.665 86.1 325.565 86.1C327.132 86.1 328.582 85.7833 329.915 85.15C331.248 84.5167 332.348 83.55 333.215 82.25L335.865 84.05C334.832 85.75 333.415 87.05 331.615 87.95C329.815 88.8167 327.798 89.25 325.565 89.25ZM356.982 87.4C356.315 88 355.482 88.4667 354.482 88.8C353.515 89.1 352.498 89.25 351.432 89.25C348.965 89.25 347.065 88.5833 345.732 87.25C344.398 85.9167 343.732 84.0333 343.732 81.6V65.7H339.032V62.7H343.732V56.95H347.282V62.7H355.282V65.7H347.282V81.4C347.282 82.9667 347.665 84.1667 348.432 85C349.232 85.8 350.365 86.2 351.832 86.2C352.565 86.2 353.265 86.0833 353.932 85.85C354.632 85.6167 355.232 85.2833 355.732 84.85L356.982 87.4Z" fill="white"/>
<circle cx="601.5" cy="72.5" r="40.5" fill="#98C1D9"/>
<path d="M591.32 64.65L593.376 51H582.68L578.211 62.7C578.073 63.116 578 63.5476 578 64C578 66.8704 580.99 69.2 584.685 69.2C588.091 69.2 590.906 67.2136 591.32 64.65ZM601.4 69.2C605.092 69.2 608.085 66.8704 608.085 64C608.085 63.8934 608.077 63.7868 608.072 63.6854L606.748 51H596.052L594.726 63.675C594.721 63.7816 594.715 63.8882 594.715 64C594.715 66.8704 597.708 69.2 601.4 69.2ZM614.4 71.9196V82.2H588.4V71.9352C587.261 72.346 586.008 72.58 584.685 72.58C584.178 72.58 583.686 72.5202 583.2 72.4526V88.96C583.2 90.962 584.835 92.6 586.835 92.6H615.96C617.962 92.6 619.6 90.9594 619.6 88.96V72.4552C619.109 72.5307 618.613 72.5732 618.115 72.5826C616.848 72.5813 615.59 72.3569 614.4 71.9196ZM624.592 62.7L620.117 51H609.424L611.478 64.6292C611.878 67.2032 614.694 69.2 618.115 69.2C621.807 69.2 624.8 66.8704 624.8 64C624.8 63.5476 624.727 63.116 624.592 62.7Z" fill="#3D5A80"/>
<path d="M1328.74 100.514C1332.84 95.5775 1335.69 89.7256 1337.06 83.4532C1338.42 77.1809 1338.25 70.6725 1336.57 64.4788C1334.88 58.285 1331.73 52.5881 1327.38 47.8699C1323.03 43.1517 1317.6 39.551 1311.56 37.3724C1305.53 35.1939 1299.05 34.5016 1292.69 35.3541C1286.33 36.2065 1280.27 38.5787 1275.02 42.27C1269.76 45.9612 1265.48 50.8629 1262.52 56.5604C1259.57 62.2578 1258.03 68.5835 1258.03 75.0022C1258.03 84.3332 1261.32 93.3653 1267.32 100.514L1267.26 100.562C1267.46 100.802 1267.69 101.008 1267.9 101.245C1268.15 101.539 1268.43 101.816 1268.7 102.102C1269.5 102.971 1270.32 103.805 1271.18 104.588C1271.45 104.828 1271.72 105.05 1271.98 105.279C1272.9 106.067 1273.84 106.816 1274.81 107.513C1274.94 107.599 1275.05 107.71 1275.18 107.799V107.764C1281.87 112.473 1289.85 115 1298.03 115C1306.21 115 1314.2 112.473 1320.89 107.764V107.799C1321.01 107.71 1321.12 107.599 1321.25 107.513C1322.22 106.813 1323.17 106.067 1324.08 105.279C1324.35 105.05 1324.62 104.825 1324.88 104.588C1325.74 103.802 1326.57 102.971 1327.37 102.102C1327.63 101.816 1327.91 101.539 1328.17 101.245C1328.37 101.008 1328.6 100.802 1328.8 100.559L1328.74 100.514ZM1298.03 52.1475C1300.57 52.1475 1303.06 52.9015 1305.17 54.3141C1307.28 55.7267 1308.93 57.7345 1309.91 60.0836C1310.88 62.4327 1311.13 65.0175 1310.64 67.5113C1310.14 70.0051 1308.92 72.2957 1307.12 74.0937C1305.32 75.8916 1303.03 77.116 1300.54 77.612C1298.04 78.1081 1295.46 77.8535 1293.11 76.8804C1290.76 75.9074 1288.75 74.2597 1287.34 72.1455C1285.93 70.0314 1285.17 67.5459 1285.17 65.0033C1285.17 61.5937 1286.53 58.3238 1288.94 55.9129C1291.35 53.5019 1294.62 52.1475 1298.03 52.1475ZM1275.19 100.514C1275.24 96.7626 1276.77 93.1819 1279.44 90.5461C1282.11 87.9103 1285.71 86.4315 1289.46 86.4296H1306.6C1310.35 86.4315 1313.95 87.9103 1316.62 90.5461C1319.29 93.1819 1320.81 96.7626 1320.86 100.514C1314.6 106.16 1306.46 109.284 1298.03 109.284C1289.59 109.284 1281.46 106.16 1275.19 100.514Z" fill="#98C1D9"/>
<path d="M311.8 209.3C307.267 209.3 303.733 208 301.2 205.4C298.667 202.8 297.4 199.017 297.4 194.05V174H301.1V193.9C301.1 197.967 302.017 201 303.85 203C305.683 205 308.333 206 311.8 206C315.3 206 317.967 205 319.8 203C321.633 201 322.55 197.967 322.55 193.9V174H326.15V194.05C326.15 199.017 324.883 202.8 322.35 205.4C319.85 208 316.333 209.3 311.8 209.3ZM343.6 209.25C341.466 209.25 339.416 208.95 337.45 208.35C335.516 207.717 334 206.933 332.9 206L334.5 203.2C335.6 204.067 336.983 204.783 338.65 205.35C340.316 205.883 342.05 206.15 343.85 206.15C346.25 206.15 348.016 205.783 349.15 205.05C350.316 204.283 350.9 203.217 350.9 201.85C350.9 200.883 350.583 200.133 349.95 199.6C349.316 199.033 348.516 198.617 347.55 198.35C346.583 198.05 345.3 197.767 343.7 197.5C341.566 197.1 339.85 196.7 338.55 196.3C337.25 195.867 336.133 195.15 335.2 194.15C334.3 193.15 333.85 191.767 333.85 190C333.85 187.8 334.766 186 336.6 184.6C338.433 183.2 340.983 182.5 344.25 182.5C345.95 182.5 347.65 182.733 349.35 183.2C351.05 183.633 352.45 184.217 353.55 184.95L352 187.8C349.833 186.3 347.25 185.55 344.25 185.55C341.983 185.55 340.266 185.95 339.1 186.75C337.966 187.55 337.4 188.6 337.4 189.9C337.4 190.9 337.716 191.7 338.35 192.3C339.016 192.9 339.833 193.35 340.8 193.65C341.766 193.917 343.1 194.2 344.8 194.5C346.9 194.9 348.583 195.3 349.85 195.7C351.116 196.1 352.2 196.783 353.1 197.75C354 198.717 354.45 200.05 354.45 201.75C354.45 204.05 353.483 205.883 351.55 207.25C349.65 208.583 347 209.25 343.6 209.25ZM383.913 196.95H361.913C362.113 199.683 363.163 201.9 365.063 203.6C366.963 205.267 369.363 206.1 372.263 206.1C373.896 206.1 375.396 205.817 376.763 205.25C378.129 204.65 379.313 203.783 380.313 202.65L382.313 204.95C381.146 206.35 379.679 207.417 377.913 208.15C376.179 208.883 374.263 209.25 372.163 209.25C369.463 209.25 367.063 208.683 364.963 207.55C362.896 206.383 361.279 204.783 360.113 202.75C358.946 200.717 358.363 198.417 358.363 195.85C358.363 193.283 358.913 190.983 360.013 188.95C361.146 186.917 362.679 185.333 364.613 184.2C366.579 183.067 368.779 182.5 371.213 182.5C373.646 182.5 375.829 183.067 377.763 184.2C379.696 185.333 381.213 186.917 382.313 188.95C383.413 190.95 383.963 193.25 383.963 195.85L383.913 196.95ZM371.213 185.55C368.679 185.55 366.546 186.367 364.813 188C363.113 189.6 362.146 191.7 361.913 194.3H380.563C380.329 191.7 379.346 189.6 377.613 188C375.913 186.367 373.779 185.55 371.213 185.55ZM394.588 187.85C395.422 186.083 396.655 184.75 398.288 183.85C399.955 182.95 402.005 182.5 404.438 182.5V185.95L403.588 185.9C400.822 185.9 398.655 186.75 397.088 188.45C395.522 190.15 394.738 192.533 394.738 195.6V209H391.188V182.7H394.588V187.85ZM413.268 171.65C414.035 171.65 414.668 171.917 415.168 172.45C415.668 172.95 415.918 173.583 415.918 174.35C415.918 174.75 415.851 175.183 415.718 175.65C415.618 176.083 415.468 176.6 415.268 177.2L413.118 184.1H410.718L412.468 176.9C411.901 176.733 411.451 176.433 411.118 176C410.785 175.533 410.618 174.983 410.618 174.35C410.618 173.55 410.868 172.9 411.368 172.4C411.868 171.9 412.501 171.65 413.268 171.65ZM429.732 209.25C427.599 209.25 425.549 208.95 423.582 208.35C421.649 207.717 420.132 206.933 419.032 206L420.632 203.2C421.732 204.067 423.116 204.783 424.782 205.35C426.449 205.883 428.182 206.15 429.982 206.15C432.382 206.15 434.149 205.783 435.282 205.05C436.449 204.283 437.032 203.217 437.032 201.85C437.032 200.883 436.716 200.133 436.082 199.6C435.449 199.033 434.649 198.617 433.682 198.35C432.716 198.05 431.432 197.767 429.832 197.5C427.699 197.1 425.982 196.7 424.682 196.3C423.382 195.867 422.266 195.15 421.332 194.15C420.432 193.15 419.982 191.767 419.982 190C419.982 187.8 420.899 186 422.732 184.6C424.566 183.2 427.116 182.5 430.382 182.5C432.082 182.5 433.782 182.733 435.482 183.2C437.182 183.633 438.582 184.217 439.682 184.95L438.132 187.8C435.966 186.3 433.382 185.55 430.382 185.55C428.116 185.55 426.399 185.95 425.232 186.75C424.099 187.55 423.532 188.6 423.532 189.9C423.532 190.9 423.849 191.7 424.482 192.3C425.149 192.9 425.966 193.35 426.932 193.65C427.899 193.917 429.232 194.2 430.932 194.5C433.032 194.9 434.716 195.3 435.982 195.7C437.249 196.1 438.332 196.783 439.232 197.75C440.132 198.717 440.582 200.05 440.582 201.75C440.582 204.05 439.616 205.883 437.682 207.25C435.782 208.583 433.132 209.25 429.732 209.25ZM460.981 174H475.231C478.931 174 482.198 174.75 485.031 176.25C487.865 177.717 490.065 179.783 491.631 182.45C493.198 185.083 493.981 188.1 493.981 191.5C493.981 194.9 493.198 197.933 491.631 200.6C490.065 203.233 487.865 205.3 485.031 206.8C482.198 208.267 478.931 209 475.231 209H460.981V174ZM475.031 205.8C478.098 205.8 480.781 205.2 483.081 204C485.381 202.767 487.165 201.083 488.431 198.95C489.698 196.783 490.331 194.3 490.331 191.5C490.331 188.7 489.698 186.233 488.431 184.1C487.165 181.933 485.381 180.25 483.081 179.05C480.781 177.817 478.098 177.2 475.031 177.2H464.681V205.8H475.031ZM501.54 182.7H505.09V209H501.54V182.7ZM503.34 176.95C502.607 176.95 501.99 176.7 501.49 176.2C500.99 175.7 500.74 175.1 500.74 174.4C500.74 173.733 500.99 173.15 501.49 172.65C501.99 172.15 502.607 171.9 503.34 171.9C504.073 171.9 504.69 172.15 505.19 172.65C505.69 173.117 505.94 173.683 505.94 174.35C505.94 175.083 505.69 175.7 505.19 176.2C504.69 176.7 504.073 176.95 503.34 176.95ZM522.018 209.25C519.884 209.25 517.834 208.95 515.868 208.35C513.934 207.717 512.418 206.933 511.318 206L512.918 203.2C514.018 204.067 515.401 204.783 517.068 205.35C518.734 205.883 520.468 206.15 522.268 206.15C524.668 206.15 526.434 205.783 527.568 205.05C528.734 204.283 529.318 203.217 529.318 201.85C529.318 200.883 529.001 200.133 528.368 199.6C527.734 199.033 526.934 198.617 525.968 198.35C525.001 198.05 523.718 197.767 522.118 197.5C519.984 197.1 518.268 196.7 516.968 196.3C515.668 195.867 514.551 195.15 513.618 194.15C512.718 193.15 512.268 191.767 512.268 190C512.268 187.8 513.184 186 515.018 184.6C516.851 183.2 519.401 182.5 522.668 182.5C524.368 182.5 526.068 182.733 527.768 183.2C529.468 183.633 530.868 184.217 531.968 184.95L530.418 187.8C528.251 186.3 525.668 185.55 522.668 185.55C520.401 185.55 518.684 185.95 517.518 186.75C516.384 187.55 515.818 188.6 515.818 189.9C515.818 190.9 516.134 191.7 516.768 192.3C517.434 192.9 518.251 193.35 519.218 193.65C520.184 193.917 521.518 194.2 523.218 194.5C525.318 194.9 527.001 195.3 528.268 195.7C529.534 196.1 530.618 196.783 531.518 197.75C532.418 198.717 532.868 200.05 532.868 201.75C532.868 204.05 531.901 205.883 529.968 207.25C528.068 208.583 525.418 209.25 522.018 209.25ZM552.98 182.5C555.447 182.5 557.68 183.067 559.68 184.2C561.68 185.3 563.247 186.867 564.38 188.9C565.514 190.933 566.08 193.25 566.08 195.85C566.08 198.483 565.514 200.817 564.38 202.85C563.247 204.883 561.68 206.467 559.68 207.6C557.714 208.7 555.48 209.25 552.98 209.25C550.847 209.25 548.914 208.817 547.18 207.95C545.48 207.05 544.08 205.75 542.98 204.05V218.7H539.43V182.7H542.83V187.9C543.897 186.167 545.297 184.833 547.03 183.9C548.797 182.967 550.78 182.5 552.98 182.5ZM552.73 206.1C554.564 206.1 556.23 205.683 557.73 204.85C559.23 203.983 560.397 202.767 561.23 201.2C562.097 199.633 562.53 197.85 562.53 195.85C562.53 193.85 562.097 192.083 561.23 190.55C560.397 188.983 559.23 187.767 557.73 186.9C556.23 186.033 554.564 185.6 552.73 185.6C550.864 185.6 549.18 186.033 547.68 186.9C546.214 187.767 545.047 188.983 544.18 190.55C543.347 192.083 542.93 193.85 542.93 195.85C542.93 197.85 543.347 199.633 544.18 201.2C545.047 202.767 546.214 203.983 547.68 204.85C549.18 205.683 550.864 206.1 552.73 206.1ZM573.317 171.9H576.867V209H573.317V171.9ZM595.945 182.5C599.378 182.5 602.012 183.367 603.845 185.1C605.678 186.8 606.595 189.333 606.595 192.7V209H603.195V204.9C602.395 206.267 601.212 207.333 599.645 208.1C598.112 208.867 596.278 209.25 594.145 209.25C591.212 209.25 588.878 208.55 587.145 207.15C585.412 205.75 584.545 203.9 584.545 201.6C584.545 199.367 585.345 197.567 586.945 196.2C588.578 194.833 591.162 194.15 594.695 194.15H603.045V192.55C603.045 190.283 602.412 188.567 601.145 187.4C599.878 186.2 598.028 185.6 595.595 185.6C593.928 185.6 592.328 185.883 590.795 186.45C589.262 186.983 587.945 187.733 586.845 188.7L585.245 186.05C586.578 184.917 588.178 184.05 590.045 183.45C591.912 182.817 593.878 182.5 595.945 182.5ZM594.695 206.45C596.695 206.45 598.412 206 599.845 205.1C601.278 204.167 602.345 202.833 603.045 201.1V196.8H594.795C590.295 196.8 588.045 198.367 588.045 201.5C588.045 203.033 588.628 204.25 589.795 205.15C590.962 206.017 592.595 206.45 594.695 206.45ZM637.849 182.7L624.699 212.15C623.632 214.617 622.399 216.367 620.999 217.4C619.599 218.433 617.915 218.95 615.949 218.95C614.682 218.95 613.499 218.75 612.399 218.35C611.299 217.95 610.349 217.35 609.549 216.55L611.199 213.9C612.532 215.233 614.132 215.9 615.999 215.9C617.199 215.9 618.215 215.567 619.049 214.9C619.915 214.233 620.715 213.1 621.449 211.5L622.599 208.95L610.849 182.7H614.549L624.449 205.05L634.349 182.7H637.849ZM685.934 174V209H682.884L660.384 180.6V209H656.684V174H659.734L682.284 202.4V174H685.934ZM705.808 182.5C709.242 182.5 711.875 183.367 713.708 185.1C715.542 186.8 716.458 189.333 716.458 192.7V209H713.058V204.9C712.258 206.267 711.075 207.333 709.508 208.1C707.975 208.867 706.142 209.25 704.008 209.25C701.075 209.25 698.742 208.55 697.008 207.15C695.275 205.75 694.408 203.9 694.408 201.6C694.408 199.367 695.208 197.567 696.808 196.2C698.442 194.833 701.025 194.15 704.558 194.15H712.908V192.55C712.908 190.283 712.275 188.567 711.008 187.4C709.742 186.2 707.892 185.6 705.458 185.6C703.792 185.6 702.192 185.883 700.658 186.45C699.125 186.983 697.808 187.733 696.708 188.7L695.108 186.05C696.442 184.917 698.042 184.05 699.908 183.45C701.775 182.817 703.742 182.5 705.808 182.5ZM704.558 206.45C706.558 206.45 708.275 206 709.708 205.1C711.142 204.167 712.208 202.833 712.908 201.1V196.8H704.658C700.158 196.8 697.908 198.367 697.908 201.5C697.908 203.033 698.492 204.25 699.658 205.15C700.825 206.017 702.458 206.45 704.558 206.45ZM758.9 182.5C762.2 182.5 764.784 183.45 766.65 185.35C768.55 187.25 769.5 190.05 769.5 193.75V209H765.95V194.1C765.95 191.367 765.284 189.283 763.95 187.85C762.65 186.417 760.8 185.7 758.4 185.7C755.667 185.7 753.517 186.55 751.95 188.25C750.384 189.917 749.6 192.233 749.6 195.2V209H746.05V194.1C746.05 191.367 745.384 189.283 744.05 187.85C742.75 186.417 740.884 185.7 738.45 185.7C735.75 185.7 733.6 186.55 732 188.25C730.434 189.917 729.65 192.233 729.65 195.2V209H726.1V182.7H729.5V187.5C730.434 185.9 731.734 184.667 733.4 183.8C735.067 182.933 736.984 182.5 739.15 182.5C741.35 182.5 743.25 182.967 744.85 183.9C746.484 184.833 747.7 186.217 748.5 188.05C749.467 186.317 750.85 184.967 752.65 184C754.484 183 756.567 182.5 758.9 182.5ZM802.125 196.95H780.125C780.325 199.683 781.375 201.9 783.275 203.6C785.175 205.267 787.575 206.1 790.475 206.1C792.109 206.1 793.609 205.817 794.975 205.25C796.342 204.65 797.525 203.783 798.525 202.65L800.525 204.95C799.359 206.35 797.892 207.417 796.125 208.15C794.392 208.883 792.475 209.25 790.375 209.25C787.675 209.25 785.275 208.683 783.175 207.55C781.109 206.383 779.492 204.783 778.325 202.75C777.159 200.717 776.575 198.417 776.575 195.85C776.575 193.283 777.125 190.983 778.225 188.95C779.359 186.917 780.892 185.333 782.825 184.2C784.792 183.067 786.992 182.5 789.425 182.5C791.859 182.5 794.042 183.067 795.975 184.2C797.909 185.333 799.425 186.917 800.525 188.95C801.625 190.95 802.175 193.25 802.175 195.85L802.125 196.95ZM789.425 185.55C786.892 185.55 784.759 186.367 783.025 188C781.325 189.6 780.359 191.7 780.125 194.3H798.775C798.542 191.7 797.559 189.6 795.825 188C794.125 186.367 791.992 185.55 789.425 185.55Z" fill="white"/>
<line x1="102" y1="366.5" x2="1338" y2="366.5" stroke="#293241"/>
<path d="M118.59 340.39H106.89L104.37 346H102.06L111.66 325H113.85L123.45 346H121.11L118.59 340.39ZM117.78 338.59L112.74 327.31L107.7 338.59H117.78ZM134.604 330.1C136.084 330.1 137.424 330.44 138.624 331.12C139.824 331.78 140.764 332.72 141.444 333.94C142.124 335.16 142.464 336.55 142.464 338.11C142.464 339.67 142.124 341.06 141.444 342.28C140.764 343.5 139.824 344.45 138.624 345.13C137.424 345.81 136.084 346.15 134.604 346.15C133.284 346.15 132.094 345.87 131.034 345.31C129.994 344.75 129.154 343.94 128.514 342.88V346H126.474V323.74H128.604V333.22C129.264 332.2 130.104 331.43 131.124 330.91C132.164 330.37 133.324 330.1 134.604 330.1ZM134.454 344.26C135.554 344.26 136.554 344.01 137.454 343.51C138.354 342.99 139.054 342.26 139.554 341.32C140.074 340.38 140.334 339.31 140.334 338.11C140.334 336.91 140.074 335.84 139.554 334.9C139.054 333.96 138.354 333.24 137.454 332.74C136.554 332.22 135.554 331.96 134.454 331.96C133.334 331.96 132.324 332.22 131.424 332.74C130.544 333.24 129.844 333.96 129.324 334.9C128.824 335.84 128.574 336.91 128.574 338.11C128.574 339.31 128.824 340.38 129.324 341.32C129.844 342.26 130.544 342.99 131.424 343.51C132.324 344.01 133.334 344.26 134.454 344.26ZM153.256 346.15C151.736 346.15 150.366 345.81 149.146 345.13C147.926 344.43 146.966 343.47 146.266 342.25C145.566 341.03 145.216 339.65 145.216 338.11C145.216 336.57 145.566 335.19 146.266 333.97C146.966 332.75 147.926 331.8 149.146 331.12C150.366 330.44 151.736 330.1 153.256 330.1C154.776 330.1 156.146 330.44 157.366 331.12C158.586 331.8 159.536 332.75 160.216 333.97C160.916 335.19 161.266 336.57 161.266 338.11C161.266 339.65 160.916 341.03 160.216 342.25C159.536 343.47 158.586 344.43 157.366 345.13C156.146 345.81 154.776 346.15 153.256 346.15ZM153.256 344.26C154.376 344.26 155.376 344.01 156.256 343.51C157.156 342.99 157.856 342.26 158.356 341.32C158.856 340.38 159.106 339.31 159.106 338.11C159.106 336.91 158.856 335.84 158.356 334.9C157.856 333.96 157.156 333.24 156.256 332.74C155.376 332.22 154.376 331.96 153.256 331.96C152.136 331.96 151.126 332.22 150.226 332.74C149.346 333.24 148.646 333.96 148.126 334.9C147.626 335.84 147.376 336.91 147.376 338.11C147.376 339.31 147.626 340.38 148.126 341.32C148.646 342.26 149.346 342.99 150.226 343.51C151.126 344.01 152.136 344.26 153.256 344.26ZM179.835 330.22V346H177.795V343.12C177.235 344.08 176.465 344.83 175.485 345.37C174.505 345.89 173.385 346.15 172.125 346.15C170.065 346.15 168.435 345.58 167.235 344.44C166.055 343.28 165.465 341.59 165.465 339.37V330.22H167.595V339.16C167.595 340.82 168.005 342.08 168.825 342.94C169.645 343.8 170.815 344.23 172.335 344.23C173.995 344.23 175.305 343.73 176.265 342.73C177.225 341.71 177.705 340.3 177.705 338.5V330.22H179.835ZM194.11 345.04C193.71 345.4 193.21 345.68 192.61 345.88C192.03 346.06 191.42 346.15 190.78 346.15C189.3 346.15 188.16 345.75 187.36 344.95C186.56 344.15 186.16 343.02 186.16 341.56V332.02H183.34V330.22H186.16V326.77H188.29V330.22H193.09V332.02H188.29V341.44C188.29 342.38 188.52 343.1 188.98 343.6C189.46 344.08 190.14 344.32 191.02 344.32C191.46 344.32 191.88 344.25 192.28 344.11C192.7 343.97 193.06 343.77 193.36 343.51L194.11 345.04Z" fill="#98C1D9"/>
<path d="M287.59 340.39H275.89L273.37 346H271.06L280.66 325H282.85L292.45 346H290.11L287.59 340.39ZM286.78 338.59L281.74 327.31L276.7 338.59H286.78ZM301.867 346.15C300.307 346.15 298.907 345.81 297.667 345.13C296.447 344.45 295.487 343.5 294.787 342.28C294.087 341.04 293.737 339.65 293.737 338.11C293.737 336.57 294.087 335.19 294.787 333.97C295.487 332.75 296.447 331.8 297.667 331.12C298.907 330.44 300.307 330.1 301.867 330.1C303.227 330.1 304.437 330.37 305.497 330.91C306.577 331.43 307.427 332.2 308.047 333.22L306.457 334.3C305.937 333.52 305.277 332.94 304.477 332.56C303.677 332.16 302.807 331.96 301.867 331.96C300.727 331.96 299.697 332.22 298.777 332.74C297.877 333.24 297.167 333.96 296.647 334.9C296.147 335.84 295.897 336.91 295.897 338.11C295.897 339.33 296.147 340.41 296.647 341.35C297.167 342.27 297.877 342.99 298.777 343.51C299.697 344.01 300.727 344.26 301.867 344.26C302.807 344.26 303.677 344.07 304.477 343.69C305.277 343.31 305.937 342.73 306.457 341.95L308.047 343.03C307.427 344.05 306.577 344.83 305.497 345.37C304.417 345.89 303.207 346.15 301.867 346.15ZM320.718 345.04C320.318 345.4 319.818 345.68 319.218 345.88C318.638 346.06 318.028 346.15 317.388 346.15C315.908 346.15 314.768 345.75 313.968 344.95C313.168 344.15 312.768 343.02 312.768 341.56V332.02H309.948V330.22H312.768V326.77H314.898V330.22H319.698V332.02H314.898V341.44C314.898 342.38 315.128 343.1 315.588 343.6C316.068 344.08 316.748 344.32 317.628 344.32C318.068 344.32 318.488 344.25 318.888 344.11C319.308 343.97 319.668 343.77 319.968 343.51L320.718 345.04ZM324.595 330.22H326.725V346H324.595V330.22ZM325.675 326.77C325.235 326.77 324.865 326.62 324.565 326.32C324.265 326.02 324.115 325.66 324.115 325.24C324.115 324.84 324.265 324.49 324.565 324.19C324.865 323.89 325.235 323.74 325.675 323.74C326.115 323.74 326.485 323.89 326.785 324.19C327.085 324.47 327.235 324.81 327.235 325.21C327.235 325.65 327.085 326.02 326.785 326.32C326.485 326.62 326.115 326.77 325.675 326.77ZM345.912 330.22L338.892 346H336.702L329.712 330.22H331.932L337.842 343.66L343.812 330.22H345.912ZM362.212 338.77H349.012C349.132 340.41 349.762 341.74 350.902 342.76C352.042 343.76 353.482 344.26 355.222 344.26C356.202 344.26 357.102 344.09 357.922 343.75C358.742 343.39 359.452 342.87 360.052 342.19L361.252 343.57C360.552 344.41 359.672 345.05 358.612 345.49C357.572 345.93 356.422 346.15 355.162 346.15C353.542 346.15 352.102 345.81 350.842 345.13C349.602 344.43 348.632 343.47 347.932 342.25C347.232 341.03 346.882 339.65 346.882 338.11C346.882 336.57 347.212 335.19 347.872 333.97C348.552 332.75 349.472 331.8 350.632 331.12C351.812 330.44 353.132 330.1 354.592 330.1C356.052 330.1 357.362 330.44 358.522 331.12C359.682 331.8 360.592 332.75 361.252 333.97C361.912 335.17 362.242 336.55 362.242 338.11L362.212 338.77ZM354.592 331.93C353.072 331.93 351.792 332.42 350.752 333.4C349.732 334.36 349.152 335.62 349.012 337.18H360.202C360.062 335.62 359.472 334.36 358.432 333.4C357.412 332.42 356.132 331.93 354.592 331.93ZM374.879 325H377.099V344.08H388.859V346H374.879V325ZM392.095 330.22H394.225V346H392.095V330.22ZM393.175 326.77C392.735 326.77 392.365 326.62 392.065 326.32C391.765 326.02 391.615 325.66 391.615 325.24C391.615 324.84 391.765 324.49 392.065 324.19C392.365 323.89 392.735 323.74 393.175 323.74C393.615 323.74 393.985 323.89 394.285 324.19C394.585 324.47 394.735 324.81 394.735 325.21C394.735 325.65 394.585 326.02 394.285 326.32C393.985 326.62 393.615 326.77 393.175 326.77ZM404.382 346.15C403.102 346.15 401.872 345.97 400.692 345.61C399.532 345.23 398.622 344.76 397.962 344.2L398.922 342.52C399.582 343.04 400.412 343.47 401.412 343.81C402.412 344.13 403.452 344.29 404.532 344.29C405.972 344.29 407.032 344.07 407.712 343.63C408.412 343.17 408.762 342.53 408.762 341.71C408.762 341.13 408.572 340.68 408.192 340.36C407.812 340.02 407.332 339.77 406.752 339.61C406.172 339.43 405.402 339.26 404.442 339.1C403.162 338.86 402.132 338.62 401.352 338.38C400.572 338.12 399.902 337.69 399.342 337.09C398.802 336.49 398.532 335.66 398.532 334.6C398.532 333.28 399.082 332.2 400.182 331.36C401.282 330.52 402.812 330.1 404.772 330.1C405.792 330.1 406.812 330.24 407.832 330.52C408.852 330.78 409.692 331.13 410.352 331.57L409.422 333.28C408.122 332.38 406.572 331.93 404.772 331.93C403.412 331.93 402.382 332.17 401.682 332.65C401.002 333.13 400.662 333.76 400.662 334.54C400.662 335.14 400.852 335.62 401.232 335.98C401.632 336.34 402.122 336.61 402.702 336.79C403.282 336.95 404.082 337.12 405.102 337.3C406.362 337.54 407.372 337.78 408.132 338.02C408.892 338.26 409.542 338.67 410.082 339.25C410.622 339.83 410.892 340.63 410.892 341.65C410.892 343.03 410.312 344.13 409.152 344.95C408.012 345.75 406.422 346.15 404.382 346.15ZM423.139 345.04C422.739 345.4 422.239 345.68 421.639 345.88C421.059 346.06 420.449 346.15 419.809 346.15C418.329 346.15 417.189 345.75 416.389 344.95C415.589 344.15 415.189 343.02 415.189 341.56V332.02H412.369V330.22H415.189V326.77H417.319V330.22H422.119V332.02H417.319V341.44C417.319 342.38 417.549 343.1 418.009 343.6C418.489 344.08 419.169 344.32 420.049 344.32C420.489 344.32 420.909 344.25 421.309 344.11C421.729 343.97 422.089 343.77 422.389 343.51L423.139 345.04ZM427.017 330.22H429.147V346H427.017V330.22ZM428.097 326.77C427.657 326.77 427.287 326.62 426.987 326.32C426.687 326.02 426.537 325.66 426.537 325.24C426.537 324.84 426.687 324.49 426.987 324.19C427.287 323.89 427.657 323.74 428.097 323.74C428.537 323.74 428.907 323.89 429.207 324.19C429.507 324.47 429.657 324.81 429.657 325.21C429.657 325.65 429.507 326.02 429.207 326.32C428.907 326.62 428.537 326.77 428.097 326.77ZM443.114 330.1C445.094 330.1 446.664 330.68 447.824 331.84C449.004 332.98 449.594 334.65 449.594 336.85V346H447.464V337.06C447.464 335.42 447.054 334.17 446.234 333.31C445.414 332.45 444.244 332.02 442.724 332.02C441.024 332.02 439.674 332.53 438.674 333.55C437.694 334.55 437.204 335.94 437.204 337.72V346H435.074V330.22H437.114V333.13C437.694 332.17 438.494 331.43 439.514 330.91C440.554 330.37 441.754 330.1 443.114 330.1ZM470.045 330.22V344.08C470.045 346.76 469.385 348.74 468.065 350.02C466.765 351.32 464.795 351.97 462.155 351.97C460.695 351.97 459.305 351.75 457.985 351.31C456.685 350.89 455.625 350.3 454.805 349.54L455.885 347.92C456.645 348.6 457.565 349.13 458.645 349.51C459.745 349.89 460.895 350.08 462.095 350.08C464.095 350.08 465.565 349.61 466.505 348.67C467.445 347.75 467.915 346.31 467.915 344.35V342.34C467.255 343.34 466.385 344.1 465.305 344.62C464.245 345.14 463.065 345.4 461.765 345.4C460.285 345.4 458.935 345.08 457.715 344.44C456.515 343.78 455.565 342.87 454.865 341.71C454.185 340.53 453.845 339.2 453.845 337.72C453.845 336.24 454.185 334.92 454.865 333.76C455.565 332.6 456.515 331.7 457.715 331.06C458.915 330.42 460.265 330.1 461.765 330.1C463.105 330.1 464.315 330.37 465.395 330.91C466.475 331.45 467.345 332.23 468.005 333.25V330.22H470.045ZM461.975 343.51C463.115 343.51 464.145 343.27 465.065 342.79C465.985 342.29 466.695 341.6 467.195 340.72C467.715 339.84 467.975 338.84 467.975 337.72C467.975 336.6 467.715 335.61 467.195 334.75C466.695 333.87 465.985 333.19 465.065 332.71C464.165 332.21 463.135 331.96 461.975 331.96C460.835 331.96 459.805 332.2 458.885 332.68C457.985 333.16 457.275 333.84 456.755 334.72C456.255 335.6 456.005 336.6 456.005 337.72C456.005 338.84 456.255 339.84 456.755 340.72C457.275 341.6 457.985 342.29 458.885 342.79C459.805 343.27 460.835 343.51 461.975 343.51ZM480.231 346.15C478.951 346.15 477.721 345.97 476.541 345.61C475.381 345.23 474.471 344.76 473.811 344.2L474.771 342.52C475.431 343.04 476.261 343.47 477.261 343.81C478.261 344.13 479.301 344.29 480.381 344.29C481.821 344.29 482.881 344.07 483.561 343.63C484.261 343.17 484.611 342.53 484.611 341.71C484.611 341.13 484.421 340.68 484.041 340.36C483.661 340.02 483.181 339.77 482.601 339.61C482.021 339.43 481.251 339.26 480.291 339.1C479.011 338.86 477.981 338.62 477.201 338.38C476.421 338.12 475.751 337.69 475.191 337.09C474.651 336.49 474.381 335.66 474.381 334.6C474.381 333.28 474.931 332.2 476.031 331.36C477.131 330.52 478.661 330.1 480.621 330.1C481.641 330.1 482.661 330.24 483.681 330.52C484.701 330.78 485.541 331.13 486.201 331.57L485.271 333.28C483.971 332.38 482.421 331.93 480.621 331.93C479.261 331.93 478.231 332.17 477.531 332.65C476.851 333.13 476.511 333.76 476.511 334.54C476.511 335.14 476.701 335.62 477.081 335.98C477.481 336.34 477.971 336.61 478.551 336.79C479.131 336.95 479.931 337.12 480.951 337.3C482.211 337.54 483.221 337.78 483.981 338.02C484.741 338.26 485.391 338.67 485.931 339.25C486.471 339.83 486.741 340.63 486.741 341.65C486.741 343.03 486.161 344.13 485.001 344.95C483.861 345.75 482.271 346.15 480.231 346.15Z" fill="#293241"/>
<path d="M575.42 325H577.64V346H575.42V325ZM592.063 330.1C594.043 330.1 595.613 330.68 596.773 331.84C597.953 332.98 598.543 334.65 598.543 336.85V346H596.413V337.06C596.413 335.42 596.003 334.17 595.183 333.31C594.363 332.45 593.193 332.02 591.673 332.02C589.973 332.02 588.623 332.53 587.623 333.55C586.643 334.55 586.153 335.94 586.153 337.72V346H584.023V330.22H586.063V333.13C586.643 332.17 587.443 331.43 588.463 330.91C589.503 330.37 590.703 330.1 592.063 330.1ZM609.845 330.1C611.905 330.1 613.485 330.62 614.585 331.66C615.685 332.68 616.235 334.2 616.235 336.22V346H614.195V343.54C613.715 344.36 613.005 345 612.065 345.46C611.145 345.92 610.045 346.15 608.765 346.15C607.005 346.15 605.605 345.73 604.565 344.89C603.525 344.05 603.005 342.94 603.005 341.56C603.005 340.22 603.485 339.14 604.445 338.32C605.425 337.5 606.975 337.09 609.095 337.09H614.105V336.13C614.105 334.77 613.725 333.74 612.965 333.04C612.205 332.32 611.095 331.96 609.635 331.96C608.635 331.96 607.675 332.13 606.755 332.47C605.835 332.79 605.045 333.24 604.385 333.82L603.425 332.23C604.225 331.55 605.185 331.03 606.305 330.67C607.425 330.29 608.605 330.1 609.845 330.1ZM609.095 344.47C610.295 344.47 611.325 344.2 612.185 343.66C613.045 343.1 613.685 342.3 614.105 341.26V338.68H609.155C606.455 338.68 605.105 339.62 605.105 341.5C605.105 342.42 605.455 343.15 606.155 343.69C606.855 344.21 607.835 344.47 609.095 344.47ZM628.619 346.15C627.059 346.15 625.659 345.81 624.419 345.13C623.199 344.45 622.239 343.5 621.539 342.28C620.839 341.04 620.489 339.65 620.489 338.11C620.489 336.57 620.839 335.19 621.539 333.97C622.239 332.75 623.199 331.8 624.419 331.12C625.659 330.44 627.059 330.1 628.619 330.1C629.979 330.1 631.189 330.37 632.249 330.91C633.329 331.43 634.179 332.2 634.799 333.22L633.209 334.3C632.689 333.52 632.029 332.94 631.229 332.56C630.429 332.16 629.559 331.96 628.619 331.96C627.479 331.96 626.449 332.22 625.529 332.74C624.629 333.24 623.919 333.96 623.399 334.9C622.899 335.84 622.649 336.91 622.649 338.11C622.649 339.33 622.899 340.41 623.399 341.35C623.919 342.27 624.629 342.99 625.529 343.51C626.449 344.01 627.479 344.26 628.619 344.26C629.559 344.26 630.429 344.07 631.229 343.69C632.029 343.31 632.689 342.73 633.209 341.95L634.799 343.03C634.179 344.05 633.329 344.83 632.249 345.37C631.169 345.89 629.959 346.15 628.619 346.15ZM647.469 345.04C647.069 345.4 646.569 345.68 645.969 345.88C645.389 346.06 644.779 346.15 644.139 346.15C642.659 346.15 641.519 345.75 640.719 344.95C639.919 344.15 639.519 343.02 639.519 341.56V332.02H636.699V330.22H639.519V326.77H641.649V330.22H646.449V332.02H641.649V341.44C641.649 342.38 641.879 343.1 642.339 343.6C642.819 344.08 643.499 344.32 644.379 344.32C644.819 344.32 645.239 344.25 645.639 344.11C646.059 343.97 646.419 343.77 646.719 343.51L647.469 345.04ZM651.347 330.22H653.477V346H651.347V330.22ZM652.427 326.77C651.987 326.77 651.617 326.62 651.317 326.32C651.017 326.02 650.867 325.66 650.867 325.24C650.867 324.84 651.017 324.49 651.317 324.19C651.617 323.89 651.987 323.74 652.427 323.74C652.867 323.74 653.237 323.89 653.537 324.19C653.837 324.47 653.987 324.81 653.987 325.21C653.987 325.65 653.837 326.02 653.537 326.32C653.237 326.62 652.867 326.77 652.427 326.77ZM672.664 330.22L665.644 346H663.454L656.464 330.22H658.684L664.594 343.66L670.564 330.22H672.664ZM688.964 338.77H675.764C675.884 340.41 676.514 341.74 677.654 342.76C678.794 343.76 680.234 344.26 681.974 344.26C682.954 344.26 683.854 344.09 684.674 343.75C685.494 343.39 686.204 342.87 686.804 342.19L688.004 343.57C687.304 344.41 686.424 345.05 685.364 345.49C684.324 345.93 683.174 346.15 681.914 346.15C680.294 346.15 678.854 345.81 677.594 345.13C676.354 344.43 675.384 343.47 674.684 342.25C673.984 341.03 673.634 339.65 673.634 338.11C673.634 336.57 673.964 335.19 674.624 333.97C675.304 332.75 676.224 331.8 677.384 331.12C678.564 330.44 679.884 330.1 681.344 330.1C682.804 330.1 684.114 330.44 685.274 331.12C686.434 331.8 687.344 332.75 688.004 333.97C688.664 335.17 688.994 336.55 688.994 338.11L688.964 338.77ZM681.344 331.93C679.824 331.93 678.544 332.42 677.504 333.4C676.484 334.36 675.904 335.62 675.764 337.18H686.954C686.814 335.62 686.224 334.36 685.184 333.4C684.164 332.42 682.884 331.93 681.344 331.93ZM701.631 325H703.851V344.08H715.611V346H701.631V325ZM718.847 330.22H720.977V346H718.847V330.22ZM719.927 326.77C719.487 326.77 719.117 326.62 718.817 326.32C718.517 326.02 718.367 325.66 718.367 325.24C718.367 324.84 718.517 324.49 718.817 324.19C719.117 323.89 719.487 323.74 719.927 323.74C720.367 323.74 720.737 323.89 721.037 324.19C721.337 324.47 721.487 324.81 721.487 325.21C721.487 325.65 721.337 326.02 721.037 326.32C720.737 326.62 720.367 326.77 719.927 326.77ZM731.134 346.15C729.854 346.15 728.624 345.97 727.444 345.61C726.284 345.23 725.374 344.76 724.714 344.2L725.674 342.52C726.334 343.04 727.164 343.47 728.164 343.81C729.164 344.13 730.204 344.29 731.284 344.29C732.724 344.29 733.784 344.07 734.464 343.63C735.164 343.17 735.514 342.53 735.514 341.71C735.514 341.13 735.324 340.68 734.944 340.36C734.564 340.02 734.084 339.77 733.504 339.61C732.924 339.43 732.154 339.26 731.194 339.1C729.914 338.86 728.884 338.62 728.104 338.38C727.324 338.12 726.654 337.69 726.094 337.09C725.554 336.49 725.284 335.66 725.284 334.6C725.284 333.28 725.834 332.2 726.934 331.36C728.034 330.52 729.564 330.1 731.524 330.1C732.544 330.1 733.564 330.24 734.584 330.52C735.604 330.78 736.444 331.13 737.104 331.57L736.174 333.28C734.874 332.38 733.324 331.93 731.524 331.93C730.164 331.93 729.134 332.17 728.434 332.65C727.754 333.13 727.414 333.76 727.414 334.54C727.414 335.14 727.604 335.62 727.984 335.98C728.384 336.34 728.874 336.61 729.454 336.79C730.034 336.95 730.834 337.12 731.854 337.3C733.114 337.54 734.124 337.78 734.884 338.02C735.644 338.26 736.294 338.67 736.834 339.25C737.374 339.83 737.644 340.63 737.644 341.65C737.644 343.03 737.064 344.13 735.904 344.95C734.764 345.75 733.174 346.15 731.134 346.15ZM749.891 345.04C749.491 345.4 748.991 345.68 748.391 345.88C747.811 346.06 747.201 346.15 746.561 346.15C745.081 346.15 743.941 345.75 743.141 344.95C742.341 344.15 741.941 343.02 741.941 341.56V332.02H739.121V330.22H741.941V326.77H744.071V330.22H748.871V332.02H744.071V341.44C744.071 342.38 744.301 343.1 744.761 343.6C745.241 344.08 745.921 344.32 746.801 344.32C747.241 344.32 747.661 344.25 748.061 344.11C748.481 343.97 748.841 343.77 749.141 343.51L749.891 345.04ZM753.769 330.22H755.899V346H753.769V330.22ZM754.849 326.77C754.409 326.77 754.039 326.62 753.739 326.32C753.439 326.02 753.289 325.66 753.289 325.24C753.289 324.84 753.439 324.49 753.739 324.19C754.039 323.89 754.409 323.74 754.849 323.74C755.289 323.74 755.659 323.89 755.959 324.19C756.259 324.47 756.409 324.81 756.409 325.21C756.409 325.65 756.259 326.02 755.959 326.32C755.659 326.62 755.289 326.77 754.849 326.77ZM769.865 330.1C771.845 330.1 773.415 330.68 774.575 331.84C775.755 332.98 776.345 334.65 776.345 336.85V346H774.215V337.06C774.215 335.42 773.805 334.17 772.985 333.31C772.165 332.45 770.995 332.02 769.475 332.02C767.775 332.02 766.425 332.53 765.425 333.55C764.445 334.55 763.955 335.94 763.955 337.72V346H761.825V330.22H763.865V333.13C764.445 332.17 765.245 331.43 766.265 330.91C767.305 330.37 768.505 330.1 769.865 330.1ZM796.797 330.22V344.08C796.797 346.76 796.137 348.74 794.817 350.02C793.517 351.32 791.547 351.97 788.907 351.97C787.447 351.97 786.057 351.75 784.737 351.31C783.437 350.89 782.377 350.3 781.557 349.54L782.637 347.92C783.397 348.6 784.317 349.13 785.397 349.51C786.497 349.89 787.647 350.08 788.847 350.08C790.847 350.08 792.317 349.61 793.257 348.67C794.197 347.75 794.667 346.31 794.667 344.35V342.34C794.007 343.34 793.137 344.1 792.057 344.62C790.997 345.14 789.817 345.4 788.517 345.4C787.037 345.4 785.687 345.08 784.467 344.44C783.267 343.78 782.317 342.87 781.617 341.71C780.937 340.53 780.597 339.2 780.597 337.72C780.597 336.24 780.937 334.92 781.617 333.76C782.317 332.6 783.267 331.7 784.467 331.06C785.667 330.42 787.017 330.1 788.517 330.1C789.857 330.1 791.067 330.37 792.147 330.91C793.227 331.45 794.097 332.23 794.757 333.25V330.22H796.797ZM788.727 343.51C789.867 343.51 790.897 343.27 791.817 342.79C792.737 342.29 793.447 341.6 793.947 340.72C794.467 339.84 794.727 338.84 794.727 337.72C794.727 336.6 794.467 335.61 793.947 334.75C793.447 333.87 792.737 333.19 791.817 332.71C790.917 332.21 789.887 331.96 788.727 331.96C787.587 331.96 786.557 332.2 785.637 332.68C784.737 333.16 784.027 333.84 783.507 334.72C783.007 335.6 782.757 336.6 782.757 337.72C782.757 338.84 783.007 339.84 783.507 340.72C784.027 341.6 784.737 342.29 785.637 342.79C786.557 343.27 787.587 343.51 788.727 343.51ZM806.983 346.15C805.703 346.15 804.473 345.97 803.293 345.61C802.133 345.23 801.223 344.76 800.563 344.2L801.523 342.52C802.183 343.04 803.013 343.47 804.013 343.81C805.013 344.13 806.053 344.29 807.133 344.29C808.573 344.29 809.633 344.07 810.313 343.63C811.013 343.17 811.363 342.53 811.363 341.71C811.363 341.13 811.173 340.68 810.793 340.36C810.413 340.02 809.933 339.77 809.353 339.61C808.773 339.43 808.003 339.26 807.043 339.1C805.763 338.86 804.733 338.62 803.953 338.38C803.173 338.12 802.503 337.69 801.943 337.09C801.403 336.49 801.133 335.66 801.133 334.6C801.133 333.28 801.683 332.2 802.783 331.36C803.883 330.52 805.413 330.1 807.373 330.1C808.393 330.1 809.413 330.24 810.433 330.52C811.453 330.78 812.293 331.13 812.953 331.57L812.023 333.28C810.723 332.38 809.173 331.93 807.373 331.93C806.013 331.93 804.983 332.17 804.283 332.65C803.603 333.13 803.263 333.76 803.263 334.54C803.263 335.14 803.453 335.62 803.833 335.98C804.233 336.34 804.723 336.61 805.303 336.79C805.883 336.95 806.683 337.12 807.703 337.3C808.963 337.54 809.973 337.78 810.733 338.02C811.493 338.26 812.143 338.67 812.683 339.25C813.223 339.83 813.493 340.63 813.493 341.65C813.493 343.03 812.913 344.13 811.753 344.95C810.613 345.75 809.023 346.15 806.983 346.15Z" fill="#293241"/>
<path d="M101.42 432H109.97C112.19 432 114.15 432.45 115.85 433.35C117.55 434.23 118.87 435.47 119.81 437.07C120.75 438.65 121.22 440.46 121.22 442.5C121.22 444.54 120.75 446.36 119.81 447.96C118.87 449.54 117.55 450.78 115.85 451.68C114.15 452.56 112.19 453 109.97 453H101.42V432ZM109.85 451.08C111.69 451.08 113.3 450.72 114.68 450C116.06 449.26 117.13 448.25 117.89 446.97C118.65 445.67 119.03 444.18 119.03 442.5C119.03 440.82 118.65 439.34 117.89 438.06C117.13 436.76 116.06 435.75 114.68 435.03C113.3 434.29 111.69 433.92 109.85 433.92H103.64V451.08H109.85ZM125.755 437.22H127.885V453H125.755V437.22ZM126.835 433.77C126.395 433.77 126.025 433.62 125.725 433.32C125.425 433.02 125.275 432.66 125.275 432.24C125.275 431.84 125.425 431.49 125.725 431.19C126.025 430.89 126.395 430.74 126.835 430.74C127.275 430.74 127.645 430.89 127.945 431.19C128.245 431.47 128.395 431.81 128.395 432.21C128.395 432.65 128.245 433.02 127.945 433.32C127.645 433.62 127.275 433.77 126.835 433.77ZM138.042 453.15C136.762 453.15 135.532 452.97 134.352 452.61C133.192 452.23 132.282 451.76 131.622 451.2L132.582 449.52C133.242 450.04 134.072 450.47 135.072 450.81C136.072 451.13 137.112 451.29 138.192 451.29C139.632 451.29 140.692 451.07 141.372 450.63C142.072 450.17 142.422 449.53 142.422 448.71C142.422 448.13 142.232 447.68 141.852 447.36C141.472 447.02 140.992 446.77 140.412 446.61C139.832 446.43 139.062 446.26 138.102 446.1C136.822 445.86 135.792 445.62 135.012 445.38C134.232 445.12 133.562 444.69 133.002 444.09C132.462 443.49 132.192 442.66 132.192 441.6C132.192 440.28 132.742 439.2 133.842 438.36C134.942 437.52 136.472 437.1 138.432 437.1C139.452 437.1 140.472 437.24 141.492 437.52C142.512 437.78 143.352 438.13 144.012 438.57L143.082 440.28C141.782 439.38 140.232 438.93 138.432 438.93C137.072 438.93 136.042 439.17 135.342 439.65C134.662 440.13 134.322 440.76 134.322 441.54C134.322 442.14 134.512 442.62 134.892 442.98C135.292 443.34 135.782 443.61 136.362 443.79C136.942 443.95 137.742 444.12 138.762 444.3C140.022 444.54 141.032 444.78 141.792 445.02C142.552 445.26 143.202 445.67 143.742 446.25C144.282 446.83 144.552 447.63 144.552 448.65C144.552 450.03 143.972 451.13 142.812 451.95C141.672 452.75 140.082 453.15 138.042 453.15ZM156.62 437.1C158.1 437.1 159.44 437.44 160.64 438.12C161.84 438.78 162.78 439.72 163.46 440.94C164.14 442.16 164.48 443.55 164.48 445.11C164.48 446.69 164.14 448.09 163.46 449.31C162.78 450.53 161.84 451.48 160.64 452.16C159.46 452.82 158.12 453.15 156.62 453.15C155.34 453.15 154.18 452.89 153.14 452.37C152.12 451.83 151.28 451.05 150.62 450.03V458.82H148.49V437.22H150.53V440.34C151.17 439.3 152.01 438.5 153.05 437.94C154.11 437.38 155.3 437.1 156.62 437.1ZM156.47 451.26C157.57 451.26 158.57 451.01 159.47 450.51C160.37 449.99 161.07 449.26 161.57 448.32C162.09 447.38 162.35 446.31 162.35 445.11C162.35 443.91 162.09 442.85 161.57 441.93C161.07 440.99 160.37 440.26 159.47 439.74C158.57 439.22 157.57 438.96 156.47 438.96C155.35 438.96 154.34 439.22 153.44 439.74C152.56 440.26 151.86 440.99 151.34 441.93C150.84 442.85 150.59 443.91 150.59 445.11C150.59 446.31 150.84 447.38 151.34 448.32C151.86 449.26 152.56 449.99 153.44 450.51C154.34 451.01 155.35 451.26 156.47 451.26ZM168.822 430.74H170.952V453H168.822V430.74ZM182.398 437.1C184.458 437.1 186.038 437.62 187.138 438.66C188.238 439.68 188.788 441.2 188.788 443.22V453H186.748V450.54C186.268 451.36 185.558 452 184.618 452.46C183.698 452.92 182.598 453.15 181.318 453.15C179.558 453.15 178.158 452.73 177.118 451.89C176.078 451.05 175.558 449.94 175.558 448.56C175.558 447.22 176.038 446.14 176.998 445.32C177.978 444.5 179.528 444.09 181.648 444.09H186.658V443.13C186.658 441.77 186.278 440.74 185.518 440.04C184.758 439.32 183.648 438.96 182.188 438.96C181.188 438.96 180.228 439.13 179.308 439.47C178.388 439.79 177.598 440.24 176.938 440.82L175.978 439.23C176.778 438.55 177.738 438.03 178.858 437.67C179.978 437.29 181.158 437.1 182.398 437.1ZM181.648 451.47C182.848 451.47 183.878 451.2 184.738 450.66C185.598 450.1 186.238 449.3 186.658 448.26V445.68H181.708C179.008 445.68 177.658 446.62 177.658 448.5C177.658 449.42 178.008 450.15 178.708 450.69C179.408 451.21 180.388 451.47 181.648 451.47ZM207.541 437.22L199.651 454.89C199.011 456.37 198.271 457.42 197.431 458.04C196.591 458.66 195.581 458.97 194.401 458.97C193.641 458.97 192.931 458.85 192.271 458.61C191.611 458.37 191.041 458.01 190.561 457.53L191.551 455.94C192.351 456.74 193.311 457.14 194.431 457.14C195.151 457.14 195.761 456.94 196.261 456.54C196.781 456.14 197.261 455.46 197.701 454.5L198.391 452.97L191.341 437.22H193.561L199.501 450.63L205.441 437.22H207.541ZM236.392 432V453H234.562L221.062 435.96V453H218.842V432H220.672L234.202 449.04V432H236.392ZM248.316 437.1C250.376 437.1 251.956 437.62 253.056 438.66C254.156 439.68 254.706 441.2 254.706 443.22V453H252.666V450.54C252.186 451.36 251.476 452 250.536 452.46C249.616 452.92 248.516 453.15 247.236 453.15C245.476 453.15 244.076 452.73 243.036 451.89C241.996 451.05 241.476 449.94 241.476 448.56C241.476 447.22 241.956 446.14 242.916 445.32C243.896 444.5 245.446 444.09 247.566 444.09H252.576V443.13C252.576 441.77 252.196 440.74 251.436 440.04C250.676 439.32 249.566 438.96 248.106 438.96C247.106 438.96 246.146 439.13 245.226 439.47C244.306 439.79 243.516 440.24 242.856 440.82L241.896 439.23C242.696 438.55 243.656 438.03 244.776 437.67C245.896 437.29 247.076 437.1 248.316 437.1ZM247.566 451.47C248.766 451.47 249.796 451.2 250.656 450.66C251.516 450.1 252.156 449.3 252.576 448.26V445.68H247.626C244.926 445.68 243.576 446.62 243.576 448.5C243.576 449.42 243.926 450.15 244.626 450.69C245.326 451.21 246.306 451.47 247.566 451.47ZM280.171 437.1C282.151 437.1 283.701 437.67 284.821 438.81C285.961 439.95 286.531 441.63 286.531 443.85V453H284.401V444.06C284.401 442.42 284.001 441.17 283.201 440.31C282.421 439.45 281.311 439.02 279.871 439.02C278.231 439.02 276.941 439.53 276.001 440.55C275.061 441.55 274.591 442.94 274.591 444.72V453H272.461V444.06C272.461 442.42 272.061 441.17 271.261 440.31C270.481 439.45 269.361 439.02 267.901 439.02C266.281 439.02 264.991 439.53 264.031 440.55C263.091 441.55 262.621 442.94 262.621 444.72V453H260.491V437.22H262.531V440.1C263.091 439.14 263.871 438.4 264.871 437.88C265.871 437.36 267.021 437.1 268.321 437.1C269.641 437.1 270.781 437.38 271.741 437.94C272.721 438.5 273.451 439.33 273.931 440.43C274.511 439.39 275.341 438.58 276.421 438C277.521 437.4 278.771 437.1 280.171 437.1ZM306.106 445.77H292.906C293.026 447.41 293.656 448.74 294.796 449.76C295.936 450.76 297.376 451.26 299.116 451.26C300.096 451.26 300.996 451.09 301.816 450.75C302.636 450.39 303.346 449.87 303.946 449.19L305.146 450.57C304.446 451.41 303.566 452.05 302.506 452.49C301.466 452.93 300.316 453.15 299.056 453.15C297.436 453.15 295.996 452.81 294.736 452.13C293.496 451.43 292.526 450.47 291.826 449.25C291.126 448.03 290.776 446.65 290.776 445.11C290.776 443.57 291.106 442.19 291.766 440.97C292.446 439.75 293.366 438.8 294.526 438.12C295.706 437.44 297.026 437.1 298.486 437.1C299.946 437.1 301.256 437.44 302.416 438.12C303.576 438.8 304.486 439.75 305.146 440.97C305.806 442.17 306.136 443.55 306.136 445.11L306.106 445.77ZM298.486 438.93C296.966 438.93 295.686 439.42 294.646 440.4C293.626 441.36 293.046 442.62 292.906 444.18H304.096C303.956 442.62 303.366 441.36 302.326 440.4C301.306 439.42 300.026 438.93 298.486 438.93ZM310.682 440.37C310.242 440.37 309.862 440.21 309.542 439.89C309.242 439.57 309.092 439.18 309.092 438.72C309.092 438.26 309.242 437.88 309.542 437.58C309.862 437.26 310.242 437.1 310.682 437.1C311.122 437.1 311.502 437.26 311.822 437.58C312.142 437.88 312.302 438.26 312.302 438.72C312.302 439.18 312.142 439.57 311.822 439.89C311.502 440.21 311.122 440.37 310.682 440.37ZM310.682 453.15C310.242 453.15 309.862 452.99 309.542 452.67C309.242 452.35 309.092 451.96 309.092 451.5C309.092 451.04 309.242 450.66 309.542 450.36C309.862 450.04 310.242 449.88 310.682 449.88C311.122 449.88 311.502 450.04 311.822 450.36C312.142 450.66 312.302 451.04 312.302 451.5C312.302 451.96 312.142 452.35 311.822 452.67C311.502 452.99 311.122 453.15 310.682 453.15Z" fill="white"/>
<g filter="url(#filter0_d_13_284)">
<rect x="98" y="471" width="502" height="78" rx="20" fill="#3D5A80"/>
<rect x="98.5" y="471.5" width="501" height="77" rx="19.5" stroke="#293241" stroke-opacity="0.2"/>
</g>
<path d="M133.88 521.18C131.16 521.18 129.04 520.4 127.52 518.84C126 517.28 125.24 515.01 125.24 512.03V500H127.46V511.94C127.46 514.38 128.01 516.2 129.11 517.4C130.21 518.6 131.8 519.2 133.88 519.2C135.98 519.2 137.58 518.6 138.68 517.4C139.78 516.2 140.33 514.38 140.33 511.94V500H142.49V512.03C142.49 515.01 141.73 517.28 140.21 518.84C138.71 520.4 136.6 521.18 133.88 521.18ZM152.96 521.15C151.68 521.15 150.45 520.97 149.27 520.61C148.11 520.23 147.2 519.76 146.54 519.2L147.5 517.52C148.16 518.04 148.99 518.47 149.99 518.81C150.99 519.13 152.03 519.29 153.11 519.29C154.55 519.29 155.61 519.07 156.29 518.63C156.99 518.17 157.34 517.53 157.34 516.71C157.34 516.13 157.15 515.68 156.77 515.36C156.39 515.02 155.91 514.77 155.33 514.61C154.75 514.43 153.98 514.26 153.02 514.1C151.74 513.86 150.71 513.62 149.93 513.38C149.15 513.12 148.48 512.69 147.92 512.09C147.38 511.49 147.11 510.66 147.11 509.6C147.11 508.28 147.66 507.2 148.76 506.36C149.86 505.52 151.39 505.1 153.35 505.1C154.37 505.1 155.39 505.24 156.41 505.52C157.43 505.78 158.27 506.13 158.93 506.57L158 508.28C156.7 507.38 155.15 506.93 153.35 506.93C151.99 506.93 150.96 507.17 150.26 507.65C149.58 508.13 149.24 508.76 149.24 509.54C149.24 510.14 149.43 510.62 149.81 510.98C150.21 511.34 150.7 511.61 151.28 511.79C151.86 511.95 152.66 512.12 153.68 512.3C154.94 512.54 155.95 512.78 156.71 513.02C157.47 513.26 158.12 513.67 158.66 514.25C159.2 514.83 159.47 515.63 159.47 516.65C159.47 518.03 158.89 519.13 157.73 519.95C156.59 520.75 155 521.15 152.96 521.15ZM177.148 513.77H163.948C164.068 515.41 164.698 516.74 165.838 517.76C166.978 518.76 168.418 519.26 170.158 519.26C171.138 519.26 172.038 519.09 172.858 518.75C173.678 518.39 174.388 517.87 174.988 517.19L176.188 518.57C175.488 519.41 174.608 520.05 173.548 520.49C172.508 520.93 171.358 521.15 170.098 521.15C168.478 521.15 167.038 520.81 165.778 520.13C164.538 519.43 163.568 518.47 162.868 517.25C162.168 516.03 161.818 514.65 161.818 513.11C161.818 511.57 162.148 510.19 162.808 508.97C163.488 507.75 164.408 506.8 165.568 506.12C166.748 505.44 168.068 505.1 169.528 505.1C170.988 505.1 172.298 505.44 173.458 506.12C174.618 506.8 175.528 507.75 176.188 508.97C176.848 510.17 177.178 511.55 177.178 513.11L177.148 513.77ZM169.528 506.93C168.008 506.93 166.728 507.42 165.688 508.4C164.668 509.36 164.088 510.62 163.948 512.18H175.138C174.998 510.62 174.408 509.36 173.368 508.4C172.348 507.42 171.068 506.93 169.528 506.93ZM183.553 508.31C184.053 507.25 184.793 506.45 185.773 505.91C186.773 505.37 188.003 505.1 189.463 505.1V507.17L188.953 507.14C187.293 507.14 185.993 507.65 185.053 508.67C184.113 509.69 183.643 511.12 183.643 512.96V521H181.513V505.22H183.553V508.31ZM194.761 498.59C195.221 498.59 195.601 498.75 195.901 499.07C196.201 499.37 196.351 499.75 196.351 500.21C196.351 500.45 196.311 500.71 196.231 500.99C196.171 501.25 196.081 501.56 195.961 501.92L194.671 506.06H193.231L194.281 501.74C193.941 501.64 193.671 501.46 193.471 501.2C193.271 500.92 193.171 500.59 193.171 500.21C193.171 499.73 193.321 499.34 193.621 499.04C193.921 498.74 194.301 498.59 194.761 498.59ZM204.639 521.15C203.359 521.15 202.129 520.97 200.949 520.61C199.789 520.23 198.879 519.76 198.219 519.2L199.179 517.52C199.839 518.04 200.669 518.47 201.669 518.81C202.669 519.13 203.709 519.29 204.789 519.29C206.229 519.29 207.289 519.07 207.969 518.63C208.669 518.17 209.019 517.53 209.019 516.71C209.019 516.13 208.829 515.68 208.449 515.36C208.069 515.02 207.589 514.77 207.009 514.61C206.429 514.43 205.659 514.26 204.699 514.1C203.419 513.86 202.389 513.62 201.609 513.38C200.829 513.12 200.159 512.69 199.599 512.09C199.059 511.49 198.789 510.66 198.789 509.6C198.789 508.28 199.339 507.2 200.439 506.36C201.539 505.52 203.069 505.1 205.029 505.1C206.049 505.1 207.069 505.24 208.089 505.52C209.109 505.78 209.949 506.13 210.609 506.57L209.679 508.28C208.379 507.38 206.829 506.93 205.029 506.93C203.669 506.93 202.639 507.17 201.939 507.65C201.259 508.13 200.919 508.76 200.919 509.54C200.919 510.14 201.109 510.62 201.489 510.98C201.889 511.34 202.379 511.61 202.959 511.79C203.539 511.95 204.339 512.12 205.359 512.3C206.619 512.54 207.629 512.78 208.389 513.02C209.149 513.26 209.799 513.67 210.339 514.25C210.879 514.83 211.149 515.63 211.149 516.65C211.149 518.03 210.569 519.13 209.409 519.95C208.269 520.75 206.679 521.15 204.639 521.15ZM223.389 500H231.939C234.159 500 236.119 500.45 237.819 501.35C239.519 502.23 240.839 503.47 241.779 505.07C242.719 506.65 243.189 508.46 243.189 510.5C243.189 512.54 242.719 514.36 241.779 515.96C240.839 517.54 239.519 518.78 237.819 519.68C236.119 520.56 234.159 521 231.939 521H223.389V500ZM231.819 519.08C233.659 519.08 235.269 518.72 236.649 518C238.029 517.26 239.099 516.25 239.859 514.97C240.619 513.67 240.999 512.18 240.999 510.5C240.999 508.82 240.619 507.34 239.859 506.06C239.099 504.76 238.029 503.75 236.649 503.03C235.269 502.29 233.659 501.92 231.819 501.92H225.609V519.08H231.819ZM247.724 505.22H249.854V521H247.724V505.22ZM248.804 501.77C248.364 501.77 247.994 501.62 247.694 501.32C247.394 501.02 247.244 500.66 247.244 500.24C247.244 499.84 247.394 499.49 247.694 499.19C247.994 498.89 248.364 498.74 248.804 498.74C249.244 498.74 249.614 498.89 249.914 499.19C250.214 499.47 250.364 499.81 250.364 500.21C250.364 500.65 250.214 501.02 249.914 501.32C249.614 501.62 249.244 501.77 248.804 501.77ZM260.011 521.15C258.731 521.15 257.501 520.97 256.321 520.61C255.161 520.23 254.251 519.76 253.591 519.2L254.551 517.52C255.211 518.04 256.041 518.47 257.041 518.81C258.041 519.13 259.081 519.29 260.161 519.29C261.601 519.29 262.661 519.07 263.341 518.63C264.041 518.17 264.391 517.53 264.391 516.71C264.391 516.13 264.201 515.68 263.821 515.36C263.441 515.02 262.961 514.77 262.381 514.61C261.801 514.43 261.031 514.26 260.071 514.1C258.791 513.86 257.761 513.62 256.981 513.38C256.201 513.12 255.531 512.69 254.971 512.09C254.431 511.49 254.161 510.66 254.161 509.6C254.161 508.28 254.711 507.2 255.811 506.36C256.911 505.52 258.441 505.1 260.401 505.1C261.421 505.1 262.441 505.24 263.461 505.52C264.481 505.78 265.321 506.13 265.981 506.57L265.051 508.28C263.751 507.38 262.201 506.93 260.401 506.93C259.041 506.93 258.011 507.17 257.311 507.65C256.631 508.13 256.291 508.76 256.291 509.54C256.291 510.14 256.481 510.62 256.861 510.98C257.261 511.34 257.751 511.61 258.331 511.79C258.911 511.95 259.711 512.12 260.731 512.3C261.991 512.54 263.001 512.78 263.761 513.02C264.521 513.26 265.171 513.67 265.711 514.25C266.251 514.83 266.521 515.63 266.521 516.65C266.521 518.03 265.941 519.13 264.781 519.95C263.641 520.75 262.051 521.15 260.011 521.15ZM278.588 505.1C280.068 505.1 281.408 505.44 282.608 506.12C283.808 506.78 284.748 507.72 285.428 508.94C286.108 510.16 286.448 511.55 286.448 513.11C286.448 514.69 286.108 516.09 285.428 517.31C284.748 518.53 283.808 519.48 282.608 520.16C281.428 520.82 280.088 521.15 278.588 521.15C277.308 521.15 276.148 520.89 275.108 520.37C274.088 519.83 273.248 519.05 272.588 518.03V526.82H270.458V505.22H272.498V508.34C273.138 507.3 273.978 506.5 275.018 505.94C276.078 505.38 277.268 505.1 278.588 505.1ZM278.438 519.26C279.538 519.26 280.538 519.01 281.438 518.51C282.338 517.99 283.038 517.26 283.538 516.32C284.058 515.38 284.318 514.31 284.318 513.11C284.318 511.91 284.058 510.85 283.538 509.93C283.038 508.99 282.338 508.26 281.438 507.74C280.538 507.22 279.538 506.96 278.438 506.96C277.318 506.96 276.308 507.22 275.408 507.74C274.528 508.26 273.828 508.99 273.308 509.93C272.808 510.85 272.558 511.91 272.558 513.11C272.558 514.31 272.808 515.38 273.308 516.32C273.828 517.26 274.528 517.99 275.408 518.51C276.308 519.01 277.318 519.26 278.438 519.26ZM290.79 498.74H292.92V521H290.79V498.74ZM304.367 505.1C306.427 505.1 308.007 505.62 309.107 506.66C310.207 507.68 310.757 509.2 310.757 511.22V521H308.717V518.54C308.237 519.36 307.527 520 306.587 520.46C305.667 520.92 304.567 521.15 303.287 521.15C301.527 521.15 300.127 520.73 299.087 519.89C298.047 519.05 297.527 517.94 297.527 516.56C297.527 515.22 298.007 514.14 298.967 513.32C299.947 512.5 301.497 512.09 303.617 512.09H308.627V511.13C308.627 509.77 308.247 508.74 307.487 508.04C306.727 507.32 305.617 506.96 304.157 506.96C303.157 506.96 302.197 507.13 301.277 507.47C300.357 507.79 299.567 508.24 298.907 508.82L297.947 507.23C298.747 506.55 299.707 506.03 300.827 505.67C301.947 505.29 303.127 505.1 304.367 505.1ZM303.617 519.47C304.817 519.47 305.847 519.2 306.707 518.66C307.567 518.1 308.207 517.3 308.627 516.26V513.68H303.677C300.977 513.68 299.627 514.62 299.627 516.5C299.627 517.42 299.977 518.15 300.677 518.69C301.377 519.21 302.357 519.47 303.617 519.47ZM329.509 505.22L321.619 522.89C320.979 524.37 320.239 525.42 319.399 526.04C318.559 526.66 317.549 526.97 316.369 526.97C315.609 526.97 314.899 526.85 314.239 526.61C313.579 526.37 313.009 526.01 312.529 525.53L313.519 523.94C314.319 524.74 315.279 525.14 316.399 525.14C317.119 525.14 317.729 524.94 318.229 524.54C318.749 524.14 319.229 523.46 319.669 522.5L320.359 520.97L313.309 505.22H315.529L321.469 518.63L327.409 505.22H329.509ZM358.361 500V521H356.531L343.031 503.96V521H340.811V500H342.641L356.171 517.04V500H358.361ZM370.285 505.1C372.345 505.1 373.925 505.62 375.025 506.66C376.125 507.68 376.675 509.2 376.675 511.22V521H374.635V518.54C374.155 519.36 373.445 520 372.505 520.46C371.585 520.92 370.485 521.15 369.205 521.15C367.445 521.15 366.045 520.73 365.005 519.89C363.965 519.05 363.445 517.94 363.445 516.56C363.445 515.22 363.925 514.14 364.885 513.32C365.865 512.5 367.415 512.09 369.535 512.09H374.545V511.13C374.545 509.77 374.165 508.74 373.405 508.04C372.645 507.32 371.535 506.96 370.075 506.96C369.075 506.96 368.115 507.13 367.195 507.47C366.275 507.79 365.485 508.24 364.825 508.82L363.865 507.23C364.665 506.55 365.625 506.03 366.745 505.67C367.865 505.29 369.045 505.1 370.285 505.1ZM369.535 519.47C370.735 519.47 371.765 519.2 372.625 518.66C373.485 518.1 374.125 517.3 374.545 516.26V513.68H369.595C366.895 513.68 365.545 514.62 365.545 516.5C365.545 517.42 365.895 518.15 366.595 518.69C367.295 519.21 368.275 519.47 369.535 519.47ZM402.14 505.1C404.12 505.1 405.67 505.67 406.79 506.81C407.93 507.95 408.5 509.63 408.5 511.85V521H406.37V512.06C406.37 510.42 405.97 509.17 405.17 508.31C404.39 507.45 403.28 507.02 401.84 507.02C400.2 507.02 398.91 507.53 397.97 508.55C397.03 509.55 396.56 510.94 396.56 512.72V521H394.43V512.06C394.43 510.42 394.03 509.17 393.23 508.31C392.45 507.45 391.33 507.02 389.87 507.02C388.25 507.02 386.96 507.53 386 508.55C385.06 509.55 384.59 510.94 384.59 512.72V521H382.46V505.22H384.5V508.1C385.06 507.14 385.84 506.4 386.84 505.88C387.84 505.36 388.99 505.1 390.29 505.1C391.61 505.1 392.75 505.38 393.71 505.94C394.69 506.5 395.42 507.33 395.9 508.43C396.48 507.39 397.31 506.58 398.39 506C399.49 505.4 400.74 505.1 402.14 505.1ZM428.075 513.77H414.875C414.995 515.41 415.625 516.74 416.765 517.76C417.905 518.76 419.345 519.26 421.085 519.26C422.065 519.26 422.965 519.09 423.785 518.75C424.605 518.39 425.315 517.87 425.915 517.19L427.115 518.57C426.415 519.41 425.535 520.05 424.475 520.49C423.435 520.93 422.285 521.15 421.025 521.15C419.405 521.15 417.965 520.81 416.705 520.13C415.465 519.43 414.495 518.47 413.795 517.25C413.095 516.03 412.745 514.65 412.745 513.11C412.745 511.57 413.075 510.19 413.735 508.97C414.415 507.75 415.335 506.8 416.495 506.12C417.675 505.44 418.995 505.1 420.455 505.1C421.915 505.1 423.225 505.44 424.385 506.12C425.545 506.8 426.455 507.75 427.115 508.97C427.775 510.17 428.105 511.55 428.105 513.11L428.075 513.77ZM420.455 506.93C418.935 506.93 417.655 507.42 416.615 508.4C415.595 509.36 415.015 510.62 414.875 512.18H426.065C425.925 510.62 425.335 509.36 424.295 508.4C423.275 507.42 421.995 506.93 420.455 506.93Z" fill="white"/>
<path d="M825.21 453.18C823.65 453.18 822.15 452.93 820.71 452.43C819.29 451.93 818.19 451.27 817.41 450.45L818.28 448.74C819.04 449.5 820.05 450.12 821.31 450.6C822.57 451.06 823.87 451.29 825.21 451.29C827.09 451.29 828.5 450.95 829.44 450.27C830.38 449.57 830.85 448.67 830.85 447.57C830.85 446.73 830.59 446.06 830.07 445.56C829.57 445.06 828.95 444.68 828.21 444.42C827.47 444.14 826.44 443.84 825.12 443.52C823.54 443.12 822.28 442.74 821.34 442.38C820.4 442 819.59 441.43 818.91 440.67C818.25 439.91 817.92 438.88 817.92 437.58C817.92 436.52 818.2 435.56 818.76 434.7C819.32 433.82 820.18 433.12 821.34 432.6C822.5 432.08 823.94 431.82 825.66 431.82C826.86 431.82 828.03 431.99 829.17 432.33C830.33 432.65 831.33 433.1 832.17 433.68L831.42 435.45C830.54 434.87 829.6 434.44 828.6 434.16C827.6 433.86 826.62 433.71 825.66 433.71C823.82 433.71 822.43 434.07 821.49 434.79C820.57 435.49 820.11 436.4 820.11 437.52C820.11 438.36 820.36 439.04 820.86 439.56C821.38 440.06 822.02 440.45 822.78 440.73C823.56 440.99 824.6 441.28 825.9 441.6C827.44 441.98 828.68 442.36 829.62 442.74C830.58 443.1 831.39 443.66 832.05 444.42C832.71 445.16 833.04 446.17 833.04 447.45C833.04 448.51 832.75 449.48 832.17 450.36C831.61 451.22 830.74 451.91 829.56 452.43C828.38 452.93 826.93 453.18 825.21 453.18ZM843.967 453.15C842.407 453.15 841.007 452.81 839.767 452.13C838.547 451.45 837.587 450.5 836.887 449.28C836.187 448.04 835.837 446.65 835.837 445.11C835.837 443.57 836.187 442.19 836.887 440.97C837.587 439.75 838.547 438.8 839.767 438.12C841.007 437.44 842.407 437.1 843.967 437.1C845.327 437.1 846.537 437.37 847.597 437.91C848.677 438.43 849.527 439.2 850.147 440.22L848.557 441.3C848.037 440.52 847.377 439.94 846.577 439.56C845.777 439.16 844.907 438.96 843.967 438.96C842.827 438.96 841.797 439.22 840.877 439.74C839.977 440.24 839.267 440.96 838.747 441.9C838.247 442.84 837.997 443.91 837.997 445.11C837.997 446.33 838.247 447.41 838.747 448.35C839.267 449.27 839.977 449.99 840.877 450.51C841.797 451.01 842.827 451.26 843.967 451.26C844.907 451.26 845.777 451.07 846.577 450.69C847.377 450.31 848.037 449.73 848.557 448.95L850.147 450.03C849.527 451.05 848.677 451.83 847.597 452.37C846.517 452.89 845.307 453.15 843.967 453.15ZM862.137 437.1C864.117 437.1 865.687 437.68 866.847 438.84C868.027 439.98 868.617 441.65 868.617 443.85V453H866.487V444.06C866.487 442.42 866.077 441.17 865.257 440.31C864.437 439.45 863.267 439.02 861.747 439.02C860.047 439.02 858.697 439.53 857.697 440.55C856.717 441.55 856.227 442.94 856.227 444.72V453H854.097V430.74H856.227V439.98C856.807 439.06 857.607 438.35 858.627 437.85C859.647 437.35 860.817 437.1 862.137 437.1ZM880.908 453.15C879.388 453.15 878.018 452.81 876.798 452.13C875.578 451.43 874.618 450.47 873.918 449.25C873.218 448.03 872.868 446.65 872.868 445.11C872.868 443.57 873.218 442.19 873.918 440.97C874.618 439.75 875.578 438.8 876.798 438.12C878.018 437.44 879.388 437.1 880.908 437.1C882.428 437.1 883.798 437.44 885.018 438.12C886.238 438.8 887.188 439.75 887.868 440.97C888.568 442.19 888.918 443.57 888.918 445.11C888.918 446.65 888.568 448.03 887.868 449.25C887.188 450.47 886.238 451.43 885.018 452.13C883.798 452.81 882.428 453.15 880.908 453.15ZM880.908 451.26C882.028 451.26 883.028 451.01 883.908 450.51C884.808 449.99 885.508 449.26 886.008 448.32C886.508 447.38 886.758 446.31 886.758 445.11C886.758 443.91 886.508 442.84 886.008 441.9C885.508 440.96 884.808 440.24 883.908 439.74C883.028 439.22 882.028 438.96 880.908 438.96C879.788 438.96 878.778 439.22 877.878 439.74C876.998 440.24 876.298 440.96 875.778 441.9C875.278 442.84 875.028 443.91 875.028 445.11C875.028 446.31 875.278 447.38 875.778 448.32C876.298 449.26 876.998 449.99 877.878 450.51C878.778 451.01 879.788 451.26 880.908 451.26ZM899.717 453.15C898.197 453.15 896.827 452.81 895.607 452.13C894.387 451.43 893.427 450.47 892.727 449.25C892.027 448.03 891.677 446.65 891.677 445.11C891.677 443.57 892.027 442.19 892.727 440.97C893.427 439.75 894.387 438.8 895.607 438.12C896.827 437.44 898.197 437.1 899.717 437.1C901.237 437.1 902.607 437.44 903.827 438.12C905.047 438.8 905.997 439.75 906.677 440.97C907.377 442.19 907.727 443.57 907.727 445.11C907.727 446.65 907.377 448.03 906.677 449.25C905.997 450.47 905.047 451.43 903.827 452.13C902.607 452.81 901.237 453.15 899.717 453.15ZM899.717 451.26C900.837 451.26 901.837 451.01 902.717 450.51C903.617 449.99 904.317 449.26 904.817 448.32C905.317 447.38 905.567 446.31 905.567 445.11C905.567 443.91 905.317 442.84 904.817 441.9C904.317 440.96 903.617 440.24 902.717 439.74C901.837 439.22 900.837 438.96 899.717 438.96C898.597 438.96 897.587 439.22 896.687 439.74C895.807 440.24 895.107 440.96 894.587 441.9C894.087 442.84 893.837 443.91 893.837 445.11C893.837 446.31 894.087 447.38 894.587 448.32C895.107 449.26 895.807 449.99 896.687 450.51C897.587 451.01 898.597 451.26 899.717 451.26ZM912.075 430.74H914.205V453H912.075V430.74ZM945.984 432V453H944.154L930.654 435.96V453H928.434V432H930.264L943.794 449.04V432H945.984ZM957.908 437.1C959.968 437.1 961.548 437.62 962.648 438.66C963.748 439.68 964.298 441.2 964.298 443.22V453H962.258V450.54C961.778 451.36 961.068 452 960.128 452.46C959.208 452.92 958.108 453.15 956.828 453.15C955.068 453.15 953.668 452.73 952.628 451.89C951.588 451.05 951.068 449.94 951.068 448.56C951.068 447.22 951.548 446.14 952.508 445.32C953.488 444.5 955.038 444.09 957.158 444.09H962.168V443.13C962.168 441.77 961.788 440.74 961.028 440.04C960.268 439.32 959.158 438.96 957.698 438.96C956.698 438.96 955.738 439.13 954.818 439.47C953.898 439.79 953.108 440.24 952.448 440.82L951.488 439.23C952.288 438.55 953.248 438.03 954.368 437.67C955.488 437.29 956.668 437.1 957.908 437.1ZM957.158 451.47C958.358 451.47 959.388 451.2 960.248 450.66C961.108 450.1 961.748 449.3 962.168 448.26V445.68H957.218C954.518 445.68 953.168 446.62 953.168 448.5C953.168 449.42 953.518 450.15 954.218 450.69C954.918 451.21 955.898 451.47 957.158 451.47ZM989.763 437.1C991.743 437.1 993.293 437.67 994.413 438.81C995.553 439.95 996.123 441.63 996.123 443.85V453H993.993V444.06C993.993 442.42 993.593 441.17 992.793 440.31C992.013 439.45 990.903 439.02 989.463 439.02C987.823 439.02 986.533 439.53 985.593 440.55C984.653 441.55 984.183 442.94 984.183 444.72V453H982.053V444.06C982.053 442.42 981.653 441.17 980.853 440.31C980.073 439.45 978.953 439.02 977.493 439.02C975.873 439.02 974.583 439.53 973.623 440.55C972.683 441.55 972.213 442.94 972.213 444.72V453H970.083V437.22H972.123V440.1C972.683 439.14 973.463 438.4 974.463 437.88C975.463 437.36 976.613 437.1 977.913 437.1C979.233 437.1 980.373 437.38 981.333 437.94C982.313 438.5 983.043 439.33 983.523 440.43C984.103 439.39 984.933 438.58 986.013 438C987.113 437.4 988.363 437.1 989.763 437.1ZM1015.7 445.77H1002.5C1002.62 447.41 1003.25 448.74 1004.39 449.76C1005.53 450.76 1006.97 451.26 1008.71 451.26C1009.69 451.26 1010.59 451.09 1011.41 450.75C1012.23 450.39 1012.94 449.87 1013.54 449.19L1014.74 450.57C1014.04 451.41 1013.16 452.05 1012.1 452.49C1011.06 452.93 1009.91 453.15 1008.65 453.15C1007.03 453.15 1005.59 452.81 1004.33 452.13C1003.09 451.43 1002.12 450.47 1001.42 449.25C1000.72 448.03 1000.37 446.65 1000.37 445.11C1000.37 443.57 1000.7 442.19 1001.36 440.97C1002.04 439.75 1002.96 438.8 1004.12 438.12C1005.3 437.44 1006.62 437.1 1008.08 437.1C1009.54 437.1 1010.85 437.44 1012.01 438.12C1013.17 438.8 1014.08 439.75 1014.74 440.97C1015.4 442.17 1015.73 443.55 1015.73 445.11L1015.7 445.77ZM1008.08 438.93C1006.56 438.93 1005.28 439.42 1004.24 440.4C1003.22 441.36 1002.64 442.62 1002.5 444.18H1013.69C1013.55 442.62 1012.96 441.36 1011.92 440.4C1010.9 439.42 1009.62 438.93 1008.08 438.93ZM1020.27 440.37C1019.83 440.37 1019.45 440.21 1019.13 439.89C1018.83 439.57 1018.68 439.18 1018.68 438.72C1018.68 438.26 1018.83 437.88 1019.13 437.58C1019.45 437.26 1019.83 437.1 1020.27 437.1C1020.71 437.1 1021.09 437.26 1021.41 437.58C1021.73 437.88 1021.89 438.26 1021.89 438.72C1021.89 439.18 1021.73 439.57 1021.41 439.89C1021.09 440.21 1020.71 440.37 1020.27 440.37ZM1020.27 453.15C1019.83 453.15 1019.45 452.99 1019.13 452.67C1018.83 452.35 1018.68 451.96 1018.68 451.5C1018.68 451.04 1018.83 450.66 1019.13 450.36C1019.45 450.04 1019.83 449.88 1020.27 449.88C1020.71 449.88 1021.09 450.04 1021.41 450.36C1021.73 450.66 1021.89 451.04 1021.89 451.5C1021.89 451.96 1021.73 452.35 1021.41 452.67C1021.09 452.99 1020.71 453.15 1020.27 453.15Z" fill="white"/>
<g filter="url(#filter1_d_13_284)">
<rect x="816" y="466" width="502" height="78" rx="20" fill="#3D5A80"/>
<rect x="816.5" y="466.5" width="501" height="77" rx="19.5" stroke="#293241" stroke-opacity="0.2"/>
</g>
<path d="M1274.68 502.845L1282.02 510.183C1283.12 511.288 1284.91 511.288 1286.01 510.183L1293.35 502.845C1295.14 501.06 1293.86 498 1291.34 498H1276.66C1274.14 498 1272.89 501.06 1274.68 502.845Z" fill="#293241"/>
<path d="M851.88 516.18C849.16 516.18 847.04 515.4 845.52 513.84C844 512.28 843.24 510.01 843.24 507.03V495H845.46V506.94C845.46 509.38 846.01 511.2 847.11 512.4C848.21 513.6 849.8 514.2 851.88 514.2C853.98 514.2 855.58 513.6 856.68 512.4C857.78 511.2 858.33 509.38 858.33 506.94V495H860.49V507.03C860.49 510.01 859.73 512.28 858.21 513.84C856.71 515.4 854.6 516.18 851.88 516.18ZM870.96 516.15C869.68 516.15 868.45 515.97 867.27 515.61C866.11 515.23 865.2 514.76 864.54 514.2L865.5 512.52C866.16 513.04 866.99 513.47 867.99 513.81C868.99 514.13 870.03 514.29 871.11 514.29C872.55 514.29 873.61 514.07 874.29 513.63C874.99 513.17 875.34 512.53 875.34 511.71C875.34 511.13 875.15 510.68 874.77 510.36C874.39 510.02 873.91 509.77 873.33 509.61C872.75 509.43 871.98 509.26 871.02 509.1C869.74 508.86 868.71 508.62 867.93 508.38C867.15 508.12 866.48 507.69 865.92 507.09C865.38 506.49 865.11 505.66 865.11 504.6C865.11 503.28 865.66 502.2 866.76 501.36C867.86 500.52 869.39 500.1 871.35 500.1C872.37 500.1 873.39 500.24 874.41 500.52C875.43 500.78 876.27 501.13 876.93 501.57L876 503.28C874.7 502.38 873.15 501.93 871.35 501.93C869.99 501.93 868.96 502.17 868.26 502.65C867.58 503.13 867.24 503.76 867.24 504.54C867.24 505.14 867.43 505.62 867.81 505.98C868.21 506.34 868.7 506.61 869.28 506.79C869.86 506.95 870.66 507.12 871.68 507.3C872.94 507.54 873.95 507.78 874.71 508.02C875.47 508.26 876.12 508.67 876.66 509.25C877.2 509.83 877.47 510.63 877.47 511.65C877.47 513.03 876.89 514.13 875.73 514.95C874.59 515.75 873 516.15 870.96 516.15ZM895.148 508.77H881.948C882.068 510.41 882.698 511.74 883.838 512.76C884.978 513.76 886.418 514.26 888.158 514.26C889.138 514.26 890.038 514.09 890.858 513.75C891.678 513.39 892.388 512.87 892.988 512.19L894.188 513.57C893.488 514.41 892.608 515.05 891.548 515.49C890.508 515.93 889.358 516.15 888.098 516.15C886.478 516.15 885.038 515.81 883.778 515.13C882.538 514.43 881.568 513.47 880.868 512.25C880.168 511.03 879.818 509.65 879.818 508.11C879.818 506.57 880.148 505.19 880.808 503.97C881.488 502.75 882.408 501.8 883.568 501.12C884.748 500.44 886.068 500.1 887.528 500.1C888.988 500.1 890.298 500.44 891.458 501.12C892.618 501.8 893.528 502.75 894.188 503.97C894.848 505.17 895.178 506.55 895.178 508.11L895.148 508.77ZM887.528 501.93C886.008 501.93 884.728 502.42 883.688 503.4C882.668 504.36 882.088 505.62 881.948 507.18H893.138C892.998 505.62 892.408 504.36 891.368 503.4C890.348 502.42 889.068 501.93 887.528 501.93ZM901.553 503.31C902.053 502.25 902.793 501.45 903.773 500.91C904.773 500.37 906.003 500.1 907.463 500.1V502.17L906.953 502.14C905.293 502.14 903.993 502.65 903.053 503.67C902.113 504.69 901.643 506.12 901.643 507.96V516H899.513V500.22H901.553V503.31ZM912.761 493.59C913.221 493.59 913.601 493.75 913.901 494.07C914.201 494.37 914.351 494.75 914.351 495.21C914.351 495.45 914.311 495.71 914.231 495.99C914.171 496.25 914.081 496.56 913.961 496.92L912.671 501.06H911.231L912.281 496.74C911.941 496.64 911.671 496.46 911.471 496.2C911.271 495.92 911.171 495.59 911.171 495.21C911.171 494.73 911.321 494.34 911.621 494.04C911.921 493.74 912.301 493.59 912.761 493.59ZM922.639 516.15C921.359 516.15 920.129 515.97 918.949 515.61C917.789 515.23 916.879 514.76 916.219 514.2L917.179 512.52C917.839 513.04 918.669 513.47 919.669 513.81C920.669 514.13 921.709 514.29 922.789 514.29C924.229 514.29 925.289 514.07 925.969 513.63C926.669 513.17 927.019 512.53 927.019 511.71C927.019 511.13 926.829 510.68 926.449 510.36C926.069 510.02 925.589 509.77 925.009 509.61C924.429 509.43 923.659 509.26 922.699 509.1C921.419 508.86 920.389 508.62 919.609 508.38C918.829 508.12 918.159 507.69 917.599 507.09C917.059 506.49 916.789 505.66 916.789 504.6C916.789 503.28 917.339 502.2 918.439 501.36C919.539 500.52 921.069 500.1 923.029 500.1C924.049 500.1 925.069 500.24 926.089 500.52C927.109 500.78 927.949 501.13 928.609 501.57L927.679 503.28C926.379 502.38 924.829 501.93 923.029 501.93C921.669 501.93 920.639 502.17 919.939 502.65C919.259 503.13 918.919 503.76 918.919 504.54C918.919 505.14 919.109 505.62 919.489 505.98C919.889 506.34 920.379 506.61 920.959 506.79C921.539 506.95 922.339 507.12 923.359 507.3C924.619 507.54 925.629 507.78 926.389 508.02C927.149 508.26 927.799 508.67 928.339 509.25C928.879 509.83 929.149 510.63 929.149 511.65C929.149 513.03 928.569 514.13 927.409 514.95C926.269 515.75 924.679 516.15 922.639 516.15ZM947.179 516.18C945.619 516.18 944.119 515.93 942.679 515.43C941.259 514.93 940.159 514.27 939.379 513.45L940.249 511.74C941.009 512.5 942.019 513.12 943.279 513.6C944.539 514.06 945.839 514.29 947.179 514.29C949.059 514.29 950.469 513.95 951.409 513.27C952.349 512.57 952.819 511.67 952.819 510.57C952.819 509.73 952.559 509.06 952.039 508.56C951.539 508.06 950.919 507.68 950.179 507.42C949.439 507.14 948.409 506.84 947.089 506.52C945.509 506.12 944.249 505.74 943.309 505.38C942.369 505 941.559 504.43 940.879 503.67C940.219 502.91 939.889 501.88 939.889 500.58C939.889 499.52 940.169 498.56 940.729 497.7C941.289 496.82 942.149 496.12 943.309 495.6C944.469 495.08 945.909 494.82 947.629 494.82C948.829 494.82 949.999 494.99 951.139 495.33C952.299 495.65 953.299 496.1 954.139 496.68L953.389 498.45C952.509 497.87 951.569 497.44 950.569 497.16C949.569 496.86 948.589 496.71 947.629 496.71C945.789 496.71 944.399 497.07 943.459 497.79C942.539 498.49 942.079 499.4 942.079 500.52C942.079 501.36 942.329 502.04 942.829 502.56C943.349 503.06 943.989 503.45 944.749 503.73C945.529 503.99 946.569 504.28 947.869 504.6C949.409 504.98 950.649 505.36 951.589 505.74C952.549 506.1 953.359 506.66 954.019 507.42C954.679 508.16 955.009 509.17 955.009 510.45C955.009 511.51 954.719 512.48 954.139 513.36C953.579 514.22 952.709 514.91 951.529 515.43C950.349 515.93 948.899 516.18 947.179 516.18ZM965.936 516.15C964.376 516.15 962.976 515.81 961.736 515.13C960.516 514.45 959.556 513.5 958.856 512.28C958.156 511.04 957.806 509.65 957.806 508.11C957.806 506.57 958.156 505.19 958.856 503.97C959.556 502.75 960.516 501.8 961.736 501.12C962.976 500.44 964.376 500.1 965.936 500.1C967.296 500.1 968.506 500.37 969.566 500.91C970.646 501.43 971.496 502.2 972.116 503.22L970.526 504.3C970.006 503.52 969.346 502.94 968.546 502.56C967.746 502.16 966.876 501.96 965.936 501.96C964.796 501.96 963.766 502.22 962.846 502.74C961.946 503.24 961.236 503.96 960.716 504.9C960.216 505.84 959.966 506.91 959.966 508.11C959.966 509.33 960.216 510.41 960.716 511.35C961.236 512.27 961.946 512.99 962.846 513.51C963.766 514.01 964.796 514.26 965.936 514.26C966.876 514.26 967.746 514.07 968.546 513.69C969.346 513.31 970.006 512.73 970.526 511.95L972.116 513.03C971.496 514.05 970.646 514.83 969.566 515.37C968.486 515.89 967.276 516.15 965.936 516.15ZM984.106 500.1C986.086 500.1 987.656 500.68 988.816 501.84C989.996 502.98 990.586 504.65 990.586 506.85V516H988.456V507.06C988.456 505.42 988.046 504.17 987.226 503.31C986.406 502.45 985.236 502.02 983.716 502.02C982.016 502.02 980.666 502.53 979.666 503.55C978.686 504.55 978.196 505.94 978.196 507.72V516H976.066V493.74H978.196V502.98C978.776 502.06 979.576 501.35 980.596 500.85C981.616 500.35 982.786 500.1 984.106 500.1ZM1002.88 516.15C1001.36 516.15 999.987 515.81 998.767 515.13C997.547 514.43 996.587 513.47 995.887 512.25C995.187 511.03 994.837 509.65 994.837 508.11C994.837 506.57 995.187 505.19 995.887 503.97C996.587 502.75 997.547 501.8 998.767 501.12C999.987 500.44 1001.36 500.1 1002.88 500.1C1004.4 500.1 1005.77 500.44 1006.99 501.12C1008.21 501.8 1009.16 502.75 1009.84 503.97C1010.54 505.19 1010.89 506.57 1010.89 508.11C1010.89 509.65 1010.54 511.03 1009.84 512.25C1009.16 513.47 1008.21 514.43 1006.99 515.13C1005.77 515.81 1004.4 516.15 1002.88 516.15ZM1002.88 514.26C1004 514.26 1005 514.01 1005.88 513.51C1006.78 512.99 1007.48 512.26 1007.98 511.32C1008.48 510.38 1008.73 509.31 1008.73 508.11C1008.73 506.91 1008.48 505.84 1007.98 504.9C1007.48 503.96 1006.78 503.24 1005.88 502.74C1005 502.22 1004 501.96 1002.88 501.96C1001.76 501.96 1000.75 502.22 999.847 502.74C998.967 503.24 998.267 503.96 997.747 504.9C997.247 505.84 996.997 506.91 996.997 508.11C996.997 509.31 997.247 510.38 997.747 511.32C998.267 512.26 998.967 512.99 999.847 513.51C1000.75 514.01 1001.76 514.26 1002.88 514.26ZM1021.69 516.15C1020.17 516.15 1018.8 515.81 1017.58 515.13C1016.36 514.43 1015.4 513.47 1014.7 512.25C1014 511.03 1013.65 509.65 1013.65 508.11C1013.65 506.57 1014 505.19 1014.7 503.97C1015.4 502.75 1016.36 501.8 1017.58 501.12C1018.8 500.44 1020.17 500.1 1021.69 500.1C1023.21 500.1 1024.58 500.44 1025.8 501.12C1027.02 501.8 1027.97 502.75 1028.65 503.97C1029.35 505.19 1029.7 506.57 1029.7 508.11C1029.7 509.65 1029.35 511.03 1028.65 512.25C1027.97 513.47 1027.02 514.43 1025.8 515.13C1024.58 515.81 1023.21 516.15 1021.69 516.15ZM1021.69 514.26C1022.81 514.26 1023.81 514.01 1024.69 513.51C1025.59 512.99 1026.29 512.26 1026.79 511.32C1027.29 510.38 1027.54 509.31 1027.54 508.11C1027.54 506.91 1027.29 505.84 1026.79 504.9C1026.29 503.96 1025.59 503.24 1024.69 502.74C1023.81 502.22 1022.81 501.96 1021.69 501.96C1020.57 501.96 1019.56 502.22 1018.66 502.74C1017.78 503.24 1017.08 503.96 1016.56 504.9C1016.06 505.84 1015.81 506.91 1015.81 508.11C1015.81 509.31 1016.06 510.38 1016.56 511.32C1017.08 512.26 1017.78 512.99 1018.66 513.51C1019.56 514.01 1020.57 514.26 1021.69 514.26ZM1034.04 493.74H1036.17V516H1034.04V493.74ZM1067.95 495V516H1066.12L1052.62 498.96V516H1050.4V495H1052.23L1065.76 512.04V495H1067.95ZM1079.88 500.1C1081.94 500.1 1083.52 500.62 1084.62 501.66C1085.72 502.68 1086.27 504.2 1086.27 506.22V516H1084.23V513.54C1083.75 514.36 1083.04 515 1082.1 515.46C1081.18 515.92 1080.08 516.15 1078.8 516.15C1077.04 516.15 1075.64 515.73 1074.6 514.89C1073.56 514.05 1073.04 512.94 1073.04 511.56C1073.04 510.22 1073.52 509.14 1074.48 508.32C1075.46 507.5 1077.01 507.09 1079.13 507.09H1084.14V506.13C1084.14 504.77 1083.76 503.74 1083 503.04C1082.24 502.32 1081.13 501.96 1079.67 501.96C1078.67 501.96 1077.71 502.13 1076.79 502.47C1075.87 502.79 1075.08 503.24 1074.42 503.82L1073.46 502.23C1074.26 501.55 1075.22 501.03 1076.34 500.67C1077.46 500.29 1078.64 500.1 1079.88 500.1ZM1079.13 514.47C1080.33 514.47 1081.36 514.2 1082.22 513.66C1083.08 513.1 1083.72 512.3 1084.14 511.26V508.68H1079.19C1076.49 508.68 1075.14 509.62 1075.14 511.5C1075.14 512.42 1075.49 513.15 1076.19 513.69C1076.89 514.21 1077.87 514.47 1079.13 514.47ZM1111.73 500.1C1113.71 500.1 1115.26 500.67 1116.38 501.81C1117.52 502.95 1118.09 504.63 1118.09 506.85V516H1115.96V507.06C1115.96 505.42 1115.56 504.17 1114.76 503.31C1113.98 502.45 1112.87 502.02 1111.43 502.02C1109.79 502.02 1108.5 502.53 1107.56 503.55C1106.62 504.55 1106.15 505.94 1106.15 507.72V516H1104.02V507.06C1104.02 505.42 1103.62 504.17 1102.82 503.31C1102.04 502.45 1100.92 502.02 1099.46 502.02C1097.84 502.02 1096.55 502.53 1095.59 503.55C1094.65 504.55 1094.18 505.94 1094.18 507.72V516H1092.05V500.22H1094.09V503.1C1094.65 502.14 1095.43 501.4 1096.43 500.88C1097.43 500.36 1098.58 500.1 1099.88 500.1C1101.2 500.1 1102.34 500.38 1103.3 500.94C1104.28 501.5 1105.01 502.33 1105.49 503.43C1106.07 502.39 1106.9 501.58 1107.98 501C1109.08 500.4 1110.33 500.1 1111.73 500.1ZM1137.67 508.77H1124.47C1124.59 510.41 1125.22 511.74 1126.36 512.76C1127.5 513.76 1128.94 514.26 1130.68 514.26C1131.66 514.26 1132.56 514.09 1133.38 513.75C1134.2 513.39 1134.91 512.87 1135.51 512.19L1136.71 513.57C1136.01 514.41 1135.13 515.05 1134.07 515.49C1133.03 515.93 1131.88 516.15 1130.62 516.15C1129 516.15 1127.56 515.81 1126.3 515.13C1125.06 514.43 1124.09 513.47 1123.39 512.25C1122.69 511.03 1122.34 509.65 1122.34 508.11C1122.34 506.57 1122.67 505.19 1123.33 503.97C1124.01 502.75 1124.93 501.8 1126.09 501.12C1127.27 500.44 1128.59 500.1 1130.05 500.1C1131.51 500.1 1132.82 500.44 1133.98 501.12C1135.14 501.8 1136.05 502.75 1136.71 503.97C1137.37 505.17 1137.7 506.55 1137.7 508.11L1137.67 508.77ZM1130.05 501.93C1128.53 501.93 1127.25 502.42 1126.21 503.4C1125.19 504.36 1124.61 505.62 1124.47 507.18H1135.66C1135.52 505.62 1134.93 504.36 1133.89 503.4C1132.87 502.42 1131.59 501.93 1130.05 501.93Z" fill="white"/>
<defs>
<filter id="filter0_d_13_284" x="98" y="471" width="510" height="86" filterUnits="userSpaceOnUse" color-interpolation-filters="sRGB">
<feFlood flood-opacity="0" result="BackgroundImageFix"/>
<feColorMatrix in="SourceAlpha" type="matrix" values="0 0 0 0 0 0 0 0 0 0 0 0 0 0 0 0 0 0 127 0" result="hardAlpha"/>
<feOffset dx="4" dy="4"/>
<feGaussianBlur stdDeviation="2"/>
<feComposite in2="hardAlpha" operator="out"/>
<feColorMatrix type="matrix" values="0 0 0 0 0 0 0 0 0 0 0 0 0 0 0 0 0 0 0.25 0"/>
<feBlend mode="normal" in2="BackgroundImageFix" result="effect1_dropShadow_13_284"/>
<feBlend mode="normal" in="SourceGraphic" in2="effect1_dropShadow_13_284" result="shape"/>
</filter>
<filter id="filter1_d_13_284" x="816" y="466" width="510" height="86" filterUnits="userSpaceOnUse" color-interpolation-filters="sRGB">
<feFlood flood-opacity="0" result="BackgroundImageFix"/>
<feColorMatrix in="SourceAlpha" type="matrix" values="0 0 0 0 0 0 0 0 0 0 0 0 0 0 0 0 0 0 127 0" result="hardAlpha"/>
<feOffset dx="4" dy="4"/>
<feGaussianBlur stdDeviation="2"/>
<feComposite in2="hardAlpha" operator="out"/>
<feColorMatrix type="matrix" values="0 0 0 0 0 0 0 0 0 0 0 0 0 0 0 0 0 0 0.25 0"/>
<feBlend mode="normal" in2="BackgroundImageFix" result="effect1_dropShadow_13_284"/>
<feBlend mode="normal" in="SourceGraphic" in2="effect1_dropShadow_13_284" result="shape"/>
</filter>
</defs>
</svg>
