<svg width="1440" height="1024" viewBox="0 0 1440 1024" fill="none" xmlns="http://www.w3.org/2000/svg">
<rect width="1440" height="1024" fill="#3D5A80"/>
<path d="M1016 35C993.909 35 976 52.9086 976 75C976 97.0914 993.909 115 1016 115C1038.09 115 1056 97.0914 1056 75C1056 52.9086 1038.09 35 1016 35ZM1024.85 57.9002C1029.61 57.8259 1033.9 60.4099 1035.94 64.8151C1037.83 70.6389 1036.25 76.5635 1032.93 81.0284C1030.73 84.0562 1028.11 86.6673 1025.43 88.9489C1022.96 91.2448 1017.44 95.7883 1015.98 95.9144C1014.68 95.6672 1013.23 94.2025 1012.21 93.4499C1006.44 89.0645 1000.23 83.7337 997.079 77.9027C994.439 72.3047 994.434 65.3785 998.543 61.0867C1003.87 56.2835 1011.9 57.2236 1015.98 62.2417C1017.07 60.822 1018.42 59.7039 1020.01 58.8905C1021.63 58.2445 1023.27 57.925 1024.85 57.9002Z" fill="#98C1D9"/>
<path d="M914.808 59.5001C912.805 54.719 909.89 50.3734 906.228 46.7054C902.576 43.031 898.238 40.1097 893.46 38.1072C888.565 36.0459 883.306 34.9893 877.995 35.0001H877.817C872.415 35.0269 867.192 36.0983 862.272 38.2054C857.535 40.2284 853.238 43.155 849.62 46.8215C845.993 50.4813 843.112 54.8117 841.138 59.5715C839.089 64.5211 838.051 69.8306 838.085 75.1875C838.112 81.384 839.594 87.5357 842.362 93.0357V106.607C842.362 108.875 844.201 110.714 846.46 110.714H860.013C865.539 113.503 871.637 114.97 877.826 115H878.013C883.353 115 888.522 113.964 893.397 111.938C898.151 109.959 902.473 107.072 906.12 103.438C909.799 99.7857 912.692 95.5179 914.719 90.7589C916.817 85.8304 917.888 80.5893 917.915 75.1786C917.933 69.7411 916.879 64.4643 914.808 59.5001ZM860.174 79.2857C857.817 79.2857 855.897 77.3661 855.897 75C855.897 72.634 857.817 70.7143 860.174 70.7143C862.531 70.7143 864.451 72.634 864.451 75C864.451 77.3661 862.54 79.2857 860.174 79.2857ZM877.995 79.2857C875.638 79.2857 873.719 77.3661 873.719 75C873.719 72.634 875.638 70.7143 877.995 70.7143C880.353 70.7143 882.272 72.634 882.272 75C882.272 77.3661 880.353 79.2857 877.995 79.2857ZM895.817 79.2857C893.46 79.2857 891.54 77.3661 891.54 75C891.54 72.634 893.46 70.7143 895.817 70.7143C898.174 70.7143 900.094 72.634 900.094 75C900.094 77.3661 898.174 79.2857 895.817 79.2857Z" fill="#98C1D9"/>
<path fill-rule="evenodd" clip-rule="evenodd" d="M740 35C717.909 35 700 52.9091 700 75C700 97.0909 717.909 115 740 115C762.091 115 780 97.0909 780 75C780 52.9091 762.091 35 740 35ZM743.636 89.5455C743.636 90.5099 743.253 91.4348 742.571 92.1168C741.889 92.7987 740.964 93.1818 740 93.1818C739.036 93.1818 738.111 92.7987 737.429 92.1168C736.747 91.4348 736.364 90.5099 736.364 89.5455V78.6364H725.455C724.49 78.6364 723.565 78.2533 722.883 77.5713C722.201 76.8893 721.818 75.9644 721.818 75C721.818 74.0356 722.201 73.1107 722.883 72.4287C723.565 71.7468 724.49 71.3636 725.455 71.3636H736.364V60.4545C736.364 59.4901 736.747 58.5652 737.429 57.8832C738.111 57.2013 739.036 56.8182 740 56.8182C740.964 56.8182 741.889 57.2013 742.571 57.8832C743.253 58.5652 743.636 59.4901 743.636 60.4545V71.3636H754.545C755.51 71.3636 756.435 71.7468 757.117 72.4287C757.799 73.1107 758.182 74.0356 758.182 75C758.182 75.9644 757.799 76.8893 757.117 77.5713C756.435 78.2533 755.51 78.6364 754.545 78.6364H743.636V89.5455Z" fill="#98C1D9"/>
<path d="M260.196 66.8037C257.705 64.3133 254.326 62.9142 250.804 62.9142C247.281 62.9142 243.902 64.3133 241.411 66.8037L232.015 76.1963C229.524 78.6878 228.124 82.067 228.124 85.5905C228.124 89.114 229.524 92.4932 232.015 94.9847C234.507 97.4762 237.886 98.8759 241.409 98.8759C244.933 98.8759 248.312 97.4762 250.804 94.9847L255.5 90.2884" stroke="white" stroke-width="2" stroke-linecap="round" stroke-linejoin="round"/>
<path d="M250.804 76.1963C253.295 78.6867 256.674 80.0858 260.196 80.0858C263.719 80.0858 267.098 78.6867 269.589 76.1963L278.985 66.8037C281.476 64.3122 282.876 60.933 282.876 57.4095C282.876 53.886 281.476 50.5068 278.985 48.0153C276.493 45.5238 273.114 44.1241 269.591 44.1241C266.067 44.1241 262.688 45.5238 260.196 48.0153L255.5 52.7116" stroke="white" stroke-width="2" stroke-linecap="round" stroke-linejoin="round"/>
<path d="M121.8 89.3C117.267 89.3 113.733 88 111.2 85.4C108.667 82.8 107.4 79.0167 107.4 74.05V54H111.1V73.9C111.1 77.9667 112.017 81 113.85 83C115.683 85 118.333 86 121.8 86C125.3 86 127.967 85 129.8 83C131.633 81 132.55 77.9667 132.55 73.9V54H136.15V74.05C136.15 79.0167 134.883 82.8 132.35 85.4C129.85 88 126.333 89.3 121.8 89.3ZM144.6 73.9H157.7V77H144.6V73.9ZM181.982 89.3C178.515 89.3 175.382 88.5333 172.582 87C169.815 85.4667 167.632 83.35 166.032 80.65C164.465 77.9167 163.682 74.8667 163.682 71.5C163.682 68.1333 164.465 65.1 166.032 62.4C167.632 59.6667 169.832 57.5333 172.632 56C175.432 54.4667 178.565 53.7 182.032 53.7C184.632 53.7 187.032 54.1333 189.232 55C191.432 55.8667 193.299 57.1333 194.832 58.8L192.482 61.15C189.749 58.3833 186.299 57 182.132 57C179.365 57 176.849 57.6333 174.582 58.9C172.315 60.1667 170.532 61.9 169.232 64.1C167.965 66.3 167.332 68.7667 167.332 71.5C167.332 74.2333 167.965 76.7 169.232 78.9C170.532 81.1 172.315 82.8333 174.582 84.1C176.849 85.3667 179.365 86 182.132 86C186.332 86 189.782 84.6 192.482 81.8L194.832 84.15C193.299 85.8167 191.415 87.1 189.182 88C186.982 88.8667 184.582 89.3 181.982 89.3ZM211.548 89.25C209.014 89.25 206.731 88.6833 204.698 87.55C202.664 86.3833 201.064 84.7833 199.898 82.75C198.731 80.7167 198.148 78.4167 198.148 75.85C198.148 73.2833 198.731 70.9833 199.898 68.95C201.064 66.9167 202.664 65.3333 204.698 64.2C206.731 63.0667 209.014 62.5 211.548 62.5C214.081 62.5 216.364 63.0667 218.398 64.2C220.431 65.3333 222.014 66.9167 223.148 68.95C224.314 70.9833 224.898 73.2833 224.898 75.85C224.898 78.4167 224.314 80.7167 223.148 82.75C222.014 84.7833 220.431 86.3833 218.398 87.55C216.364 88.6833 214.081 89.25 211.548 89.25ZM211.548 86.1C213.414 86.1 215.081 85.6833 216.548 84.85C218.048 83.9833 219.214 82.7667 220.048 81.2C220.881 79.6333 221.298 77.85 221.298 75.85C221.298 73.85 220.881 72.0667 220.048 70.5C219.214 68.9333 218.048 67.7333 216.548 66.9C215.081 66.0333 213.414 65.6 211.548 65.6C209.681 65.6 207.998 66.0333 206.498 66.9C205.031 67.7333 203.864 68.9333 202.998 70.5C202.164 72.0667 201.748 73.85 201.748 75.85C201.748 77.85 202.164 79.6333 202.998 81.2C203.864 82.7667 205.031 83.9833 206.498 84.85C207.998 85.6833 209.681 86.1 211.548 86.1ZM307.389 76.95H285.389C285.589 79.6833 286.639 81.9 288.539 83.6C290.439 85.2667 292.839 86.1 295.739 86.1C297.372 86.1 298.872 85.8167 300.239 85.25C301.606 84.65 302.789 83.7833 303.789 82.65L305.789 84.95C304.622 86.35 303.156 87.4167 301.389 88.15C299.656 88.8833 297.739 89.25 295.639 89.25C292.939 89.25 290.539 88.6833 288.439 87.55C286.372 86.3833 284.756 84.7833 283.589 82.75C282.422 80.7167 281.839 78.4167 281.839 75.85C281.839 73.2833 282.389 70.9833 283.489 68.95C284.622 66.9167 286.156 65.3333 288.089 64.2C290.056 63.0667 292.256 62.5 294.689 62.5C297.122 62.5 299.306 63.0667 301.239 64.2C303.172 65.3333 304.689 66.9167 305.789 68.95C306.889 70.95 307.439 73.25 307.439 75.85L307.389 76.95ZM294.689 65.55C292.156 65.55 290.022 66.3667 288.289 68C286.589 69.6 285.622 71.7 285.389 74.3H304.039C303.806 71.7 302.822 69.6 301.089 68C299.389 66.3667 297.256 65.55 294.689 65.55ZM325.565 89.25C322.965 89.25 320.632 88.6833 318.565 87.55C316.532 86.4167 314.932 84.8333 313.765 82.8C312.598 80.7333 312.015 78.4167 312.015 75.85C312.015 73.2833 312.598 70.9833 313.765 68.95C314.932 66.9167 316.532 65.3333 318.565 64.2C320.632 63.0667 322.965 62.5 325.565 62.5C327.832 62.5 329.848 62.95 331.615 63.85C333.415 64.7167 334.832 66 335.865 67.7L333.215 69.5C332.348 68.2 331.248 67.2333 329.915 66.6C328.582 65.9333 327.132 65.6 325.565 65.6C323.665 65.6 321.948 66.0333 320.415 66.9C318.915 67.7333 317.732 68.9333 316.865 70.5C316.032 72.0667 315.615 73.85 315.615 75.85C315.615 77.8833 316.032 79.6833 316.865 81.25C317.732 82.7833 318.915 83.9833 320.415 84.85C321.948 85.6833 323.665 86.1 325.565 86.1C327.132 86.1 328.582 85.7833 329.915 85.15C331.248 84.5167 332.348 83.55 333.215 82.25L335.865 84.05C334.832 85.75 333.415 87.05 331.615 87.95C329.815 88.8167 327.798 89.25 325.565 89.25ZM356.982 87.4C356.315 88 355.482 88.4667 354.482 88.8C353.515 89.1 352.498 89.25 351.432 89.25C348.965 89.25 347.065 88.5833 345.732 87.25C344.398 85.9167 343.732 84.0333 343.732 81.6V65.7H339.032V62.7H343.732V56.95H347.282V62.7H355.282V65.7H347.282V81.4C347.282 82.9667 347.665 84.1667 348.432 85C349.232 85.8 350.365 86.2 351.832 86.2C352.565 86.2 353.265 86.0833 353.932 85.85C354.632 85.6167 355.232 85.2833 355.732 84.85L356.982 87.4Z" fill="white"/>
<circle cx="601.5" cy="72.5" r="40.5" fill="#98C1D9"/>
<path d="M591.32 64.65L593.376 51H582.68L578.211 62.7C578.073 63.116 578 63.5476 578 64C578 66.8704 580.99 69.2 584.685 69.2C588.091 69.2 590.906 67.2136 591.32 64.65ZM601.4 69.2C605.092 69.2 608.085 66.8704 608.085 64C608.085 63.8934 608.077 63.7868 608.072 63.6854L606.748 51H596.052L594.726 63.675C594.721 63.7816 594.715 63.8882 594.715 64C594.715 66.8704 597.708 69.2 601.4 69.2ZM614.4 71.9196V82.2H588.4V71.9352C587.261 72.346 586.008 72.58 584.685 72.58C584.178 72.58 583.686 72.5202 583.2 72.4526V88.96C583.2 90.962 584.835 92.6 586.835 92.6H615.96C617.962 92.6 619.6 90.9594 619.6 88.96V72.4552C619.109 72.5307 618.613 72.5732 618.115 72.5826C616.848 72.5813 615.59 72.3569 614.4 71.9196ZM624.592 62.7L620.117 51H609.424L611.478 64.6292C611.878 67.2032 614.694 69.2 618.115 69.2C621.807 69.2 624.8 66.8704 624.8 64C624.8 63.5476 624.727 63.116 624.592 62.7Z" fill="#3D5A80"/>
<path d="M1328.74 100.514C1332.84 95.5775 1335.69 89.7256 1337.06 83.4532C1338.42 77.1809 1338.25 70.6725 1336.57 64.4788C1334.88 58.285 1331.73 52.5881 1327.38 47.8699C1323.03 43.1517 1317.6 39.551 1311.57 37.3724C1305.53 35.1939 1299.05 34.5016 1292.69 35.3541C1286.33 36.2065 1280.27 38.5787 1275.02 42.27C1269.77 45.9612 1265.48 50.8629 1262.52 56.5604C1259.57 62.2578 1258.03 68.5835 1258.03 75.0022C1258.04 84.3332 1261.32 93.3653 1267.32 100.514L1267.26 100.562C1267.46 100.802 1267.69 101.008 1267.9 101.245C1268.16 101.539 1268.43 101.816 1268.7 102.102C1269.5 102.971 1270.32 103.805 1271.18 104.588C1271.45 104.828 1271.72 105.05 1271.98 105.279C1272.9 106.067 1273.84 106.816 1274.81 107.513C1274.94 107.599 1275.05 107.71 1275.18 107.799V107.764C1281.87 112.473 1289.85 115 1298.03 115C1306.21 115 1314.2 112.473 1320.89 107.764V107.799C1321.01 107.71 1321.12 107.599 1321.25 107.513C1322.22 106.813 1323.17 106.067 1324.08 105.279C1324.35 105.05 1324.62 104.825 1324.88 104.588C1325.74 103.802 1326.57 102.971 1327.37 102.102C1327.63 101.816 1327.91 101.539 1328.17 101.245C1328.37 101.008 1328.6 100.802 1328.8 100.559L1328.74 100.514ZM1298.03 52.1475C1300.57 52.1475 1303.06 52.9015 1305.17 54.3141C1307.29 55.7267 1308.93 57.7345 1309.91 60.0836C1310.88 62.4327 1311.13 65.0175 1310.64 67.5113C1310.14 70.0051 1308.92 72.2957 1307.12 74.0937C1305.32 75.8916 1303.03 77.116 1300.54 77.612C1298.04 78.1081 1295.46 77.8535 1293.11 76.8804C1290.76 75.9074 1288.75 74.2597 1287.34 72.1455C1285.93 70.0314 1285.17 67.5459 1285.17 65.0033C1285.17 61.5937 1286.53 58.3238 1288.94 55.9129C1291.35 53.5019 1294.62 52.1475 1298.03 52.1475ZM1275.19 100.514C1275.24 96.7626 1276.77 93.1819 1279.44 90.5461C1282.11 87.9103 1285.71 86.4315 1289.46 86.4296H1306.6C1310.35 86.4315 1313.95 87.9103 1316.62 90.5461C1319.29 93.1819 1320.81 96.7626 1320.86 100.514C1314.6 106.16 1306.46 109.284 1298.03 109.284C1289.59 109.284 1281.46 106.16 1275.19 100.514Z" fill="#98C1D9"/>
<line x1="102" y1="229.5" x2="1338" y2="229.5" stroke="#293241"/>
<path d="M117.84 201.24C114.213 201.24 111.387 200.2 109.36 198.12C107.333 196.04 106.32 193.013 106.32 189.04V173H109.28V188.92C109.28 192.173 110.013 194.6 111.48 196.2C112.947 197.8 115.067 198.6 117.84 198.6C120.64 198.6 122.773 197.8 124.24 196.2C125.707 194.6 126.44 192.173 126.44 188.92V173H129.32V189.04C129.32 193.013 128.307 196.04 126.28 198.12C124.28 200.2 121.467 201.24 117.84 201.24ZM148.48 179.8C150.453 179.8 152.24 180.253 153.84 181.16C155.44 182.04 156.693 183.293 157.6 184.92C158.506 186.547 158.96 188.4 158.96 190.48C158.96 192.587 158.506 194.453 157.6 196.08C156.693 197.707 155.44 198.973 153.84 199.88C152.266 200.76 150.48 201.2 148.48 201.2C146.773 201.2 145.226 200.853 143.84 200.16C142.48 199.44 141.36 198.4 140.48 197.04V208.76H137.64V179.96H140.36V184.12C141.213 182.733 142.333 181.667 143.72 180.92C145.133 180.173 146.72 179.8 148.48 179.8ZM148.28 198.68C149.746 198.68 151.08 198.347 152.28 197.68C153.48 196.987 154.413 196.013 155.08 194.76C155.773 193.507 156.12 192.08 156.12 190.48C156.12 188.88 155.773 187.467 155.08 186.24C154.413 184.987 153.48 184.013 152.28 183.32C151.08 182.627 149.746 182.28 148.28 182.28C146.786 182.28 145.44 182.627 144.24 183.32C143.066 184.013 142.133 184.987 141.44 186.24C140.773 187.467 140.44 188.88 140.44 190.48C140.44 192.08 140.773 193.507 141.44 194.76C142.133 196.013 143.066 196.987 144.24 197.68C145.44 198.347 146.786 198.68 148.28 198.68ZM164.749 171.32H167.589V201H164.749V171.32ZM184.091 201.2C182.065 201.2 180.238 200.747 178.611 199.84C176.985 198.907 175.705 197.627 174.771 196C173.838 194.373 173.371 192.533 173.371 190.48C173.371 188.427 173.838 186.587 174.771 184.96C175.705 183.333 176.985 182.067 178.611 181.16C180.238 180.253 182.065 179.8 184.091 179.8C186.118 179.8 187.945 180.253 189.571 181.16C191.198 182.067 192.465 183.333 193.371 184.96C194.305 186.587 194.771 188.427 194.771 190.48C194.771 192.533 194.305 194.373 193.371 196C192.465 197.627 191.198 198.907 189.571 199.84C187.945 200.747 186.118 201.2 184.091 201.2ZM184.091 198.68C185.585 198.68 186.918 198.347 188.091 197.68C189.291 196.987 190.225 196.013 190.891 194.76C191.558 193.507 191.891 192.08 191.891 190.48C191.891 188.88 191.558 187.453 190.891 186.2C190.225 184.947 189.291 183.987 188.091 183.32C186.918 182.627 185.585 182.28 184.091 182.28C182.598 182.28 181.251 182.627 180.051 183.32C178.878 183.987 177.945 184.947 177.251 186.2C176.585 187.453 176.251 188.88 176.251 190.48C176.251 192.08 176.585 193.507 177.251 194.76C177.945 196.013 178.878 196.987 180.051 197.68C181.251 198.347 182.598 198.68 184.091 198.68ZM207.812 179.8C210.559 179.8 212.666 180.493 214.132 181.88C215.599 183.24 216.332 185.267 216.332 187.96V201H213.612V197.72C212.972 198.813 212.026 199.667 210.772 200.28C209.546 200.893 208.079 201.2 206.372 201.2C204.026 201.2 202.159 200.64 200.772 199.52C199.386 198.4 198.692 196.92 198.692 195.08C198.692 193.293 199.332 191.853 200.612 190.76C201.919 189.667 203.986 189.12 206.812 189.12H213.492V187.84C213.492 186.027 212.986 184.653 211.972 183.72C210.959 182.76 209.479 182.28 207.532 182.28C206.199 182.28 204.919 182.507 203.692 182.96C202.466 183.387 201.412 183.987 200.532 184.76L199.252 182.64C200.319 181.733 201.599 181.04 203.092 180.56C204.586 180.053 206.159 179.8 207.812 179.8ZM206.812 198.96C208.412 198.96 209.786 198.6 210.932 197.88C212.079 197.133 212.932 196.067 213.492 194.68V191.24H206.892C203.292 191.24 201.492 192.493 201.492 195C201.492 196.227 201.959 197.2 202.892 197.92C203.826 198.613 205.132 198.96 206.812 198.96ZM243.324 171.32V201H240.604V196.84C239.751 198.253 238.617 199.333 237.204 200.08C235.817 200.827 234.244 201.2 232.484 201.2C230.511 201.2 228.724 200.747 227.124 199.84C225.524 198.933 224.271 197.667 223.364 196.04C222.457 194.413 222.004 192.56 222.004 190.48C222.004 188.4 222.457 186.547 223.364 184.92C224.271 183.293 225.524 182.04 227.124 181.16C228.724 180.253 230.511 179.8 232.484 179.8C234.191 179.8 235.724 180.16 237.084 180.88C238.471 181.573 239.604 182.6 240.484 183.96V171.32H243.324ZM232.724 198.68C234.191 198.68 235.511 198.347 236.684 197.68C237.884 196.987 238.817 196.013 239.484 194.76C240.177 193.507 240.524 192.08 240.524 190.48C240.524 188.88 240.177 187.453 239.484 186.2C238.817 184.947 237.884 183.987 236.684 183.32C235.511 182.627 234.191 182.28 232.724 182.28C231.231 182.28 229.884 182.627 228.684 183.32C227.511 183.987 226.577 184.947 225.884 186.2C225.217 187.453 224.884 188.88 224.884 190.48C224.884 192.08 225.217 193.507 225.884 194.76C226.577 196.013 227.511 196.987 228.684 197.68C229.884 198.347 231.231 198.68 232.724 198.68ZM262.302 173H265.262V198.44H280.942V201H262.302V173ZM285.257 179.96H288.097V201H285.257V179.96ZM286.697 175.36C286.11 175.36 285.617 175.16 285.217 174.76C284.817 174.36 284.617 173.88 284.617 173.32C284.617 172.787 284.817 172.32 285.217 171.92C285.617 171.52 286.11 171.32 286.697 171.32C287.284 171.32 287.777 171.52 288.177 171.92C288.577 172.293 288.777 172.747 288.777 173.28C288.777 173.867 288.577 174.36 288.177 174.76C287.777 175.16 287.284 175.36 286.697 175.36ZM301.639 201.2C299.932 201.2 298.292 200.96 296.719 200.48C295.172 199.973 293.959 199.347 293.079 198.6L294.359 196.36C295.239 197.053 296.346 197.627 297.679 198.08C299.012 198.507 300.399 198.72 301.839 198.72C303.759 198.72 305.172 198.427 306.079 197.84C307.012 197.227 307.479 196.373 307.479 195.28C307.479 194.507 307.226 193.907 306.719 193.48C306.212 193.027 305.572 192.693 304.799 192.48C304.026 192.24 302.999 192.013 301.719 191.8C300.012 191.48 298.639 191.16 297.599 190.84C296.559 190.493 295.666 189.92 294.919 189.12C294.199 188.32 293.839 187.213 293.839 185.8C293.839 184.04 294.572 182.6 296.039 181.48C297.506 180.36 299.546 179.8 302.159 179.8C303.519 179.8 304.879 179.987 306.239 180.36C307.599 180.707 308.719 181.173 309.599 181.76L308.359 184.04C306.626 182.84 304.559 182.24 302.159 182.24C300.346 182.24 298.972 182.56 298.039 183.2C297.132 183.84 296.679 184.68 296.679 185.72C296.679 186.52 296.932 187.16 297.439 187.64C297.972 188.12 298.626 188.48 299.399 188.72C300.172 188.933 301.239 189.16 302.599 189.4C304.279 189.72 305.626 190.04 306.639 190.36C307.652 190.68 308.519 191.227 309.239 192C309.959 192.773 310.319 193.84 310.319 195.2C310.319 197.04 309.546 198.507 307.999 199.6C306.479 200.667 304.359 201.2 301.639 201.2ZM326.649 199.72C326.116 200.2 325.449 200.573 324.649 200.84C323.876 201.08 323.063 201.2 322.209 201.2C320.236 201.2 318.716 200.667 317.649 199.6C316.583 198.533 316.049 197.027 316.049 195.08V182.36H312.289V179.96H316.049V175.36H318.889V179.96H325.289V182.36H318.889V194.92C318.889 196.173 319.196 197.133 319.809 197.8C320.449 198.44 321.356 198.76 322.529 198.76C323.116 198.76 323.676 198.667 324.209 198.48C324.769 198.293 325.249 198.027 325.649 197.68L326.649 199.72ZM331.819 179.96H334.659V201H331.819V179.96ZM333.259 175.36C332.673 175.36 332.179 175.16 331.779 174.76C331.379 174.36 331.179 173.88 331.179 173.32C331.179 172.787 331.379 172.32 331.779 171.92C332.179 171.52 332.673 171.32 333.259 171.32C333.846 171.32 334.339 171.52 334.739 171.92C335.139 172.293 335.339 172.747 335.339 173.28C335.339 173.867 335.139 174.36 334.739 174.76C334.339 175.16 333.846 175.36 333.259 175.36ZM353.282 179.8C355.922 179.8 358.015 180.573 359.562 182.12C361.135 183.64 361.922 185.867 361.922 188.8V201H359.082V189.08C359.082 186.893 358.535 185.227 357.442 184.08C356.348 182.933 354.788 182.36 352.762 182.36C350.495 182.36 348.695 183.04 347.362 184.4C346.055 185.733 345.402 187.587 345.402 189.96V201H342.562V179.96H345.282V183.84C346.055 182.56 347.122 181.573 348.482 180.88C349.868 180.16 351.468 179.8 353.282 179.8ZM389.19 179.96V198.44C389.19 202.013 388.31 204.653 386.55 206.36C384.817 208.093 382.19 208.96 378.67 208.96C376.723 208.96 374.87 208.667 373.11 208.08C371.377 207.52 369.963 206.733 368.87 205.72L370.31 203.56C371.323 204.467 372.55 205.173 373.99 205.68C375.457 206.187 376.99 206.44 378.59 206.44C381.257 206.44 383.217 205.813 384.47 204.56C385.723 203.333 386.35 201.413 386.35 198.8V196.12C385.47 197.453 384.31 198.467 382.87 199.16C381.457 199.853 379.883 200.2 378.15 200.2C376.177 200.2 374.377 199.773 372.75 198.92C371.15 198.04 369.883 196.827 368.95 195.28C368.043 193.707 367.59 191.933 367.59 189.96C367.59 187.987 368.043 186.227 368.95 184.68C369.883 183.133 371.15 181.933 372.75 181.08C374.35 180.227 376.15 179.8 378.15 179.8C379.937 179.8 381.55 180.16 382.99 180.88C384.43 181.6 385.59 182.64 386.47 184V179.96H389.19ZM378.43 197.68C379.95 197.68 381.323 197.36 382.55 196.72C383.777 196.053 384.723 195.133 385.39 193.96C386.083 192.787 386.43 191.453 386.43 189.96C386.43 188.467 386.083 187.147 385.39 186C384.723 184.827 383.777 183.92 382.55 183.28C381.35 182.613 379.977 182.28 378.43 182.28C376.91 182.28 375.537 182.6 374.31 183.24C373.11 183.88 372.163 184.787 371.47 185.96C370.803 187.133 370.47 188.467 370.47 189.96C370.47 191.453 370.803 192.787 371.47 193.96C372.163 195.133 373.11 196.053 374.31 196.72C375.537 197.36 376.91 197.68 378.43 197.68Z" fill="#293241"/>
<g filter="url(#filter0_d_13_287)">
<rect x="219" y="262" width="993" height="78" rx="20" fill="#3D5A80"/>
<rect x="219.5" y="262.5" width="992" height="77" rx="19.5" stroke="#293241" stroke-opacity="0.2"/>
</g>
<path d="M246.42 291H248.64V310.08H260.4V312H246.42V291ZM263.636 296.22H265.766V312H263.636V296.22ZM264.716 292.77C264.276 292.77 263.906 292.62 263.606 292.32C263.306 292.02 263.156 291.66 263.156 291.24C263.156 290.84 263.306 290.49 263.606 290.19C263.906 289.89 264.276 289.74 264.716 289.74C265.156 289.74 265.526 289.89 265.826 290.19C266.126 290.47 266.276 290.81 266.276 291.21C266.276 291.65 266.126 292.02 265.826 292.32C265.526 292.62 265.156 292.77 264.716 292.77ZM275.923 312.15C274.643 312.15 273.413 311.97 272.233 311.61C271.073 311.23 270.163 310.76 269.503 310.2L270.463 308.52C271.123 309.04 271.953 309.47 272.953 309.81C273.953 310.13 274.993 310.29 276.073 310.29C277.513 310.29 278.573 310.07 279.253 309.63C279.953 309.17 280.303 308.53 280.303 307.71C280.303 307.13 280.113 306.68 279.733 306.36C279.353 306.02 278.873 305.77 278.293 305.61C277.713 305.43 276.943 305.26 275.983 305.1C274.703 304.86 273.673 304.62 272.893 304.38C272.113 304.12 271.443 303.69 270.883 303.09C270.343 302.49 270.073 301.66 270.073 300.6C270.073 299.28 270.623 298.2 271.723 297.36C272.823 296.52 274.353 296.1 276.313 296.1C277.333 296.1 278.353 296.24 279.373 296.52C280.393 296.78 281.233 297.13 281.893 297.57L280.963 299.28C279.663 298.38 278.113 297.93 276.313 297.93C274.953 297.93 273.923 298.17 273.223 298.65C272.543 299.13 272.203 299.76 272.203 300.54C272.203 301.14 272.393 301.62 272.773 301.98C273.173 302.34 273.663 302.61 274.243 302.79C274.823 302.95 275.623 303.12 276.643 303.3C277.903 303.54 278.913 303.78 279.673 304.02C280.433 304.26 281.083 304.67 281.623 305.25C282.163 305.83 282.433 306.63 282.433 307.65C282.433 309.03 281.853 310.13 280.693 310.95C279.553 311.75 277.963 312.15 275.923 312.15ZM294.68 311.04C294.28 311.4 293.78 311.68 293.18 311.88C292.6 312.06 291.99 312.15 291.35 312.15C289.87 312.15 288.73 311.75 287.93 310.95C287.13 310.15 286.73 309.02 286.73 307.56V298.02H283.91V296.22H286.73V292.77H288.86V296.22H293.66V298.02H288.86V307.44C288.86 308.38 289.09 309.1 289.55 309.6C290.03 310.08 290.71 310.32 291.59 310.32C292.03 310.32 292.45 310.25 292.85 310.11C293.27 309.97 293.63 309.77 293.93 309.51L294.68 311.04ZM298.558 296.22H300.688V312H298.558V296.22ZM299.638 292.77C299.198 292.77 298.828 292.62 298.528 292.32C298.228 292.02 298.078 291.66 298.078 291.24C298.078 290.84 298.228 290.49 298.528 290.19C298.828 289.89 299.198 289.74 299.638 289.74C300.078 289.74 300.448 289.89 300.748 290.19C301.048 290.47 301.198 290.81 301.198 291.21C301.198 291.65 301.048 292.02 300.748 292.32C300.448 292.62 300.078 292.77 299.638 292.77ZM314.655 296.1C316.635 296.1 318.205 296.68 319.365 297.84C320.545 298.98 321.135 300.65 321.135 302.85V312H319.005V303.06C319.005 301.42 318.595 300.17 317.775 299.31C316.955 298.45 315.785 298.02 314.265 298.02C312.565 298.02 311.215 298.53 310.215 299.55C309.235 300.55 308.745 301.94 308.745 303.72V312H306.615V296.22H308.655V299.13C309.235 298.17 310.035 297.43 311.055 296.91C312.095 296.37 313.295 296.1 314.655 296.1ZM341.586 296.22V310.08C341.586 312.76 340.926 314.74 339.606 316.02C338.306 317.32 336.336 317.97 333.696 317.97C332.236 317.97 330.846 317.75 329.526 317.31C328.226 316.89 327.166 316.3 326.346 315.54L327.426 313.92C328.186 314.6 329.106 315.13 330.186 315.51C331.286 315.89 332.436 316.08 333.636 316.08C335.636 316.08 337.106 315.61 338.046 314.67C338.986 313.75 339.456 312.31 339.456 310.35V308.34C338.796 309.34 337.926 310.1 336.846 310.62C335.786 311.14 334.606 311.4 333.306 311.4C331.826 311.4 330.476 311.08 329.256 310.44C328.056 309.78 327.106 308.87 326.406 307.71C325.726 306.53 325.386 305.2 325.386 303.72C325.386 302.24 325.726 300.92 326.406 299.76C327.106 298.6 328.056 297.7 329.256 297.06C330.456 296.42 331.806 296.1 333.306 296.1C334.646 296.1 335.856 296.37 336.936 296.91C338.016 297.45 338.886 298.23 339.546 299.25V296.22H341.586ZM333.516 309.51C334.656 309.51 335.686 309.27 336.606 308.79C337.526 308.29 338.236 307.6 338.736 306.72C339.256 305.84 339.516 304.84 339.516 303.72C339.516 302.6 339.256 301.61 338.736 300.75C338.236 299.87 337.526 299.19 336.606 298.71C335.706 298.21 334.676 297.96 333.516 297.96C332.376 297.96 331.346 298.2 330.426 298.68C329.526 299.16 328.816 299.84 328.296 300.72C327.796 301.6 327.546 302.6 327.546 303.72C327.546 304.84 327.796 305.84 328.296 306.72C328.816 307.6 329.526 308.29 330.426 308.79C331.346 309.27 332.376 309.51 333.516 309.51ZM359.924 292.92H352.544V291H369.524V292.92H362.144V312H359.924V292.92ZM372.21 296.22H374.34V312H372.21V296.22ZM373.29 292.77C372.85 292.77 372.48 292.62 372.18 292.32C371.88 292.02 371.73 291.66 371.73 291.24C371.73 290.84 371.88 290.49 372.18 290.19C372.48 289.89 372.85 289.74 373.29 289.74C373.73 289.74 374.1 289.89 374.4 290.19C374.7 290.47 374.85 290.81 374.85 291.21C374.85 291.65 374.7 292.02 374.4 292.32C374.1 292.62 373.73 292.77 373.29 292.77ZM388.577 311.04C388.177 311.4 387.677 311.68 387.077 311.88C386.497 312.06 385.887 312.15 385.247 312.15C383.767 312.15 382.627 311.75 381.827 310.95C381.027 310.15 380.627 309.02 380.627 307.56V298.02H377.807V296.22H380.627V292.77H382.757V296.22H387.557V298.02H382.757V307.44C382.757 308.38 382.987 309.1 383.447 309.6C383.927 310.08 384.607 310.32 385.487 310.32C385.927 310.32 386.347 310.25 386.747 310.11C387.167 309.97 387.527 309.77 387.827 309.51L388.577 311.04ZM392.454 289.74H394.584V312H392.454V289.74ZM414.251 304.77H401.051C401.171 306.41 401.801 307.74 402.941 308.76C404.081 309.76 405.521 310.26 407.261 310.26C408.241 310.26 409.141 310.09 409.961 309.75C410.781 309.39 411.491 308.87 412.091 308.19L413.291 309.57C412.591 310.41 411.711 311.05 410.651 311.49C409.611 311.93 408.461 312.15 407.201 312.15C405.581 312.15 404.141 311.81 402.881 311.13C401.641 310.43 400.671 309.47 399.971 308.25C399.271 307.03 398.921 305.65 398.921 304.11C398.921 302.57 399.251 301.19 399.911 299.97C400.591 298.75 401.511 297.8 402.671 297.12C403.851 296.44 405.171 296.1 406.631 296.1C408.091 296.1 409.401 296.44 410.561 297.12C411.721 297.8 412.631 298.75 413.291 299.97C413.951 301.17 414.281 302.55 414.281 304.11L414.251 304.77ZM406.631 297.93C405.111 297.93 403.831 298.42 402.791 299.4C401.771 300.36 401.191 301.62 401.051 303.18H412.241C412.101 301.62 411.511 300.36 410.471 299.4C409.451 298.42 408.171 297.93 406.631 297.93ZM422.261 295.17L425.981 297.27L425.291 298.53L421.541 296.34V300.6H420.161L420.191 296.34L416.441 298.53L415.721 297.27L419.471 295.17L415.721 293.07L416.441 291.78L420.191 294L420.161 289.74H421.541V294L425.291 291.78L425.981 293.07L422.261 295.17Z" fill="white"/>
<g filter="url(#filter1_d_13_287)">
<rect x="219" y="571" width="993" height="78" rx="20" fill="#3D5A80"/>
<rect x="219.5" y="571.5" width="992" height="77" rx="19.5" stroke="#293241" stroke-opacity="0.2"/>
</g>
<path d="M255.54 621.18C253.46 621.18 251.58 620.72 249.9 619.8C248.24 618.88 246.93 617.61 245.97 615.99C245.03 614.35 244.56 612.52 244.56 610.5C244.56 608.48 245.03 606.66 245.97 605.04C246.93 603.4 248.25 602.12 249.93 601.2C251.61 600.28 253.49 599.82 255.57 599.82C257.13 599.82 258.57 600.08 259.89 600.6C261.21 601.12 262.33 601.88 263.25 602.88L261.84 604.29C260.2 602.63 258.13 601.8 255.63 601.8C253.97 601.8 252.46 602.18 251.1 602.94C249.74 603.7 248.67 604.74 247.89 606.06C247.13 607.38 246.75 608.86 246.75 610.5C246.75 612.14 247.13 613.62 247.89 614.94C248.67 616.26 249.74 617.3 251.1 618.06C252.46 618.82 253.97 619.2 255.63 619.2C258.15 619.2 260.22 618.36 261.84 616.68L263.25 618.09C262.33 619.09 261.2 619.86 259.86 620.4C258.54 620.92 257.1 621.18 255.54 621.18ZM273.279 621.15C271.759 621.15 270.389 620.81 269.169 620.13C267.949 619.43 266.989 618.47 266.289 617.25C265.589 616.03 265.239 614.65 265.239 613.11C265.239 611.57 265.589 610.19 266.289 608.97C266.989 607.75 267.949 606.8 269.169 606.12C270.389 605.44 271.759 605.1 273.279 605.1C274.799 605.1 276.169 605.44 277.389 606.12C278.609 606.8 279.559 607.75 280.239 608.97C280.939 610.19 281.289 611.57 281.289 613.11C281.289 614.65 280.939 616.03 280.239 617.25C279.559 618.47 278.609 619.43 277.389 620.13C276.169 620.81 274.799 621.15 273.279 621.15ZM273.279 619.26C274.399 619.26 275.399 619.01 276.279 618.51C277.179 617.99 277.879 617.26 278.379 616.32C278.879 615.38 279.129 614.31 279.129 613.11C279.129 611.91 278.879 610.84 278.379 609.9C277.879 608.96 277.179 608.24 276.279 607.74C275.399 607.22 274.399 606.96 273.279 606.96C272.159 606.96 271.149 607.22 270.249 607.74C269.369 608.24 268.669 608.96 268.149 609.9C267.649 610.84 267.399 611.91 267.399 613.11C267.399 614.31 267.649 615.38 268.149 616.32C268.669 617.26 269.369 617.99 270.249 618.51C271.149 619.01 272.159 619.26 273.279 619.26ZM293.678 605.1C295.658 605.1 297.228 605.68 298.388 606.84C299.568 607.98 300.158 609.65 300.158 611.85V621H298.028V612.06C298.028 610.42 297.618 609.17 296.798 608.31C295.978 607.45 294.808 607.02 293.288 607.02C291.588 607.02 290.238 607.53 289.238 608.55C288.258 609.55 287.768 610.94 287.768 612.72V621H285.638V605.22H287.678V608.13C288.258 607.17 289.058 606.43 290.078 605.91C291.118 605.37 292.318 605.1 293.678 605.1ZM320.399 598.74V621H318.359V617.88C317.719 618.94 316.869 619.75 315.809 620.31C314.769 620.87 313.589 621.15 312.269 621.15C310.789 621.15 309.449 620.81 308.249 620.13C307.049 619.45 306.109 618.5 305.429 617.28C304.749 616.06 304.409 614.67 304.409 613.11C304.409 611.55 304.749 610.16 305.429 608.94C306.109 607.72 307.049 606.78 308.249 606.12C309.449 605.44 310.789 605.1 312.269 605.1C313.549 605.1 314.699 605.37 315.719 605.91C316.759 606.43 317.609 607.2 318.269 608.22V598.74H320.399ZM312.449 619.26C313.549 619.26 314.539 619.01 315.419 618.51C316.319 617.99 317.019 617.26 317.519 616.32C318.039 615.38 318.299 614.31 318.299 613.11C318.299 611.91 318.039 610.84 317.519 609.9C317.019 608.96 316.319 608.24 315.419 607.74C314.539 607.22 313.549 606.96 312.449 606.96C311.329 606.96 310.319 607.22 309.419 607.74C308.539 608.24 307.839 608.96 307.319 609.9C306.819 610.84 306.569 611.91 306.569 613.11C306.569 614.31 306.819 615.38 307.319 616.32C307.839 617.26 308.539 617.99 309.419 618.51C310.319 619.01 311.329 619.26 312.449 619.26ZM326.331 605.22H328.461V621H326.331V605.22ZM327.411 601.77C326.971 601.77 326.601 601.62 326.301 601.32C326.001 601.02 325.851 600.66 325.851 600.24C325.851 599.84 326.001 599.49 326.301 599.19C326.601 598.89 326.971 598.74 327.411 598.74C327.851 598.74 328.221 598.89 328.521 599.19C328.821 599.47 328.971 599.81 328.971 600.21C328.971 600.65 328.821 601.02 328.521 601.32C328.221 601.62 327.851 601.77 327.411 601.77ZM342.698 620.04C342.298 620.4 341.798 620.68 341.198 620.88C340.618 621.06 340.008 621.15 339.368 621.15C337.888 621.15 336.748 620.75 335.948 619.95C335.148 619.15 334.748 618.02 334.748 616.56V607.02H331.928V605.22H334.748V601.77H336.878V605.22H341.678V607.02H336.878V616.44C336.878 617.38 337.108 618.1 337.568 618.6C338.048 619.08 338.728 619.32 339.608 619.32C340.048 619.32 340.468 619.25 340.868 619.11C341.288 618.97 341.648 618.77 341.948 618.51L342.698 620.04ZM346.575 605.22H348.705V621H346.575V605.22ZM347.655 601.77C347.215 601.77 346.845 601.62 346.545 601.32C346.245 601.02 346.095 600.66 346.095 600.24C346.095 599.84 346.245 599.49 346.545 599.19C346.845 598.89 347.215 598.74 347.655 598.74C348.095 598.74 348.465 598.89 348.765 599.19C349.065 599.47 349.215 599.81 349.215 600.21C349.215 600.65 349.065 601.02 348.765 601.32C348.465 601.62 348.095 601.77 347.655 601.77ZM361.082 621.15C359.562 621.15 358.192 620.81 356.972 620.13C355.752 619.43 354.792 618.47 354.092 617.25C353.392 616.03 353.042 614.65 353.042 613.11C353.042 611.57 353.392 610.19 354.092 608.97C354.792 607.75 355.752 606.8 356.972 606.12C358.192 605.44 359.562 605.1 361.082 605.1C362.602 605.1 363.972 605.44 365.192 606.12C366.412 606.8 367.362 607.75 368.042 608.97C368.742 610.19 369.092 611.57 369.092 613.11C369.092 614.65 368.742 616.03 368.042 617.25C367.362 618.47 366.412 619.43 365.192 620.13C363.972 620.81 362.602 621.15 361.082 621.15ZM361.082 619.26C362.202 619.26 363.202 619.01 364.082 618.51C364.982 617.99 365.682 617.26 366.182 616.32C366.682 615.38 366.932 614.31 366.932 613.11C366.932 611.91 366.682 610.84 366.182 609.9C365.682 608.96 364.982 608.24 364.082 607.74C363.202 607.22 362.202 606.96 361.082 606.96C359.962 606.96 358.952 607.22 358.052 607.74C357.172 608.24 356.472 608.96 355.952 609.9C355.452 610.84 355.202 611.91 355.202 613.11C355.202 614.31 355.452 615.38 355.952 616.32C356.472 617.26 357.172 617.99 358.052 618.51C358.952 619.01 359.962 619.26 361.082 619.26ZM381.481 605.1C383.461 605.1 385.031 605.68 386.191 606.84C387.371 607.98 387.961 609.65 387.961 611.85V621H385.831V612.06C385.831 610.42 385.421 609.17 384.601 608.31C383.781 607.45 382.611 607.02 381.091 607.02C379.391 607.02 378.041 607.53 377.041 608.55C376.061 609.55 375.571 610.94 375.571 612.72V621H373.441V605.22H375.481V608.13C376.061 607.17 376.861 606.43 377.881 605.91C378.921 605.37 380.121 605.1 381.481 605.1ZM397.124 604.17L400.844 606.27L400.154 607.53L396.404 605.34V609.6H395.024L395.054 605.34L391.304 607.53L390.584 606.27L394.334 604.17L390.584 602.07L391.304 600.78L395.054 603L395.024 598.74H396.404V603L400.154 600.78L400.844 602.07L397.124 604.17Z" fill="white"/>
<g filter="url(#filter2_d_13_287)">
<rect x="219" y="893" width="360" height="78" rx="20" fill="#293241"/>
<rect x="219.5" y="893.5" width="359" height="77" rx="19.5" stroke="#293241" stroke-opacity="0.2"/>
</g>
<path d="M254.88 943.18C252.16 943.18 250.04 942.4 248.52 940.84C247 939.28 246.24 937.01 246.24 934.03V922H248.46V933.94C248.46 936.38 249.01 938.2 250.11 939.4C251.21 940.6 252.8 941.2 254.88 941.2C256.98 941.2 258.58 940.6 259.68 939.4C260.78 938.2 261.33 936.38 261.33 933.94V922H263.49V934.03C263.49 937.01 262.73 939.28 261.21 940.84C259.71 942.4 257.6 943.18 254.88 943.18ZM277.86 927.1C279.34 927.1 280.68 927.44 281.88 928.12C283.08 928.78 284.02 929.72 284.7 930.94C285.38 932.16 285.72 933.55 285.72 935.11C285.72 936.69 285.38 938.09 284.7 939.31C284.02 940.53 283.08 941.48 281.88 942.16C280.7 942.82 279.36 943.15 277.86 943.15C276.58 943.15 275.42 942.89 274.38 942.37C273.36 941.83 272.52 941.05 271.86 940.03V948.82H269.73V927.22H271.77V930.34C272.41 929.3 273.25 928.5 274.29 927.94C275.35 927.38 276.54 927.1 277.86 927.1ZM277.71 941.26C278.81 941.26 279.81 941.01 280.71 940.51C281.61 939.99 282.31 939.26 282.81 938.32C283.33 937.38 283.59 936.31 283.59 935.11C283.59 933.91 283.33 932.85 282.81 931.93C282.31 930.99 281.61 930.26 280.71 929.74C279.81 929.22 278.81 928.96 277.71 928.96C276.59 928.96 275.58 929.22 274.68 929.74C273.8 930.26 273.1 930.99 272.58 931.93C272.08 932.85 271.83 933.91 271.83 935.11C271.83 936.31 272.08 937.38 272.58 938.32C273.1 939.26 273.8 939.99 274.68 940.51C275.58 941.01 276.59 941.26 277.71 941.26ZM290.062 920.74H292.192V943H290.062V920.74ZM304.568 943.15C303.048 943.15 301.678 942.81 300.458 942.13C299.238 941.43 298.278 940.47 297.578 939.25C296.878 938.03 296.528 936.65 296.528 935.11C296.528 933.57 296.878 932.19 297.578 930.97C298.278 929.75 299.238 928.8 300.458 928.12C301.678 927.44 303.048 927.1 304.568 927.1C306.088 927.1 307.458 927.44 308.678 928.12C309.898 928.8 310.848 929.75 311.528 930.97C312.228 932.19 312.578 933.57 312.578 935.11C312.578 936.65 312.228 938.03 311.528 939.25C310.848 940.47 309.898 941.43 308.678 942.13C307.458 942.81 306.088 943.15 304.568 943.15ZM304.568 941.26C305.688 941.26 306.688 941.01 307.568 940.51C308.468 939.99 309.168 939.26 309.668 938.32C310.168 937.38 310.418 936.31 310.418 935.11C310.418 933.91 310.168 932.84 309.668 931.9C309.168 930.96 308.468 930.24 307.568 929.74C306.688 929.22 305.688 928.96 304.568 928.96C303.448 928.96 302.438 929.22 301.538 929.74C300.658 930.24 299.958 930.96 299.438 931.9C298.938 932.84 298.688 933.91 298.688 935.11C298.688 936.31 298.938 937.38 299.438 938.32C299.958 939.26 300.658 939.99 301.538 940.51C302.438 941.01 303.448 941.26 304.568 941.26ZM322.359 927.1C324.419 927.1 325.999 927.62 327.099 928.66C328.199 929.68 328.749 931.2 328.749 933.22V943H326.709V940.54C326.229 941.36 325.519 942 324.579 942.46C323.659 942.92 322.559 943.15 321.279 943.15C319.519 943.15 318.119 942.73 317.079 941.89C316.039 941.05 315.519 939.94 315.519 938.56C315.519 937.22 315.999 936.14 316.959 935.32C317.939 934.5 319.489 934.09 321.609 934.09H326.619V933.13C326.619 931.77 326.239 930.74 325.479 930.04C324.719 929.32 323.609 928.96 322.149 928.96C321.149 928.96 320.189 929.13 319.269 929.47C318.349 929.79 317.559 930.24 316.899 930.82L315.939 929.23C316.739 928.55 317.699 928.03 318.819 927.67C319.939 927.29 321.119 927.1 322.359 927.1ZM321.609 941.47C322.809 941.47 323.839 941.2 324.699 940.66C325.559 940.1 326.199 939.3 326.619 938.26V935.68H321.669C318.969 935.68 317.619 936.62 317.619 938.5C317.619 939.42 317.969 940.15 318.669 940.69C319.369 941.21 320.349 941.47 321.609 941.47ZM348.993 920.74V943H346.953V939.88C346.313 940.94 345.463 941.75 344.403 942.31C343.363 942.87 342.183 943.15 340.863 943.15C339.383 943.15 338.043 942.81 336.843 942.13C335.643 941.45 334.703 940.5 334.023 939.28C333.343 938.06 333.003 936.67 333.003 935.11C333.003 933.55 333.343 932.16 334.023 930.94C334.703 929.72 335.643 928.78 336.843 928.12C338.043 927.44 339.383 927.1 340.863 927.1C342.143 927.1 343.293 927.37 344.313 927.91C345.353 928.43 346.203 929.2 346.863 930.22V920.74H348.993ZM341.043 941.26C342.143 941.26 343.133 941.01 344.013 940.51C344.913 939.99 345.613 939.26 346.113 938.32C346.633 937.38 346.893 936.31 346.893 935.11C346.893 933.91 346.633 932.84 346.113 931.9C345.613 930.96 344.913 930.24 344.013 929.74C343.133 929.22 342.143 928.96 341.043 928.96C339.923 928.96 338.913 929.22 338.013 929.74C337.133 930.24 336.433 930.96 335.913 931.9C335.413 932.84 335.163 933.91 335.163 935.11C335.163 936.31 335.413 937.38 335.913 938.32C336.433 939.26 337.133 939.99 338.013 940.51C338.913 941.01 339.923 941.26 341.043 941.26ZM371.087 922C373.767 922 375.867 922.64 377.387 923.92C378.907 925.2 379.667 926.96 379.667 929.2C379.667 931.44 378.907 933.2 377.387 934.48C375.867 935.74 373.767 936.37 371.087 936.37H365.447V943H363.227V922H371.087ZM371.027 934.42C373.107 934.42 374.697 933.97 375.797 933.07C376.897 932.15 377.447 930.86 377.447 929.2C377.447 927.5 376.897 926.2 375.797 925.3C374.697 924.38 373.107 923.92 371.027 923.92H365.447V934.42H371.027ZM383.607 927.22H385.737V943H383.607V927.22ZM384.687 923.77C384.247 923.77 383.877 923.62 383.577 923.32C383.277 923.02 383.127 922.66 383.127 922.24C383.127 921.84 383.277 921.49 383.577 921.19C383.877 920.89 384.247 920.74 384.687 920.74C385.127 920.74 385.497 920.89 385.797 921.19C386.097 921.47 386.247 921.81 386.247 922.21C386.247 922.65 386.097 923.02 385.797 923.32C385.497 923.62 385.127 923.77 384.687 923.77ZM398.203 943.15C396.643 943.15 395.243 942.81 394.003 942.13C392.783 941.45 391.823 940.5 391.123 939.28C390.423 938.04 390.073 936.65 390.073 935.11C390.073 933.57 390.423 932.19 391.123 930.97C391.823 929.75 392.783 928.8 394.003 928.12C395.243 927.44 396.643 927.1 398.203 927.1C399.563 927.1 400.773 927.37 401.833 927.91C402.913 928.43 403.763 929.2 404.383 930.22L402.793 931.3C402.273 930.52 401.613 929.94 400.813 929.56C400.013 929.16 399.143 928.96 398.203 928.96C397.063 928.96 396.033 929.22 395.113 929.74C394.213 930.24 393.503 930.96 392.983 931.9C392.483 932.84 392.233 933.91 392.233 935.11C392.233 936.33 392.483 937.41 392.983 938.35C393.503 939.27 394.213 939.99 395.113 940.51C396.033 941.01 397.063 941.26 398.203 941.26C399.143 941.26 400.013 941.07 400.813 940.69C401.613 940.31 402.273 939.73 402.793 938.95L404.383 940.03C403.763 941.05 402.913 941.83 401.833 942.37C400.753 942.89 399.543 943.15 398.203 943.15ZM417.053 942.04C416.653 942.4 416.153 942.68 415.553 942.88C414.973 943.06 414.363 943.15 413.723 943.15C412.243 943.15 411.103 942.75 410.303 941.95C409.503 941.15 409.103 940.02 409.103 938.56V929.02H406.283V927.22H409.103V923.77H411.233V927.22H416.033V929.02H411.233V938.44C411.233 939.38 411.463 940.1 411.923 940.6C412.403 941.08 413.083 941.32 413.963 941.32C414.403 941.32 414.823 941.25 415.223 941.11C415.643 940.97 416.003 940.77 416.303 940.51L417.053 942.04ZM435.151 927.22V943H433.111V940.12C432.551 941.08 431.781 941.83 430.801 942.37C429.821 942.89 428.701 943.15 427.441 943.15C425.381 943.15 423.751 942.58 422.551 941.44C421.371 940.28 420.781 938.59 420.781 936.37V927.22H422.911V936.16C422.911 937.82 423.321 939.08 424.141 939.94C424.961 940.8 426.131 941.23 427.651 941.23C429.311 941.23 430.621 940.73 431.581 939.73C432.541 938.71 433.021 937.3 433.021 935.5V927.22H435.151ZM443.156 930.31C443.656 929.25 444.396 928.45 445.376 927.91C446.376 927.37 447.606 927.1 449.066 927.1V929.17L448.556 929.14C446.896 929.14 445.596 929.65 444.656 930.67C443.716 931.69 443.246 933.12 443.246 934.96V943H441.116V927.22H443.156V930.31ZM466.517 935.77H453.317C453.437 937.41 454.067 938.74 455.207 939.76C456.347 940.76 457.787 941.26 459.527 941.26C460.507 941.26 461.407 941.09 462.227 940.75C463.047 940.39 463.757 939.87 464.357 939.19L465.557 940.57C464.857 941.41 463.977 942.05 462.917 942.49C461.877 942.93 460.727 943.15 459.467 943.15C457.847 943.15 456.407 942.81 455.147 942.13C453.907 941.43 452.937 940.47 452.237 939.25C451.537 938.03 451.187 936.65 451.187 935.11C451.187 933.57 451.517 932.19 452.177 930.97C452.857 929.75 453.777 928.8 454.937 928.12C456.117 927.44 457.437 927.1 458.897 927.1C460.357 927.1 461.667 927.44 462.827 928.12C463.987 928.8 464.897 929.75 465.557 930.97C466.217 932.17 466.547 933.55 466.547 935.11L466.517 935.77ZM458.897 928.93C457.377 928.93 456.097 929.42 455.057 930.4C454.037 931.36 453.457 932.62 453.317 934.18H464.507C464.367 932.62 463.777 931.36 462.737 930.4C461.717 929.42 460.437 928.93 458.897 928.93ZM474.526 926.17L478.246 928.27L477.556 929.53L473.806 927.34V931.6H472.426L472.456 927.34L468.706 929.53L467.986 928.27L471.736 926.17L467.986 924.07L468.706 922.78L472.456 925L472.426 920.74H473.806V925L477.556 922.78L478.246 924.07L474.526 926.17Z" fill="white"/>
<path d="M548.7 929.75C548.975 928.925 549.25 928.1 549.25 927C549.25 920.95 544.3 916 538.25 916C534.125 916 530.275 918.475 528.625 922.05C527.8 921.775 526.7 921.5 525.875 921.5C522.025 921.5 519 924.525 519 928.375C519 928.925 519 929.475 519.275 929.75C514.325 930.575 510.75 934.425 510.75 939.375C510.75 944.6 515.15 949 520.375 949H530V940.75H521.75L534.125 928.375L546.5 940.75H538.25V949H547.875C553.1 949 557.5 944.6 557.5 939.375C557.5 934.425 553.65 930.3 548.7 929.75Z" fill="white"/>
<g filter="url(#filter3_d_13_287)">
<rect x="1016" y="893" width="201" height="78" rx="20" fill="#EE6C4D"/>
<rect x="1016.5" y="893.5" width="200" height="77" rx="19.5" stroke="#293241" stroke-opacity="0.2"/>
</g>
<path d="M1069.21 943.18C1067.65 943.18 1066.15 942.93 1064.71 942.43C1063.29 941.93 1062.19 941.27 1061.41 940.45L1062.28 938.74C1063.04 939.5 1064.05 940.12 1065.31 940.6C1066.57 941.06 1067.87 941.29 1069.21 941.29C1071.09 941.29 1072.5 940.95 1073.44 940.27C1074.38 939.57 1074.85 938.67 1074.85 937.57C1074.85 936.73 1074.59 936.06 1074.07 935.56C1073.57 935.06 1072.95 934.68 1072.21 934.42C1071.47 934.14 1070.44 933.84 1069.12 933.52C1067.54 933.12 1066.28 932.74 1065.34 932.38C1064.4 932 1063.59 931.43 1062.91 930.67C1062.25 929.91 1061.92 928.88 1061.92 927.58C1061.92 926.52 1062.2 925.56 1062.76 924.7C1063.32 923.82 1064.18 923.12 1065.34 922.6C1066.5 922.08 1067.94 921.82 1069.66 921.82C1070.86 921.82 1072.03 921.99 1073.17 922.33C1074.33 922.65 1075.33 923.1 1076.17 923.68L1075.42 925.45C1074.54 924.87 1073.6 924.44 1072.6 924.16C1071.6 923.86 1070.62 923.71 1069.66 923.71C1067.82 923.71 1066.43 924.07 1065.49 924.79C1064.57 925.49 1064.11 926.4 1064.11 927.52C1064.11 928.36 1064.36 929.04 1064.86 929.56C1065.38 930.06 1066.02 930.45 1066.78 930.73C1067.56 930.99 1068.6 931.28 1069.9 931.6C1071.44 931.98 1072.68 932.36 1073.62 932.74C1074.58 933.1 1075.39 933.66 1076.05 934.42C1076.71 935.16 1077.04 936.17 1077.04 937.45C1077.04 938.51 1076.75 939.48 1076.17 940.36C1075.61 941.22 1074.74 941.91 1073.56 942.43C1072.38 942.93 1070.93 943.18 1069.21 943.18ZM1095.65 927.22V943H1093.61V940.12C1093.05 941.08 1092.28 941.83 1091.3 942.37C1090.32 942.89 1089.2 943.15 1087.94 943.15C1085.88 943.15 1084.25 942.58 1083.05 941.44C1081.87 940.28 1081.28 938.59 1081.28 936.37V927.22H1083.41V936.16C1083.41 937.82 1083.82 939.08 1084.64 939.94C1085.46 940.8 1086.63 941.23 1088.15 941.23C1089.81 941.23 1091.12 940.73 1092.08 939.73C1093.04 938.71 1093.52 937.3 1093.52 935.5V927.22H1095.65ZM1109.74 927.1C1111.22 927.1 1112.56 927.44 1113.76 928.12C1114.96 928.78 1115.9 929.72 1116.58 930.94C1117.26 932.16 1117.6 933.55 1117.6 935.11C1117.6 936.67 1117.26 938.06 1116.58 939.28C1115.9 940.5 1114.96 941.45 1113.76 942.13C1112.56 942.81 1111.22 943.15 1109.74 943.15C1108.42 943.15 1107.23 942.87 1106.17 942.31C1105.13 941.75 1104.29 940.94 1103.65 939.88V943H1101.61V920.74H1103.74V930.22C1104.4 929.2 1105.24 928.43 1106.26 927.91C1107.3 927.37 1108.46 927.1 1109.74 927.1ZM1109.59 941.26C1110.69 941.26 1111.69 941.01 1112.59 940.51C1113.49 939.99 1114.19 939.26 1114.69 938.32C1115.21 937.38 1115.47 936.31 1115.47 935.11C1115.47 933.91 1115.21 932.84 1114.69 931.9C1114.19 930.96 1113.49 930.24 1112.59 929.74C1111.69 929.22 1110.69 928.96 1109.59 928.96C1108.47 928.96 1107.46 929.22 1106.56 929.74C1105.68 930.24 1104.98 930.96 1104.46 931.9C1103.96 932.84 1103.71 933.91 1103.71 935.11C1103.71 936.31 1103.96 937.38 1104.46 938.32C1104.98 939.26 1105.68 939.99 1106.56 940.51C1107.46 941.01 1108.47 941.26 1109.59 941.26ZM1141.62 927.1C1143.6 927.1 1145.15 927.67 1146.27 928.81C1147.41 929.95 1147.98 931.63 1147.98 933.85V943H1145.85V934.06C1145.85 932.42 1145.45 931.17 1144.65 930.31C1143.87 929.45 1142.76 929.02 1141.32 929.02C1139.68 929.02 1138.39 929.53 1137.45 930.55C1136.51 931.55 1136.04 932.94 1136.04 934.72V943H1133.91V934.06C1133.91 932.42 1133.51 931.17 1132.71 930.31C1131.93 929.45 1130.81 929.02 1129.35 929.02C1127.73 929.02 1126.44 929.53 1125.48 930.55C1124.54 931.55 1124.07 932.94 1124.07 934.72V943H1121.94V927.22H1123.98V930.1C1124.54 929.14 1125.32 928.4 1126.32 927.88C1127.32 927.36 1128.47 927.1 1129.77 927.1C1131.09 927.1 1132.23 927.38 1133.19 927.94C1134.17 928.5 1134.9 929.33 1135.38 930.43C1135.96 929.39 1136.79 928.58 1137.87 928C1138.97 927.4 1140.22 927.1 1141.62 927.1ZM1153.76 927.22H1155.89V943H1153.76V927.22ZM1154.84 923.77C1154.4 923.77 1154.03 923.62 1153.73 923.32C1153.43 923.02 1153.28 922.66 1153.28 922.24C1153.28 921.84 1153.43 921.49 1153.73 921.19C1154.03 920.89 1154.4 920.74 1154.84 920.74C1155.28 920.74 1155.65 920.89 1155.95 921.19C1156.25 921.47 1156.4 921.81 1156.4 922.21C1156.4 922.65 1156.25 923.02 1155.95 923.32C1155.65 923.62 1155.28 923.77 1154.84 923.77ZM1170.13 942.04C1169.73 942.4 1169.23 942.68 1168.63 942.88C1168.05 943.06 1167.44 943.15 1166.8 943.15C1165.32 943.15 1164.18 942.75 1163.38 941.95C1162.58 941.15 1162.18 940.02 1162.18 938.56V929.02H1159.36V927.22H1162.18V923.77H1164.31V927.22H1169.11V929.02H1164.31V938.44C1164.31 939.38 1164.54 940.1 1165 940.6C1165.48 941.08 1166.16 941.32 1167.04 941.32C1167.48 941.32 1167.9 941.25 1168.3 941.11C1168.72 940.97 1169.08 940.77 1169.38 940.51L1170.13 942.04Z" fill="white"/>
<g filter="url(#filter4_d_13_287)">
<rect x="219" y="673" width="993" height="196" rx="20" fill="#3D5A80"/>
<rect x="219.5" y="673.5" width="992" height="195" rx="19.5" stroke="#293241" stroke-opacity="0.2"/>
</g>
<path d="M246.42 702H254.97C257.19 702 259.15 702.45 260.85 703.35C262.55 704.23 263.87 705.47 264.81 707.07C265.75 708.65 266.22 710.46 266.22 712.5C266.22 714.54 265.75 716.36 264.81 717.96C263.87 719.54 262.55 720.78 260.85 721.68C259.15 722.56 257.19 723 254.97 723H246.42V702ZM254.85 721.08C256.69 721.08 258.3 720.72 259.68 720C261.06 719.26 262.13 718.25 262.89 716.97C263.65 715.67 264.03 714.18 264.03 712.5C264.03 710.82 263.65 709.34 262.89 708.06C262.13 706.76 261.06 705.75 259.68 705.03C258.3 704.29 256.69 703.92 254.85 703.92H248.64V721.08H254.85ZM284.495 715.77H271.295C271.415 717.41 272.045 718.74 273.185 719.76C274.325 720.76 275.765 721.26 277.505 721.26C278.485 721.26 279.385 721.09 280.205 720.75C281.025 720.39 281.735 719.87 282.335 719.19L283.535 720.57C282.835 721.41 281.955 722.05 280.895 722.49C279.855 722.93 278.705 723.15 277.445 723.15C275.825 723.15 274.385 722.81 273.125 722.13C271.885 721.43 270.915 720.47 270.215 719.25C269.515 718.03 269.165 716.65 269.165 715.11C269.165 713.57 269.495 712.19 270.155 710.97C270.835 709.75 271.755 708.8 272.915 708.12C274.095 707.44 275.415 707.1 276.875 707.1C278.335 707.1 279.645 707.44 280.805 708.12C281.965 708.8 282.875 709.75 283.535 710.97C284.195 712.17 284.525 713.55 284.525 715.11L284.495 715.77ZM276.875 708.93C275.355 708.93 274.075 709.42 273.035 710.4C272.015 711.36 271.435 712.62 271.295 714.18H282.485C282.345 712.62 281.755 711.36 280.715 710.4C279.695 709.42 278.415 708.93 276.875 708.93ZM293.091 723.15C291.811 723.15 290.581 722.97 289.401 722.61C288.241 722.23 287.331 721.76 286.671 721.2L287.631 719.52C288.291 720.04 289.121 720.47 290.121 720.81C291.121 721.13 292.161 721.29 293.241 721.29C294.681 721.29 295.741 721.07 296.421 720.63C297.121 720.17 297.471 719.53 297.471 718.71C297.471 718.13 297.281 717.68 296.901 717.36C296.521 717.02 296.041 716.77 295.461 716.61C294.881 716.43 294.111 716.26 293.151 716.1C291.871 715.86 290.841 715.62 290.061 715.38C289.281 715.12 288.611 714.69 288.051 714.09C287.511 713.49 287.241 712.66 287.241 711.6C287.241 710.28 287.791 709.2 288.891 708.36C289.991 707.52 291.521 707.1 293.481 707.1C294.501 707.1 295.521 707.24 296.541 707.52C297.561 707.78 298.401 708.13 299.061 708.57L298.131 710.28C296.831 709.38 295.281 708.93 293.481 708.93C292.121 708.93 291.091 709.17 290.391 709.65C289.711 710.13 289.371 710.76 289.371 711.54C289.371 712.14 289.561 712.62 289.941 712.98C290.341 713.34 290.831 713.61 291.411 713.79C291.991 713.95 292.791 714.12 293.811 714.3C295.071 714.54 296.081 714.78 296.841 715.02C297.601 715.26 298.251 715.67 298.791 716.25C299.331 716.83 299.601 717.63 299.601 718.65C299.601 720.03 299.021 721.13 297.861 721.95C296.721 722.75 295.131 723.15 293.091 723.15ZM310.078 723.15C308.518 723.15 307.118 722.81 305.878 722.13C304.658 721.45 303.698 720.5 302.998 719.28C302.298 718.04 301.948 716.65 301.948 715.11C301.948 713.57 302.298 712.19 302.998 710.97C303.698 709.75 304.658 708.8 305.878 708.12C307.118 707.44 308.518 707.1 310.078 707.1C311.438 707.1 312.648 707.37 313.708 707.91C314.788 708.43 315.638 709.2 316.258 710.22L314.668 711.3C314.148 710.52 313.488 709.94 312.688 709.56C311.888 709.16 311.018 708.96 310.078 708.96C308.938 708.96 307.908 709.22 306.988 709.74C306.088 710.24 305.378 710.96 304.858 711.9C304.358 712.84 304.108 713.91 304.108 715.11C304.108 716.33 304.358 717.41 304.858 718.35C305.378 719.27 306.088 719.99 306.988 720.51C307.908 721.01 308.938 721.26 310.078 721.26C311.018 721.26 311.888 721.07 312.688 720.69C313.488 720.31 314.148 719.73 314.668 718.95L316.258 720.03C315.638 721.05 314.788 721.83 313.708 722.37C312.628 722.89 311.418 723.15 310.078 723.15ZM322.483 710.31C322.983 709.25 323.723 708.45 324.703 707.91C325.703 707.37 326.933 707.1 328.393 707.1V709.17L327.883 709.14C326.223 709.14 324.923 709.65 323.983 710.67C323.043 711.69 322.573 713.12 322.573 714.96V723H320.443V707.22H322.483V710.31ZM332.249 707.22H334.379V723H332.249V707.22ZM333.329 703.77C332.889 703.77 332.519 703.62 332.219 703.32C331.919 703.02 331.769 702.66 331.769 702.24C331.769 701.84 331.919 701.49 332.219 701.19C332.519 700.89 332.889 700.74 333.329 700.74C333.769 700.74 334.139 700.89 334.439 701.19C334.739 701.47 334.889 701.81 334.889 702.21C334.889 702.65 334.739 703.02 334.439 703.32C334.139 703.62 333.769 703.77 333.329 703.77ZM348.436 707.1C349.916 707.1 351.256 707.44 352.456 708.12C353.656 708.78 354.596 709.72 355.276 710.94C355.956 712.16 356.296 713.55 356.296 715.11C356.296 716.69 355.956 718.09 355.276 719.31C354.596 720.53 353.656 721.48 352.456 722.16C351.276 722.82 349.936 723.15 348.436 723.15C347.156 723.15 345.996 722.89 344.956 722.37C343.936 721.83 343.096 721.05 342.436 720.03V728.82H340.306V707.22H342.346V710.34C342.986 709.3 343.826 708.5 344.866 707.94C345.926 707.38 347.116 707.1 348.436 707.1ZM348.286 721.26C349.386 721.26 350.386 721.01 351.286 720.51C352.186 719.99 352.886 719.26 353.386 718.32C353.906 717.38 354.166 716.31 354.166 715.11C354.166 713.91 353.906 712.85 353.386 711.93C352.886 710.99 352.186 710.26 351.286 709.74C350.386 709.22 349.386 708.96 348.286 708.96C347.166 708.96 346.156 709.22 345.256 709.74C344.376 710.26 343.676 710.99 343.156 711.93C342.656 712.85 342.406 713.91 342.406 715.11C342.406 716.31 342.656 717.38 343.156 718.32C343.676 719.26 344.376 719.99 345.256 720.51C346.156 721.01 347.166 721.26 348.286 721.26ZM368.948 722.04C368.548 722.4 368.048 722.68 367.448 722.88C366.868 723.06 366.258 723.15 365.618 723.15C364.138 723.15 362.998 722.75 362.198 721.95C361.398 721.15 360.998 720.02 360.998 718.56V709.02H358.178V707.22H360.998V703.77H363.128V707.22H367.928V709.02H363.128V718.44C363.128 719.38 363.358 720.1 363.818 720.6C364.298 721.08 364.978 721.32 365.858 721.32C366.298 721.32 366.718 721.25 367.118 721.11C367.538 720.97 367.898 720.77 368.198 720.51L368.948 722.04ZM372.825 707.22H374.955V723H372.825V707.22ZM373.905 703.77C373.465 703.77 373.095 703.62 372.795 703.32C372.495 703.02 372.345 702.66 372.345 702.24C372.345 701.84 372.495 701.49 372.795 701.19C373.095 700.89 373.465 700.74 373.905 700.74C374.345 700.74 374.715 700.89 375.015 701.19C375.315 701.47 375.465 701.81 375.465 702.21C375.465 702.65 375.315 703.02 375.015 703.32C374.715 703.62 374.345 703.77 373.905 703.77ZM387.332 723.15C385.812 723.15 384.442 722.81 383.222 722.13C382.002 721.43 381.042 720.47 380.342 719.25C379.642 718.03 379.292 716.65 379.292 715.11C379.292 713.57 379.642 712.19 380.342 710.97C381.042 709.75 382.002 708.8 383.222 708.12C384.442 707.44 385.812 707.1 387.332 707.1C388.852 707.1 390.222 707.44 391.442 708.12C392.662 708.8 393.612 709.75 394.292 710.97C394.992 712.19 395.342 713.57 395.342 715.11C395.342 716.65 394.992 718.03 394.292 719.25C393.612 720.47 392.662 721.43 391.442 722.13C390.222 722.81 388.852 723.15 387.332 723.15ZM387.332 721.26C388.452 721.26 389.452 721.01 390.332 720.51C391.232 719.99 391.932 719.26 392.432 718.32C392.932 717.38 393.182 716.31 393.182 715.11C393.182 713.91 392.932 712.84 392.432 711.9C391.932 710.96 391.232 710.24 390.332 709.74C389.452 709.22 388.452 708.96 387.332 708.96C386.212 708.96 385.202 709.22 384.302 709.74C383.422 710.24 382.722 710.96 382.202 711.9C381.702 712.84 381.452 713.91 381.452 715.11C381.452 716.31 381.702 717.38 382.202 718.32C382.722 719.26 383.422 719.99 384.302 720.51C385.202 721.01 386.212 721.26 387.332 721.26ZM407.731 707.1C409.711 707.1 411.281 707.68 412.441 708.84C413.621 709.98 414.211 711.65 414.211 713.85V723H412.081V714.06C412.081 712.42 411.671 711.17 410.851 710.31C410.031 709.45 408.861 709.02 407.341 709.02C405.641 709.02 404.291 709.53 403.291 710.55C402.311 711.55 401.821 712.94 401.821 714.72V723H399.691V707.22H401.731V710.13C402.311 709.17 403.111 708.43 404.131 707.91C405.171 707.37 406.371 707.1 407.731 707.1ZM423.374 706.17L427.094 708.27L426.404 709.53L422.654 707.34V711.6H421.274L421.304 707.34L417.554 709.53L416.834 708.27L420.584 706.17L416.834 704.07L417.554 702.78L421.304 705L421.274 700.74H422.654V705L426.404 702.78L427.094 704.07L423.374 706.17Z" fill="white"/>
<g filter="url(#filter5_d_13_287)">
<rect x="219" y="469" width="993" height="78" rx="20" fill="#3D5A80"/>
<rect x="219.5" y="469.5" width="992" height="77" rx="19.5" stroke="#293241" stroke-opacity="0.2"/>
</g>
<path d="M295.28 498C297.96 498 300.06 498.64 301.58 499.92C303.1 501.2 303.86 502.96 303.86 505.2C303.86 507.44 303.1 509.2 301.58 510.48C300.06 511.74 297.96 512.37 295.28 512.37H289.64V519H287.42V498H295.28ZM295.22 510.42C297.3 510.42 298.89 509.97 299.99 509.07C301.09 508.15 301.64 506.86 301.64 505.2C301.64 503.5 301.09 502.2 299.99 501.3C298.89 500.38 297.3 499.92 295.22 499.92H289.64V510.42H295.22ZM309.84 506.31C310.34 505.25 311.08 504.45 312.06 503.91C313.06 503.37 314.29 503.1 315.75 503.1V505.17L315.24 505.14C313.58 505.14 312.28 505.65 311.34 506.67C310.4 507.69 309.93 509.12 309.93 510.96V519H307.8V503.22H309.84V506.31ZM319.607 503.22H321.737V519H319.607V503.22ZM320.687 499.77C320.247 499.77 319.877 499.62 319.577 499.32C319.277 499.02 319.127 498.66 319.127 498.24C319.127 497.84 319.277 497.49 319.577 497.19C319.877 496.89 320.247 496.74 320.687 496.74C321.127 496.74 321.497 496.89 321.797 497.19C322.097 497.47 322.247 497.81 322.247 498.21C322.247 498.65 322.097 499.02 321.797 499.32C321.497 499.62 321.127 499.77 320.687 499.77ZM334.203 519.15C332.643 519.15 331.243 518.81 330.003 518.13C328.783 517.45 327.823 516.5 327.123 515.28C326.423 514.04 326.073 512.65 326.073 511.11C326.073 509.57 326.423 508.19 327.123 506.97C327.823 505.75 328.783 504.8 330.003 504.12C331.243 503.44 332.643 503.1 334.203 503.1C335.563 503.1 336.773 503.37 337.833 503.91C338.913 504.43 339.763 505.2 340.383 506.22L338.793 507.3C338.273 506.52 337.613 505.94 336.813 505.56C336.013 505.16 335.143 504.96 334.203 504.96C333.063 504.96 332.033 505.22 331.113 505.74C330.213 506.24 329.503 506.96 328.983 507.9C328.483 508.84 328.233 509.91 328.233 511.11C328.233 512.33 328.483 513.41 328.983 514.35C329.503 515.27 330.213 515.99 331.113 516.51C332.033 517.01 333.063 517.26 334.203 517.26C335.143 517.26 336.013 517.07 336.813 516.69C337.613 516.31 338.273 515.73 338.793 514.95L340.383 516.03C339.763 517.05 338.913 517.83 337.833 518.37C336.753 518.89 335.543 519.15 334.203 519.15ZM358.044 511.77H344.844C344.964 513.41 345.594 514.74 346.734 515.76C347.874 516.76 349.314 517.26 351.054 517.26C352.034 517.26 352.934 517.09 353.754 516.75C354.574 516.39 355.284 515.87 355.884 515.19L357.084 516.57C356.384 517.41 355.504 518.05 354.444 518.49C353.404 518.93 352.254 519.15 350.994 519.15C349.374 519.15 347.934 518.81 346.674 518.13C345.434 517.43 344.464 516.47 343.764 515.25C343.064 514.03 342.714 512.65 342.714 511.11C342.714 509.57 343.044 508.19 343.704 506.97C344.384 505.75 345.304 504.8 346.464 504.12C347.644 503.44 348.964 503.1 350.424 503.1C351.884 503.1 353.194 503.44 354.354 504.12C355.514 504.8 356.424 505.75 357.084 506.97C357.744 508.17 358.074 509.55 358.074 511.11L358.044 511.77ZM350.424 504.93C348.904 504.93 347.624 505.42 346.584 506.4C345.564 507.36 344.984 508.62 344.844 510.18H356.034C355.894 508.62 355.304 507.36 354.264 506.4C353.244 505.42 351.964 504.93 350.424 504.93ZM366.054 502.17L369.774 504.27L369.084 505.53L365.334 503.34V507.6H363.954L363.984 503.34L360.234 505.53L359.514 504.27L363.264 502.17L359.514 500.07L360.234 498.78L363.984 501L363.954 496.74H365.334V501L369.084 498.78L369.774 500.07L366.054 502.17Z" fill="white"/>
<path d="M256.04 513.45C256.04 514.99 255.45 516.3 254.27 517.38C253.09 518.44 251.36 519.03 249.08 519.15V522.6H247.58V519.18C246.12 519.1 244.74 518.82 243.44 518.34C242.16 517.84 241.15 517.21 240.41 516.45L241.28 514.74C241.98 515.42 242.89 515.99 244.01 516.45C245.15 516.91 246.34 517.18 247.58 517.26V509.37C246.2 509.03 245.05 508.67 244.13 508.29C243.21 507.89 242.44 507.32 241.82 506.58C241.22 505.82 240.92 504.82 240.92 503.58C240.92 502.04 241.48 500.75 242.6 499.71C243.72 498.65 245.38 498.03 247.58 497.85V494.4H249.08V497.82C250.22 497.86 251.32 498.05 252.38 498.39C253.46 498.71 254.39 499.14 255.17 499.68L254.42 501.45C253.6 500.93 252.73 500.52 251.81 500.22C250.89 499.92 249.98 499.75 249.08 499.71V507.66C250.56 508.02 251.77 508.39 252.71 508.77C253.65 509.13 254.44 509.69 255.08 510.45C255.72 511.21 256.04 512.21 256.04 513.45ZM243.11 503.52C243.11 504.56 243.49 505.35 244.25 505.89C245.03 506.43 246.14 506.89 247.58 507.27V499.77C246.1 499.89 244.98 500.3 244.22 501C243.48 501.68 243.11 502.52 243.11 503.52ZM249.08 517.26C250.66 517.14 251.85 516.75 252.65 516.09C253.45 515.43 253.85 514.59 253.85 513.57C253.85 512.49 253.44 511.68 252.62 511.14C251.8 510.6 250.62 510.14 249.08 509.76V517.26Z" fill="#293241"/>
<g filter="url(#filter6_d_13_287)">
<rect x="219" y="364" width="993" height="78" rx="20" fill="#3D5A80"/>
<rect x="219.5" y="364.5" width="992" height="77" rx="19.5" stroke="#293241" stroke-opacity="0.2"/>
</g>
<path d="M1163.68 400.845L1171.02 408.183C1172.12 409.288 1173.91 409.288 1175.01 408.183L1182.35 400.845C1184.13 399.06 1182.86 396 1180.34 396H1165.66C1163.14 396 1161.89 399.06 1163.68 400.845Z" fill="#293241"/>
<path d="M255.54 414.18C253.46 414.18 251.58 413.72 249.9 412.8C248.24 411.88 246.93 410.61 245.97 408.99C245.03 407.35 244.56 405.52 244.56 403.5C244.56 401.48 245.03 399.66 245.97 398.04C246.93 396.4 248.25 395.12 249.93 394.2C251.61 393.28 253.49 392.82 255.57 392.82C257.13 392.82 258.57 393.08 259.89 393.6C261.21 394.12 262.33 394.88 263.25 395.88L261.84 397.29C260.2 395.63 258.13 394.8 255.63 394.8C253.97 394.8 252.46 395.18 251.1 395.94C249.74 396.7 248.67 397.74 247.89 399.06C247.13 400.38 246.75 401.86 246.75 403.5C246.75 405.14 247.13 406.62 247.89 407.94C248.67 409.26 249.74 410.3 251.1 411.06C252.46 411.82 253.97 412.2 255.63 412.2C258.15 412.2 260.22 411.36 261.84 409.68L263.25 411.09C262.33 412.09 261.2 412.86 259.86 413.4C258.54 413.92 257.1 414.18 255.54 414.18ZM275.573 398.1C277.553 398.1 279.123 398.68 280.283 399.84C281.463 400.98 282.053 402.65 282.053 404.85V414H279.923V405.06C279.923 403.42 279.513 402.17 278.693 401.31C277.873 400.45 276.703 400.02 275.183 400.02C273.483 400.02 272.133 400.53 271.133 401.55C270.153 402.55 269.663 403.94 269.663 405.72V414H267.533V391.74H269.663V400.98C270.243 400.06 271.043 399.35 272.062 398.85C273.083 398.35 274.253 398.1 275.573 398.1ZM294.344 414.15C292.824 414.15 291.454 413.81 290.234 413.13C289.014 412.43 288.054 411.47 287.354 410.25C286.654 409.03 286.304 407.65 286.304 406.11C286.304 404.57 286.654 403.19 287.354 401.97C288.054 400.75 289.014 399.8 290.234 399.12C291.454 398.44 292.824 398.1 294.344 398.1C295.864 398.1 297.234 398.44 298.454 399.12C299.674 399.8 300.624 400.75 301.304 401.97C302.004 403.19 302.354 404.57 302.354 406.11C302.354 407.65 302.004 409.03 301.304 410.25C300.624 411.47 299.674 412.43 298.454 413.13C297.234 413.81 295.864 414.15 294.344 414.15ZM294.344 412.26C295.464 412.26 296.464 412.01 297.344 411.51C298.244 410.99 298.944 410.26 299.444 409.32C299.944 408.38 300.194 407.31 300.194 406.11C300.194 404.91 299.944 403.84 299.444 402.9C298.944 401.96 298.244 401.24 297.344 400.74C296.464 400.22 295.464 399.96 294.344 399.96C293.224 399.96 292.214 400.22 291.314 400.74C290.434 401.24 289.734 401.96 289.214 402.9C288.714 403.84 288.464 404.91 288.464 406.11C288.464 407.31 288.714 408.38 289.214 409.32C289.734 410.26 290.434 410.99 291.314 411.51C292.214 412.01 293.224 412.26 294.344 412.26ZM313.152 414.15C311.632 414.15 310.262 413.81 309.042 413.13C307.822 412.43 306.862 411.47 306.162 410.25C305.462 409.03 305.112 407.65 305.112 406.11C305.112 404.57 305.462 403.19 306.162 401.97C306.862 400.75 307.822 399.8 309.042 399.12C310.262 398.44 311.632 398.1 313.152 398.1C314.672 398.1 316.042 398.44 317.262 399.12C318.482 399.8 319.432 400.75 320.112 401.97C320.812 403.19 321.162 404.57 321.162 406.11C321.162 407.65 320.812 409.03 320.112 410.25C319.432 411.47 318.482 412.43 317.262 413.13C316.042 413.81 314.672 414.15 313.152 414.15ZM313.152 412.26C314.272 412.26 315.272 412.01 316.152 411.51C317.052 410.99 317.752 410.26 318.252 409.32C318.752 408.38 319.002 407.31 319.002 406.11C319.002 404.91 318.752 403.84 318.252 402.9C317.752 401.96 317.052 401.24 316.152 400.74C315.272 400.22 314.272 399.96 313.152 399.96C312.032 399.96 311.022 400.22 310.122 400.74C309.242 401.24 308.542 401.96 308.022 402.9C307.522 403.84 307.272 404.91 307.272 406.11C307.272 407.31 307.522 408.38 308.022 409.32C308.542 410.26 309.242 410.99 310.122 411.51C311.022 412.01 312.032 412.26 313.152 412.26ZM329.741 414.15C328.461 414.15 327.231 413.97 326.051 413.61C324.891 413.23 323.981 412.76 323.321 412.2L324.281 410.52C324.941 411.04 325.771 411.47 326.771 411.81C327.771 412.13 328.811 412.29 329.891 412.29C331.331 412.29 332.391 412.07 333.071 411.63C333.771 411.17 334.121 410.53 334.121 409.71C334.121 409.13 333.931 408.68 333.551 408.36C333.171 408.02 332.691 407.77 332.111 407.61C331.531 407.43 330.761 407.26 329.801 407.1C328.521 406.86 327.491 406.62 326.711 406.38C325.931 406.12 325.261 405.69 324.701 405.09C324.161 404.49 323.891 403.66 323.891 402.6C323.891 401.28 324.441 400.2 325.541 399.36C326.641 398.52 328.171 398.1 330.131 398.1C331.151 398.1 332.171 398.24 333.191 398.52C334.211 398.78 335.051 399.13 335.711 399.57L334.781 401.28C333.481 400.38 331.931 399.93 330.131 399.93C328.771 399.93 327.741 400.17 327.041 400.65C326.361 401.13 326.021 401.76 326.021 402.54C326.021 403.14 326.211 403.62 326.591 403.98C326.991 404.34 327.481 404.61 328.061 404.79C328.641 404.95 329.441 405.12 330.461 405.3C331.721 405.54 332.731 405.78 333.491 406.02C334.251 406.26 334.901 406.67 335.441 407.25C335.981 407.83 336.251 408.63 336.251 409.65C336.251 411.03 335.671 412.13 334.511 412.95C333.371 413.75 331.781 414.15 329.741 414.15ZM353.929 406.77H340.729C340.849 408.41 341.479 409.74 342.619 410.76C343.759 411.76 345.199 412.26 346.939 412.26C347.919 412.26 348.819 412.09 349.639 411.75C350.459 411.39 351.169 410.87 351.769 410.19L352.969 411.57C352.269 412.41 351.389 413.05 350.329 413.49C349.289 413.93 348.139 414.15 346.879 414.15C345.259 414.15 343.819 413.81 342.559 413.13C341.319 412.43 340.349 411.47 339.649 410.25C338.949 409.03 338.599 407.65 338.599 406.11C338.599 404.57 338.929 403.19 339.589 401.97C340.269 400.75 341.189 399.8 342.349 399.12C343.529 398.44 344.849 398.1 346.309 398.1C347.769 398.1 349.079 398.44 350.239 399.12C351.399 399.8 352.309 400.75 352.969 401.97C353.629 403.17 353.959 404.55 353.959 406.11L353.929 406.77ZM346.309 399.93C344.789 399.93 343.509 400.42 342.469 401.4C341.449 402.36 340.869 403.62 340.729 405.18H351.919C351.779 403.62 351.189 402.36 350.149 401.4C349.129 400.42 347.849 399.93 346.309 399.93ZM372.386 414.18C370.826 414.18 369.326 413.93 367.886 413.43C366.466 412.93 365.366 412.27 364.586 411.45L365.456 409.74C366.216 410.5 367.226 411.12 368.486 411.6C369.746 412.06 371.046 412.29 372.386 412.29C374.266 412.29 375.676 411.95 376.616 411.27C377.556 410.57 378.026 409.67 378.026 408.57C378.026 407.73 377.766 407.06 377.246 406.56C376.746 406.06 376.126 405.68 375.386 405.42C374.646 405.14 373.616 404.84 372.296 404.52C370.716 404.12 369.456 403.74 368.516 403.38C367.576 403 366.766 402.43 366.086 401.67C365.426 400.91 365.096 399.88 365.096 398.58C365.096 397.52 365.376 396.56 365.936 395.7C366.496 394.82 367.356 394.12 368.516 393.6C369.676 393.08 371.116 392.82 372.836 392.82C374.036 392.82 375.206 392.99 376.346 393.33C377.506 393.65 378.506 394.1 379.346 394.68L378.596 396.45C377.716 395.87 376.776 395.44 375.776 395.16C374.776 394.86 373.796 394.71 372.836 394.71C370.996 394.71 369.606 395.07 368.666 395.79C367.746 396.49 367.286 397.4 367.286 398.52C367.286 399.36 367.536 400.04 368.036 400.56C368.556 401.06 369.196 401.45 369.956 401.73C370.736 401.99 371.776 402.28 373.076 402.6C374.616 402.98 375.856 403.36 376.796 403.74C377.756 404.1 378.566 404.66 379.226 405.42C379.886 406.16 380.216 407.17 380.216 408.45C380.216 409.51 379.926 410.48 379.346 411.36C378.786 412.22 377.916 412.91 376.736 413.43C375.556 413.93 374.106 414.18 372.386 414.18ZM391.143 414.15C389.583 414.15 388.183 413.81 386.943 413.13C385.723 412.45 384.763 411.5 384.063 410.28C383.363 409.04 383.013 407.65 383.013 406.11C383.013 404.57 383.363 403.19 384.063 401.97C384.763 400.75 385.723 399.8 386.943 399.12C388.183 398.44 389.583 398.1 391.143 398.1C392.503 398.1 393.713 398.37 394.773 398.91C395.853 399.43 396.703 400.2 397.323 401.22L395.733 402.3C395.213 401.52 394.553 400.94 393.753 400.56C392.953 400.16 392.083 399.96 391.143 399.96C390.003 399.96 388.973 400.22 388.053 400.74C387.153 401.24 386.443 401.96 385.923 402.9C385.423 403.84 385.173 404.91 385.173 406.11C385.173 407.33 385.423 408.41 385.923 409.35C386.443 410.27 387.153 410.99 388.053 411.51C388.973 412.01 390.003 412.26 391.143 412.26C392.083 412.26 392.953 412.07 393.753 411.69C394.553 411.31 395.213 410.73 395.733 409.95L397.323 411.03C396.703 412.05 395.853 412.83 394.773 413.37C393.693 413.89 392.483 414.15 391.143 414.15ZM409.313 398.1C411.293 398.1 412.863 398.68 414.023 399.84C415.203 400.98 415.793 402.65 415.793 404.85V414H413.663V405.06C413.663 403.42 413.253 402.17 412.433 401.31C411.613 400.45 410.443 400.02 408.923 400.02C407.223 400.02 405.873 400.53 404.873 401.55C403.893 402.55 403.403 403.94 403.403 405.72V414H401.273V391.74H403.403V400.98C403.983 400.06 404.783 399.35 405.803 398.85C406.823 398.35 407.993 398.1 409.313 398.1ZM428.084 414.15C426.564 414.15 425.194 413.81 423.974 413.13C422.754 412.43 421.794 411.47 421.094 410.25C420.394 409.03 420.044 407.65 420.044 406.11C420.044 404.57 420.394 403.19 421.094 401.97C421.794 400.75 422.754 399.8 423.974 399.12C425.194 398.44 426.564 398.1 428.084 398.1C429.604 398.1 430.974 398.44 432.194 399.12C433.414 399.8 434.364 400.75 435.044 401.97C435.744 403.19 436.094 404.57 436.094 406.11C436.094 407.65 435.744 409.03 435.044 410.25C434.364 411.47 433.414 412.43 432.194 413.13C430.974 413.81 429.604 414.15 428.084 414.15ZM428.084 412.26C429.204 412.26 430.204 412.01 431.084 411.51C431.984 410.99 432.684 410.26 433.184 409.32C433.684 408.38 433.934 407.31 433.934 406.11C433.934 404.91 433.684 403.84 433.184 402.9C432.684 401.96 431.984 401.24 431.084 400.74C430.204 400.22 429.204 399.96 428.084 399.96C426.964 399.96 425.954 400.22 425.054 400.74C424.174 401.24 423.474 401.96 422.954 402.9C422.454 403.84 422.204 404.91 422.204 406.11C422.204 407.31 422.454 408.38 422.954 409.32C423.474 410.26 424.174 410.99 425.054 411.51C425.954 412.01 426.964 412.26 428.084 412.26ZM446.893 414.15C445.373 414.15 444.003 413.81 442.783 413.13C441.563 412.43 440.603 411.47 439.903 410.25C439.203 409.03 438.853 407.65 438.853 406.11C438.853 404.57 439.203 403.19 439.903 401.97C440.603 400.75 441.563 399.8 442.783 399.12C444.003 398.44 445.373 398.1 446.893 398.1C448.413 398.1 449.783 398.44 451.003 399.12C452.223 399.8 453.173 400.75 453.853 401.97C454.553 403.19 454.903 404.57 454.903 406.11C454.903 407.65 454.553 409.03 453.853 410.25C453.173 411.47 452.223 412.43 451.003 413.13C449.783 413.81 448.413 414.15 446.893 414.15ZM446.893 412.26C448.013 412.26 449.013 412.01 449.893 411.51C450.793 410.99 451.493 410.26 451.993 409.32C452.493 408.38 452.743 407.31 452.743 406.11C452.743 404.91 452.493 403.84 451.993 402.9C451.493 401.96 450.793 401.24 449.893 400.74C449.013 400.22 448.013 399.96 446.893 399.96C445.773 399.96 444.763 400.22 443.863 400.74C442.983 401.24 442.283 401.96 441.763 402.9C441.263 403.84 441.013 404.91 441.013 406.11C441.013 407.31 441.263 408.38 441.763 409.32C442.283 410.26 442.983 410.99 443.863 411.51C444.763 412.01 445.773 412.26 446.893 412.26ZM459.251 391.74H461.381V414H459.251V391.74ZM493.159 393V414H491.329L477.829 396.96V414H475.609V393H477.439L490.969 410.04V393H493.159ZM505.084 398.1C507.144 398.1 508.724 398.62 509.824 399.66C510.924 400.68 511.474 402.2 511.474 404.22V414H509.434V411.54C508.954 412.36 508.244 413 507.304 413.46C506.384 413.92 505.284 414.15 504.004 414.15C502.244 414.15 500.844 413.73 499.804 412.89C498.764 412.05 498.244 410.94 498.244 409.56C498.244 408.22 498.724 407.14 499.684 406.32C500.664 405.5 502.214 405.09 504.334 405.09H509.344V404.13C509.344 402.77 508.964 401.74 508.204 401.04C507.444 400.32 506.334 399.96 504.874 399.96C503.874 399.96 502.914 400.13 501.994 400.47C501.074 400.79 500.284 401.24 499.624 401.82L498.664 400.23C499.464 399.55 500.424 399.03 501.544 398.67C502.664 398.29 503.844 398.1 505.084 398.1ZM504.334 412.47C505.534 412.47 506.564 412.2 507.424 411.66C508.284 411.1 508.924 410.3 509.344 409.26V406.68H504.394C501.694 406.68 500.344 407.62 500.344 409.5C500.344 410.42 500.694 411.15 501.394 411.69C502.094 412.21 503.074 412.47 504.334 412.47ZM536.939 398.1C538.919 398.1 540.469 398.67 541.589 399.81C542.729 400.95 543.299 402.63 543.299 404.85V414H541.169V405.06C541.169 403.42 540.769 402.17 539.969 401.31C539.189 400.45 538.079 400.02 536.639 400.02C534.999 400.02 533.709 400.53 532.769 401.55C531.829 402.55 531.359 403.94 531.359 405.72V414H529.229V405.06C529.229 403.42 528.829 402.17 528.029 401.31C527.249 400.45 526.129 400.02 524.669 400.02C523.049 400.02 521.759 400.53 520.799 401.55C519.859 402.55 519.389 403.94 519.389 405.72V414H517.259V398.22H519.299V401.1C519.859 400.14 520.639 399.4 521.639 398.88C522.639 398.36 523.789 398.1 525.089 398.1C526.409 398.1 527.549 398.38 528.509 398.94C529.489 399.5 530.219 400.33 530.699 401.43C531.279 400.39 532.109 399.58 533.189 399C534.289 398.4 535.539 398.1 536.939 398.1ZM562.874 406.77H549.674C549.794 408.41 550.424 409.74 551.564 410.76C552.704 411.76 554.144 412.26 555.884 412.26C556.864 412.26 557.764 412.09 558.584 411.75C559.404 411.39 560.114 410.87 560.714 410.19L561.914 411.57C561.214 412.41 560.334 413.05 559.274 413.49C558.234 413.93 557.084 414.15 555.824 414.15C554.204 414.15 552.764 413.81 551.504 413.13C550.264 412.43 549.294 411.47 548.594 410.25C547.894 409.03 547.544 407.65 547.544 406.11C547.544 404.57 547.874 403.19 548.534 401.97C549.214 400.75 550.134 399.8 551.294 399.12C552.474 398.44 553.794 398.1 555.254 398.1C556.714 398.1 558.024 398.44 559.184 399.12C560.344 399.8 561.254 400.75 561.914 401.97C562.574 403.17 562.904 404.55 562.904 406.11L562.874 406.77ZM555.254 399.93C553.734 399.93 552.454 400.42 551.414 401.4C550.394 402.36 549.814 403.62 549.674 405.18H560.864C560.724 403.62 560.134 402.36 559.094 401.4C558.074 400.42 556.794 399.93 555.254 399.93Z" fill="white"/>
<defs>
<filter id="filter0_d_13_287" x="219" y="262" width="1001" height="86" filterUnits="userSpaceOnUse" color-interpolation-filters="sRGB">
<feFlood flood-opacity="0" result="BackgroundImageFix"/>
<feColorMatrix in="SourceAlpha" type="matrix" values="0 0 0 0 0 0 0 0 0 0 0 0 0 0 0 0 0 0 127 0" result="hardAlpha"/>
<feOffset dx="4" dy="4"/>
<feGaussianBlur stdDeviation="2"/>
<feComposite in2="hardAlpha" operator="out"/>
<feColorMatrix type="matrix" values="0 0 0 0 0 0 0 0 0 0 0 0 0 0 0 0 0 0 0.25 0"/>
<feBlend mode="normal" in2="BackgroundImageFix" result="effect1_dropShadow_13_287"/>
<feBlend mode="normal" in="SourceGraphic" in2="effect1_dropShadow_13_287" result="shape"/>
</filter>
<filter id="filter1_d_13_287" x="219" y="571" width="1001" height="86" filterUnits="userSpaceOnUse" color-interpolation-filters="sRGB">
<feFlood flood-opacity="0" result="BackgroundImageFix"/>
<feColorMatrix in="SourceAlpha" type="matrix" values="0 0 0 0 0 0 0 0 0 0 0 0 0 0 0 0 0 0 127 0" result="hardAlpha"/>
<feOffset dx="4" dy="4"/>
<feGaussianBlur stdDeviation="2"/>
<feComposite in2="hardAlpha" operator="out"/>
<feColorMatrix type="matrix" values="0 0 0 0 0 0 0 0 0 0 0 0 0 0 0 0 0 0 0.25 0"/>
<feBlend mode="normal" in2="BackgroundImageFix" result="effect1_dropShadow_13_287"/>
<feBlend mode="normal" in="SourceGraphic" in2="effect1_dropShadow_13_287" result="shape"/>
</filter>
<filter id="filter2_d_13_287" x="219" y="893" width="368" height="86" filterUnits="userSpaceOnUse" color-interpolation-filters="sRGB">
<feFlood flood-opacity="0" result="BackgroundImageFix"/>
<feColorMatrix in="SourceAlpha" type="matrix" values="0 0 0 0 0 0 0 0 0 0 0 0 0 0 0 0 0 0 127 0" result="hardAlpha"/>
<feOffset dx="4" dy="4"/>
<feGaussianBlur stdDeviation="2"/>
<feComposite in2="hardAlpha" operator="out"/>
<feColorMatrix type="matrix" values="0 0 0 0 0 0 0 0 0 0 0 0 0 0 0 0 0 0 0.25 0"/>
<feBlend mode="normal" in2="BackgroundImageFix" result="effect1_dropShadow_13_287"/>
<feBlend mode="normal" in="SourceGraphic" in2="effect1_dropShadow_13_287" result="shape"/>
</filter>
<filter id="filter3_d_13_287" x="1016" y="893" width="209" height="86" filterUnits="userSpaceOnUse" color-interpolation-filters="sRGB">
<feFlood flood-opacity="0" result="BackgroundImageFix"/>
<feColorMatrix in="SourceAlpha" type="matrix" values="0 0 0 0 0 0 0 0 0 0 0 0 0 0 0 0 0 0 127 0" result="hardAlpha"/>
<feOffset dx="4" dy="4"/>
<feGaussianBlur stdDeviation="2"/>
<feComposite in2="hardAlpha" operator="out"/>
<feColorMatrix type="matrix" values="0 0 0 0 0 0 0 0 0 0 0 0 0 0 0 0 0 0 0.25 0"/>
<feBlend mode="normal" in2="BackgroundImageFix" result="effect1_dropShadow_13_287"/>
<feBlend mode="normal" in="SourceGraphic" in2="effect1_dropShadow_13_287" result="shape"/>
</filter>
<filter id="filter4_d_13_287" x="219" y="673" width="1001" height="204" filterUnits="userSpaceOnUse" color-interpolation-filters="sRGB">
<feFlood flood-opacity="0" result="BackgroundImageFix"/>
<feColorMatrix in="SourceAlpha" type="matrix" values="0 0 0 0 0 0 0 0 0 0 0 0 0 0 0 0 0 0 127 0" result="hardAlpha"/>
<feOffset dx="4" dy="4"/>
<feGaussianBlur stdDeviation="2"/>
<feComposite in2="hardAlpha" operator="out"/>
<feColorMatrix type="matrix" values="0 0 0 0 0 0 0 0 0 0 0 0 0 0 0 0 0 0 0.25 0"/>
<feBlend mode="normal" in2="BackgroundImageFix" result="effect1_dropShadow_13_287"/>
<feBlend mode="normal" in="SourceGraphic" in2="effect1_dropShadow_13_287" result="shape"/>
</filter>
<filter id="filter5_d_13_287" x="219" y="469" width="1001" height="86" filterUnits="userSpaceOnUse" color-interpolation-filters="sRGB">
<feFlood flood-opacity="0" result="BackgroundImageFix"/>
<feColorMatrix in="SourceAlpha" type="matrix" values="0 0 0 0 0 0 0 0 0 0 0 0 0 0 0 0 0 0 127 0" result="hardAlpha"/>
<feOffset dx="4" dy="4"/>
<feGaussianBlur stdDeviation="2"/>
<feComposite in2="hardAlpha" operator="out"/>
<feColorMatrix type="matrix" values="0 0 0 0 0 0 0 0 0 0 0 0 0 0 0 0 0 0 0.25 0"/>
<feBlend mode="normal" in2="BackgroundImageFix" result="effect1_dropShadow_13_287"/>
<feBlend mode="normal" in="SourceGraphic" in2="effect1_dropShadow_13_287" result="shape"/>
</filter>
<filter id="filter6_d_13_287" x="219" y="364" width="1001" height="86" filterUnits="userSpaceOnUse" color-interpolation-filters="sRGB">
<feFlood flood-opacity="0" result="BackgroundImageFix"/>
<feColorMatrix in="SourceAlpha" type="matrix" values="0 0 0 0 0 0 0 0 0 0 0 0 0 0 0 0 0 0 127 0" result="hardAlpha"/>
<feOffset dx="4" dy="4"/>
<feGaussianBlur stdDeviation="2"/>
<feComposite in2="hardAlpha" operator="out"/>
<feColorMatrix type="matrix" values="0 0 0 0 0 0 0 0 0 0 0 0 0 0 0 0 0 0 0.25 0"/>
<feBlend mode="normal" in2="BackgroundImageFix" result="effect1_dropShadow_13_287"/>
<feBlend mode="normal" in="SourceGraphic" in2="effect1_dropShadow_13_287" result="shape"/>
</filter>
</defs>
</svg>
